<svg xmlns="http://www.w3.org/2000/svg" width="5400" height="1800" viewBox="0 0 5400 1800">
  <defs>
    <style>
      .e1070751-b97d-454b-b882-3d9a7e23fe0c {
        fill: #231f20;
      }

      .b583de3c-ba6c-4306-a329-558bae8abbf2 {
        fill: #fff;
      }
    </style>
  </defs>
  <title>Sartography-Logo-Horizontal-White</title>
  <g id="e94489a4-3d38-4ca1-a960-8938d6ac2a9c" data-name="BG">
    <rect class="e1070751-b97d-454b-b882-3d9a7e23fe0c" width="5400" height="1800"/>
  </g>
  <g id="e38f33de-dae6-4483-85cb-39ecdd9425de" data-name="Horizontal Lockup - White">
    <g id="f601493c-12ea-420f-9b1c-0f4e6432949a" data-name="Sartography">
      <path class="b583de3c-ba6c-4306-a329-558bae8abbf2" d="M1593.39941,1031.40039Q1565.59375,1020.80664,1550,1004l9.19922-15.2002q14.79492,15.6006,39.80078,25.4004A142.73515,142.73515,0,0,0,1651.59961,1024q39.99317,0,60.40039-15.2002,20.39941-15.19628,20.39941-39.5996,0-18.79687-10.7998-30A71.51012,71.51012,0,0,0,1694.7998,922q-16.00341-6-43.20019-12.40039-30.80567-7.59375-49.40039-14.79981a78.83427,78.83427,0,0,1-31.59961-22.20019q-13.00343-15-13-40.19922A68.36191,68.36191,0,0,1,1568.39941,795q10.8003-16.99658,33-27,22.19971-9.99316,55.40039-10a156.26391,156.26391,0,0,1,45.59961,6.7998q22.39746,6.80714,38.79981,18.4004l-7.59961,16.39941a129.72041,129.72041,0,0,0-37-17.59961,139.33324,139.33324,0,0,0-39.79981-6q-38.80371,0-58.7998,15.59961Q1577.99317,807.2002,1578,832q0,18.80566,10.7998,30a71.38456,71.38456,0,0,0,26.79981,17.2002q15.99317,6,43.59961,12.7998,30.79688,7.60254,49.20019,14.7998a80.99435,80.99435,0,0,1,31.40039,21.79981q12.99317,14.60742,13,39.40039a66.50085,66.50085,0,0,1-11,37.2002Q1730.793,1022.00049,1708,1032q-22.8003,10.00342-56,10A163.01231,163.01231,0,0,1,1593.39941,1031.40039Z"/>
      <path class="b583de3c-ba6c-4306-a329-558bae8abbf2" d="M1995.19727,961.2002H1832.79688L1797.19727,1040h-22l128.7998-280h20.40039l128.79981,280h-22ZM1987.59766,944l-73.60059-161.59961L1840.79688,944Z"/>
      <path class="b583de3c-ba6c-4306-a329-558bae8abbf2" d="M2298.3916,1040l-66.7998-93.59961a203.7719,203.7719,0,0,1-27.2002,2h-80V1040h-20.40039V760H2204.3916q52.8003,0,82.79981,25,30,25.00342,30,69.40039,0,33.20508-17,55.79981Q2283.18458,932.80273,2251.5918,942l70,98Zm-94-109.59961q44.79346,0,68.39942-19.80078,23.59716-19.79883,23.60058-56.19922,0-36.394-23.60058-56.20019-23.606-19.8003-68.39942-19.79981h-80v152Z"/>
      <path class="b583de3c-ba6c-4306-a329-558bae8abbf2" d="M2441.58887,778.40039H2340.78809V760h222v18.40039H2461.98828V1040h-20.39941Z"/>
      <path class="b583de3c-ba6c-4306-a329-558bae8abbf2" d="M2653.58594,1023.40039a136.94558,136.94558,0,0,1-52.2002-51q-19.00341-32.40089-19-72.40039,0-39.99316,19-72.40039a136.94558,136.94558,0,0,1,52.2002-51Q2686.78223,758.0005,2727.98535,758q41.19434,0,74.40039,18.40039a135.59138,135.59138,0,0,1,52.2002,50.79981q18.99317,32.3994,19,72.7998,0,40.40625-19,72.7998a135.54325,135.54325,0,0,1-52.2002,50.79981q-33.20653,18.4043-74.40039,18.40039Q2686.78223,1042,2653.58594,1023.40039Zm138-16.20019A117.88739,117.88739,0,0,0,2836.38574,963q16.39746-28.1997,16.40039-63,0-34.8003-16.40039-63a117.929,117.929,0,0,0-44.7998-44.2002q-28.40625-15.99315-63.60059-16-35.20312,0-63.7998,16a117.45577,117.45577,0,0,0-45,44.2002q-16.40625,28.1997-16.39942,63,0,34.8003,16.39942,63a117.41468,117.41468,0,0,0,45,44.2002q28.59375,16.00341,63.7998,16Q2763.17969,1023.2002,2791.58594,1007.2002Z"/>
      <path class="b583de3c-ba6c-4306-a329-558bae8abbf2" d="M3144.38477,901.2002h19.60058V1006q-18.4043,17.606-44.60058,26.7998A165.90815,165.90815,0,0,1,3063.98535,1042q-41.60742,0-75-18.40039A135.08127,135.08127,0,0,1,2936.585,972.7998q-19.00341-32.3994-19-72.7998,0-40.39746,19-72.7998a135.12893,135.12893,0,0,1,52.40039-50.79981q33.39258-18.394,75.39942-18.40039,30.79688,0,56.60058,9.7998a121.24823,121.24823,0,0,1,44.19922,28.60059L3152.38477,810a105.86992,105.86992,0,0,0-39.39942-25.40039q-21.80712-7.79883-48.20019-7.79981-36,0-65,16A116.67265,116.67265,0,0,0,2954.38477,837q-16.40625,28.1997-16.39942,63,0,34.40625,16.59961,62.59961A119.94744,119.94744,0,0,0,2999.98535,1007q28.79883,16.1997,64.79981,16.2002,48,0,79.59961-25.60059Z"/>
      <path class="b583de3c-ba6c-4306-a329-558bae8abbf2" d="M3447.9834,1040l-66.79981-93.59961a203.77188,203.77188,0,0,1-27.20019,2h-80V1040H3253.583V760H3353.9834q52.80029,0,82.7998,25,30,25.00342,30,69.40039,0,33.20508-17,55.79981Q3432.77637,932.80273,3401.18359,942l70,98Zm-94-109.59961q44.79345,0,68.39941-19.80078,23.59717-19.79883,23.60059-56.19922,0-36.394-23.60059-56.20019-23.606-19.8003-68.39941-19.79981h-80v152Z"/>
      <path class="b583de3c-ba6c-4306-a329-558bae8abbf2" d="M3714.77734,961.2002H3552.377L3516.77734,1040h-22l128.79981-280h20.40039l128.7998,280h-22ZM3707.17773,944l-73.60058-161.59961L3560.377,944Z"/>
      <path class="b583de3c-ba6c-4306-a329-558bae8abbf2" d="M4006.77148,785q30,25.00342,30,69.40039,0,44.00536-30,69-30,25.002-82.7998,25h-80V1040h-20.40039V760h100.40039Q3976.772,760,4006.77148,785Zm-14.40039,125.40039q23.59717-19.59375,23.60059-56,0-36.394-23.60059-56.20019-23.606-19.8003-68.39941-19.79981h-80V930h80Q3968.76513,930,3992.37109,910.40039Z"/>
      <path class="b583de3c-ba6c-4306-a329-558bae8abbf2" d="M4333.57227,760v280h-20.39942V906.7998H4125.97266V1040h-20.40039V760h20.40039V888.7998h187.20019V760Z"/>
      <path class="b583de3c-ba6c-4306-a329-558bae8abbf2" d="M4517.57129,943.59961V1040H4497.1709V943.59961L4384.37109,760h22.40039L4507.9707,924.7998,4609.1709,760h21.20019Z"/>
    </g>
    <g id="f0359db5-7b38-42a6-9575-8cbdee91c3f4" data-name="Logomark">
      <g id="a9f90a24-c801-4f3a-9b11-30bd6126246b" data-name="Heart + Thimble">
        <path id="b5d4cc3b-084b-4497-9378-e3e6bead6c93" data-name="Thimble" class="b583de3c-ba6c-4306-a329-558bae8abbf2" d="M1312.05205,910.1669v-1.95624c-6.40432,0-8.80355,3.073-9.95925,6.24941a25.42349,25.42349,0,0,0-.95139,3.55565c-.779,3.76545-1.23732,4.72017-3.61269,4.72017h-17.21565V868.55126h2.8069a8.71667,8.71667,0,1,0,0-17.43334h-66.45671a8.71667,8.71667,0,0,0,0,17.43334h2.8069v62.89748h-2.8069a8.71667,8.71667,0,0,0,0,17.43334H1283.12a8.71667,8.71667,0,1,0,0-17.43334h-2.8069v-4.80228h17.21565c5.82,0,6.75948-4.53114,7.44306-7.83832.80579-3.88192,1.38627-6.68691,7.08027-6.68691v-1.95409l.00071-.00024Zm-100.193,29.99851a4.80961,4.80961,0,0,1,4.80419-4.8061H1283.12a4.8061,4.8061,0,1,1,0,9.6122h-66.45671A4.80961,4.80961,0,0,1,1211.85907,940.16541Zm71.2609-75.52472h-66.45671a4.8061,4.8061,0,0,1,0-9.6122H1283.12a4.8061,4.8061,0,1,1,0,9.6122Zm-6.71747,58.458h-26.51089v3.91057h26.51089v4.43948h-53.02178V868.55126h53.02178v4.44139h-26.51089v3.91057h26.51089v4.43948h-26.51089v3.91057h26.51089v4.4414h-26.51089v3.91056h26.51089v4.43949h-26.51089v3.91056h26.51089v4.4414h-26.51089v3.91056h26.51089v4.43949h-26.51089v3.91057h26.51089Z"/>
        <path id="f3314636-e5a5-41f2-95bf-ae455630b930" data-name="Heart" class="b583de3c-ba6c-4306-a329-558bae8abbf2" d="M596.05226,860.47808a27.32455,27.32455,0,0,0-20.56484-9.36016c-14.85557,0-22.37119,7.90133-25.48742,12.49167-3.11623-4.59034-10.63185-12.49167-25.48742-12.49167a27.32455,27.32455,0,0,0-20.56484,9.36016c-5.61,6.41577-8.0159,14.98923-6.78239,24.13934,2.551,18.87307,15.89049,27.88188,34.35493,40.35063l1.371.928c11.36127,7.68365,15.184,21.40119,15.22219,21.53867A1.95732,1.95732,0,0,0,550,948.88208h.00382a1.95386,1.95386,0,0,0,1.88272-1.44737c.03819-.13748,3.82273-13.82828,15.22219-21.53867l1.371-.928c18.46444-12.46875,31.8039-21.47756,34.35493-40.35445C604.06816,875.46731,601.66224,866.89385,596.05226,860.47808ZM550,883.39131v3.91057h48.38777a33.505,33.505,0,0,1-2.32763,6.84731H550v3.91056h43.94852a41.361,41.361,0,0,1-5.54315,6.84731H550v3.91057h34.159c-2.6921,2.27583-5.71477,4.52326-9.01478,6.84731H550v3.91057h19.475q-1.55991,1.05867-3.18354,2.1541l-1.37481.928a36.44714,36.44714,0,0,0-4.62948,3.7652H550v3.91057h6.65613a46.93552,46.93552,0,0,0-4.62065,6.84731H550v3.91057h.08927c-.027.06062-.063.13127-.08927.19118-2.27607-5.18226-6.83585-13.16-14.91667-18.62483l-1.37481-.928c-18.27731-12.34654-30.35271-20.49992-32.67079-37.63538-1.08076-8.0159,1.00055-15.48951,5.85439-21.04221a23.41526,23.41526,0,0,1,17.62046-8.02353c17.81141,0,23.45576,12.73607,23.68489,13.27836A1.96467,1.96467,0,0,0,550,869.49835h.00382a1.951,1.951,0,0,0,1.79871-1.19532,17.26577,17.26577,0,0,1,1.47529-2.5169h41.86411a24.67432,24.67432,0,0,1,3.11337,6.84731H550V876.544h48.99736a29.286,29.286,0,0,1,.02554,6.84731Zm25.48742-28.36282a23.3768,23.3768,0,0,1,16.47526,6.84707H556.67832C560.3292,858.488,566.2922,855.02849,575.48742,855.02849Z"/>
      </g>
      <g id="ab85b4f3-90f3-4a43-8059-898ed790b9c6" data-name="Compass + Ribbon">
        <path class="b583de3c-ba6c-4306-a329-558bae8abbf2" d="M1015.24347,802.08661c39.53619-32.5351,57.47333-72.40967,65.55853-100.13056a213.83867,213.83867,0,0,0,6.42346-29.61932c7.0326-6.13995,10.908-12.28656,10.908-18.49664V552.04755a2.04758,2.04758,0,0,0-4.09515,0c0,12.23724-9.87561,24.90332-29.95282,38.30005-27.72839,18.07226-71.75543,35.49176-119.30212,52.05657-.01715-.58514-.02967-1.17041-.0705-1.75537a43.67377,43.67377,0,0,0-43.09424-40.63433q-.31028-.00312-.621-.0022c-.3136-.00226-.62592.00183-.93817.00622a43.68453,43.68453,0,0,0-39.61707,60.69184l-5.93017,5.14575a2.17078,2.17078,0,0,0-.715,1.26636l-1.0271,5.89874c-48.70605,15.998-92.307,30.86334-119.96643,45.23749-21.23614,10.64123-30.93719,19.75592-30.93719,28.723V856.16248c0,11.36413,15.56634,22.9638,50.47216,37.61077,15.89832,6.671,34.76148,13.51807,55.37226,20.56287-11.03113,51.29565-25.742,121.08984-37.73627,182.86676-41.097,16.5741-68.10815,32.54425-68.10815,48.957v101.79254a2.04758,2.04758,0,1,0,4.09515,0c0-12.23724,9.87561-24.90326,29.95282-38.3,5.1698-3.36944,10.9093-6.71612,17.12915-10.03894-11.113,85.1803-12.10443,147.38068-12.11542,148.18763a2.17,2.17,0,0,0,1.91779,2.18414,2.04965,2.04965,0,0,0,.25366.01483,2.169,2.169,0,0,0,2.1153-1.698l36.12933-162.29962c42.11127-18.52655,96.18054-36.218,146.96991-52.82806,26.538-8.679,52.01636-17.013,74.80719-25.09961l53.477,240.22729a2.1681,2.1681,0,0,0,2.11529,1.698,2.07679,2.07679,0,0,0,.25422-.01483,2.16992,2.16992,0,0,0,1.91723-2.18414c-.01483-1.054-1.70117-106.84455-25.4303-231.77668-1.15991-6.10724-2.35687-12.33178-3.58038-18.63507a378.31691,378.31691,0,0,0,35.32184-15.648c21.23614-10.64117,30.93719-19.75586,30.93719-28.723V943.83752c0-11.36468-15.56585-22.96429-50.47271-37.61132-17.10694-7.17817-37.64807-14.56018-60.10443-22.173-5.28162-24.30243-8.87952-40.54535-9.55469-43.58868l4.50018-17.48456A162.07462,162.07462,0,0,0,1015.24347,802.08661Zm-41.57306,37.80005a2.16341,2.16341,0,0,0-.017,1.01159c.11005.49579,3.63758,16.375,9.1109,41.53669-8.90381-2.99628-18.08416-6.02832-27.45318-9.09784l-8.40222-37.74427a180.12184,180.12184,0,0,0,30.50921-10.26678Zm72.4057,70.11578c11.86255,4.978,47.96222,20.12537,47.96222,33.83508v92.5011q-.82361-1.49166-1.81506-2.98852c-.62763-.94885-1.31-1.89948-2.03827-2.85175q-1.19211-1.55877-2.563-3.124-1.53552-1.7514-3.29883-3.5116-1.367-1.3656-2.86707-2.73657-1.97634-1.80231-4.19519-3.615c-1.05047-.86035-2.13531-1.72211-3.266-2.58606q-2.33806-1.78656-4.90973-3.58417-1.82556-1.27807-3.76568-2.56176-2.65924-1.75818-5.53382-3.52741c-1.34765-.82867-2.73889-1.65954-4.15863-2.49206q-2.93106-1.71864-6.06445-3.44849-1.35-.74469-2.73981-1.49164-.8172-.43973-1.647-.88013-10.2594-5.44143-22.53479-11.00463-7.12748-3.22888-14.68671-6.406c-.80713-.34015-1.60992-.68091-2.42364-1.0202-.80591-.33612-1.62225-.67078-2.43445-1.006-8.66113-3.5752-17.67456-7.10486-26.95514-10.59418-.80768-.30365-1.6131-.60767-2.42468-.91071-.80444-.30035-1.61469-.59979-2.42291-.89959-32.87287-12.19349-68.81519-23.90424-103.99323-35.36329-9.11719-2.96991-18.12512-5.90454-26.94824-8.80554q-1.03748-.34112-2.07044-.68139-1.03646-.3414-2.07067-.68226c-8.01966-2.64526-15.87269-5.26232-23.498-7.85186-.69385-.2356-1.38306-.47071-2.07312-.70587q-1.033-.35213-2.06116-.70356c-20.35473-6.96313-38.97381-13.72729-54.65515-20.30743-11.86261-4.97748-47.96173-20.12488-47.96173-33.83453V763.66089q.82369,1.49176,1.81519,2.98877c.62768.94885,1.31,1.89953,2.03833,2.8518q1.19209,1.55869,2.56311,3.12385,1.53561,1.75149,3.29889,3.51165,1.367,1.3656,2.867,2.73664,1.97636,1.80229,4.19531,3.61486c1.05042.86036,2.13519,1.72229,3.26587,2.58619q2.33808,1.78665,4.90973,3.5841,1.82556,1.27807,3.76575,2.56177,2.65923,1.75818,5.53375,3.5274c1.34772.82868,2.73895,1.65961,4.15869,2.49213q2.93106,1.71863,6.06439,3.44849,1.35.74469,2.73981,1.4917.81729.43972,1.64709.88012,10.25922,5.44136,22.534,11.00422c13.70288,6.20794,28.632,12.27148,44.34778,18.21752.82269.31128,1.65271.62146,2.47968.93213.82647.31043,1.64947.62134,2.48.93116,8.61572,3.21368,17.45324,6.39282,26.43567,9.54309q1.03042.36135,2.0617.72253,1.02951.35971,2.0622.71875c24.6087,8.56445,50.23791,16.91437,75.47369,25.13483q9.51855,3.10071,18.8523,6.15045,1.20088.39294,2.39752.785,1.19952.393,2.39679.78552c9.37311,3.075,18.5473,6.11188,27.43182,9.112q1.20456.40677,2.40088.8125,1.20026.40686,2.39166.81269C1010.03772,896.02887,1029.66626,903.11652,1046.07611,910.00244Zm14.57483,170.42108c-5.88989,2.78479-11.20825,5.0174-14.57385,6.42981-4.76459,1.99927-9.80255,4.01569-15.07538,6.04926q-.56955-2.92035-1.14642-5.86188c31.68963-12.56091,55.09222-24.68726,64.14941-36.80365.0108.2865.03363.57349.03363.8595v.93738C1094.03833,1060.83911,1081.18573,1070.42108,1060.65094,1080.42352Zm-53.41193,26.18293-.57324-2.57526-.44794-2.01215-1.24505-5.59314-.9104-4.0896-1.35169-6.072-.91278-4.10028-1.35492-6.08673-.905-4.06549-1.35351-6.08026-.90222-4.05292-1.34833-6.05688-.90381-4.06018-1.343-6.033-.90942-4.08527-1.34924-6.061-.91169-4.09534-1.33331-5.98969-.39337-1.7669-.51514-2.31427-11.07055-49.731c9.28051,3.51508,18.2821,7.07,26.90966,10.67023,2.08118,9.932,4.19275,20.07348,6.30817,30.31555q.22175,1.07318.44342,2.14819.20435.99042.40869,1.98194.62064,3.01162,1.24115,6.032.42765,2.08145.8548,4.16589.6276,3.06245,1.25409,6.12946.42353,2.07386.84613,4.1488.62064,3.04688,1.23913,6.09418.41676,2.05344.83228,4.1062.62091,3.06756,1.23846,6.13123.41319,2.04976.82459,4.09668.62055,3.08742,1.23663,6.16632.41237,2.06047.82239,4.11627.61716,3.09411,1.22882,6.17554.41583,2.09463.82849,4.18164.609,3.0791,1.21118,6.14038.41062,2.08722.81812,4.16589.57248,2.921,1.13776,5.82184.199,1.02145.39672,2.03918.24115,1.24018.48084,2.47589,1.75561,9.05174,3.42657,17.84516a1552.548,1552.548,0,0,1,24.50238,207.44482Zm-74.53967,19.9848c-52.60742,17.13659-106.929,34.83435-150.12183,53.87152l1.49146-6.7c40.337-17.26288,90.97229-33.87934,138.6344-49.51648,27.75452-9.106,54.38806-17.84534,78.154-26.34192l1.23877,5.5647C980.74719,1110.939,957.1098,1118.63934,932.69934,1126.59125Zm-156.28943,61.61151L746.11853,1324.2774c1.25763-26.12933,4.31451-71.94079,11.62384-127.12231q.18448-1.39279.37378-2.7959.16425-1.22286.33136-2.4519.46023-3.38553.9411-6.81305.34717-2.47147.70667-4.96625.50867-3.536,1.04016-7.11316.36512-2.45553.742-4.93072.54191-3.56269,1.10712-7.16217.39084-2.48759.79358-4.99262.581-3.61615,1.18609-7.2655.40869-2.46387.829-4.94251.60947-3.59546,1.24262-7.21936.423-2.41909.85724-4.85077.64572-3.61779,1.31537-7.26019.443-2.40738.89752-4.82538.25635-1.36532.5144-2.732.43039-2.26584.86762-4.55347.46032-2.40957.9273-4.84009.693-3.606,1.39917-7.2528.24408-1.26.48993-2.525.22962-1.18268.46088-2.36963c11.84912-60.85711,26.22906-129.08056,37.08032-179.54834,7.61994,2.58576,15.46436,5.19843,23.471,7.83856l-36.18182,162.53565-.54126,2.43127-.5318,2.38916-1.59955,7.18525-1.069,4.80242-1.60614,7.215-1.071,4.81128-1.60693,7.21863-1.07813,4.84308-1.60681,7.218-1.09466,4.91755-1.62622,7.30535-1.10816,4.978-1.61059,7.23517-1.10688,4.97223-1.60986,7.23187-1.11743,5.01953-1.50726,6.77106-.55768,2.505Zm-7.38849-86.07745q-.70806,3.66622-1.40234,7.29034-3.76731,1.57142-7.38751,3.14343c-29.10437,12.66266-46.83032,23.91236-54.2699,34.59363v-.99286C705.96167,1132.31921,731.71375,1117.39954,769.02142,1102.12531Zm-7.99048,43.74969c-27.02441,12.40369-46.89587,24.93036-55.05749,37.84955.238-14.81708,22.62915-29.93781,56.29034-45.1034Q761.63474,1142.26341,761.03094,1145.875Zm-.82519,4.97662q-.60022,3.66459-1.17328,7.291c-28.31128,13.43469-45.67157,25.72876-53.03845,37.676C706.62616,1182.34955,724.39307,1167.59827,760.20575,1150.85162Zm-1.96411,12.33081q-.56022,3.61277-1.09564,7.1858c-24.89789,12.24908-43.32282,24.81256-51.13611,37.8012C706.88788,1193.20288,727.4707,1178.073,758.24164,1163.18243Zm-1.83325,12.1565q-.52634,3.589-1.03022,7.13684c-24.00683,12.18707-41.71319,24.73773-49.34576,37.788C707.26221,1205.16571,726.90137,1190.095,756.40839,1175.33893Zm9.94958-59.31458q-.53109,2.7963-1.04687,5.57886c-29.12281,12.55963-50.74189,25.09851-59.34943,37.83563v-.67767c0-14.20721,24.592-29.21747,60.72882-44.48151C766.58,1114.86023,766.46783,1115.4458,766.358,1116.02435Zm-60.3963,55.33753c0-14.55561,23.4884-29.65766,58.46027-44.90985q-.66532,3.65891-1.30787,7.29394c-28.05664,12.48132-48.77746,25.0152-57.1524,37.84876Zm.11481,60.95086c1.56237-15.20245,20.31665-30.20831,48.59985-44.82751q-.4801,3.46748-.941,6.89508-6.91223,3.70248-12.90368,7.35339C724.2569,1211.61414,712.08447,1221.78046,706.07648,1232.31274Zm319.68457-165.96368q7.209-2.91248,13.9154-5.82544c22.48749-9.78815,38.1861-18.733,47.61151-27.224a43.56807,43.56807,0,0,1,2.47944,3.69653c-9.18366,11.39374-32.48072,23.36023-62.77558,35.53565Q1026.37905,1069.44666,1025.76105,1066.34906Zm-.82416-4.12036q-.61743-3.084-1.2392-6.17609c24.27783-9.89154,44.32654-19.75488,57.475-29.697q1.944,1.91895,3.592,3.81977C1073.22864,1040.62354,1051.73682,1051.37305,1024.93689,1062.2287Zm-2.06458-10.27338q-.61862-3.06756-1.24066-6.13891c21.03412-8.619,38.97614-17.24414,52.18714-25.95716q2.35693,1.88223,4.43921,3.74634C1065.6319,1032.95325,1046.21136,1042.43451,1022.87231,1051.95532Zm-2.0736-10.2467q-.61937-3.05027-1.241-6.1001c17.69214-7.28607,33.26031-14.59509,45.76825-21.98248q2.69622,1.83353,5.131,3.64874C1057.78217,1025.39337,1040.66815,1033.55115,1020.79871,1041.70862Zm11.04535-15.87494c-4.21906,1.87335-8.60944,3.74664-13.134,5.6192q-.62713-3.06939-1.25567-6.134c4.79943-1.99207,9.45837-3.98828,13.93975-5.98871q13.5836-6.06345,24.2945-11.82733,3.00045,1.79232,5.75848,3.56659A322.81748,322.81748,0,0,1,1031.84406,1025.83368Zm-15.24659-4.68994q-.62073-3.02061-1.24176-6.03314c10.70893-4.47791,20.7154-8.99469,29.81281-13.55616q3.238,1.73932,6.25238,3.46112C1041.13232,1010.42468,1029.377,1015.807,1016.59747,1021.14374Zm-2.0957-10.1684c-1.85144-8.9602-3.69873-17.83856-5.52539-26.5672q6.12588,2.61246,11.97485,5.257,10.65647,4.82767,19.71772,9.52063C1032.58221,1003.14148,1023.806,1007.07318,1014.50177,1010.97534Zm13.321,65.748c30.4148-12.14893,53.40436-23.9646,63.94336-35.85529a28.95066,28.95066,0,0,1,1.21564,3.27655c-5.29559,12.12909-30.12787,25.24756-63.94623,38.72168Q1028.43275,1079.80429,1027.82275,1076.72333Zm-41.407-43.69293c-31.01977,11.60491-65.37634,22.91967-98.24188,33.74255-30.76691,10.13184-60.4353,19.90356-86.87036,29.569l1.59424-7.16162c25.32714-9.14752,53.3164-18.34815,81.011-27.45075,34.677-11.39788,69.73743-22.92382,101.17371-34.68853Zm2.25824,10.14422c-29.5965,10.97778-62.64349,21.87341-94.96973,32.53131-33.46063,11.0318-66.28747,21.85608-95.066,32.60907l1.59968-7.18609c27.57672-10.16608,58.57214-20.37452,89.21722-30.46625,33.28284-10.96063,67.311-22.16712,97.87067-33.54443Zm2.25049,10.10956c-28.50812,10.51074-60.27625,20.99017-91.69586,31.35382-36.55805,12.05859-72.38,23.87634-103.2583,35.66168l1.60077-7.191c29.75213-11.20416,63.7893-22.42718,97.4154-33.51355,33.09985-10.9129,65.61554-21.63409,94.5957-32.34063Zm2.25037,10.10907c-27.52674,10.09436-58.13947,20.19031-88.41987,30.17572-39.6975,13.0907-78.54949,25.9054-111.45953,38.7467l1.60053-7.18994c31.85418-12.26593,68.96984-24.511,105.61541-36.59851,31.93085-10.53253,63.30213-20.88153,91.316-31.18677Zm2.25384,10.12476c-26.5412,9.67474-55.99621,19.38006-85.1358,28.98-41.47046,13.66168-84.09479,27.7066-119.70471,41.97912l1.6184-7.27014c33.96686-13.41009,74.432-26.75641,113.83118-39.74884,30.76337-10.14484,60.99115-20.11432,88.03864-30.01489Zm2.25794,10.143c-25.5506,9.25134-53.8451,18.55847-81.83991,27.7655-44.921,14.77381-90.48846,29.76276-127.96326,45.20069l1.60346-7.20294c36.55462-14.85645,80.51367-29.34082,122.08667-43.037,29.94464-9.86487,58.85382-19.38928,84.75928-28.80762Zm-115.05658-25.82208c-27.87372,9.1615-54.64911,17.96356-78.66407,26.54284l35.49176-159.4356c8.7049,2.86133,17.58619,5.7547,26.57416,8.68243,36.026,11.73523,72.85828,23.73438,106.32166,36.232l11.82159,53.10449C952.14661,1034.9895,916.61145,1046.6698,882.63007,1057.83893Zm-95.84723,103.73279c38.48523-16.04139,85.751-31.58912,130.34369-46.255,28.96026-9.52447,56.74035-18.66168,81.47113-27.56341l1.35125,6.07c-24.55194,8.82386-51.67987,17.72516-78.52227,26.53174-48.08759,15.7768-96.89716,31.7934-136.24646,48.416Zm-47.43378-441.9953c5.88989-2.78473,11.20825-5.01734,14.57385-6.42981,26.27124-11.02362,60.7796-22.56263,97.901-34.69117l-1.04882,6.0235c-70.32233,23.2641-129.08564,44.28888-144.77979,65.28394-.0108-.2865-.03363-.57349-.03363-.8595v-.93732C705.96167,739.16083,718.81427,729.57886,739.34906,719.57642Zm118.09155-48.088.49823-2.86138,4.7594-4.1297,1.6839-1.46113.11762-.102a2.16993,2.16993,0,0,0,.54235-2.56024,39.3462,39.3462,0,0,1,35.1496-56.02081c.261-.00305.52179-.007.78381-.00482.17847.00146.35584-.00214.53473.00171.63874.01385,1.27991.04083,1.924.086a39.40342,39.40342,0,0,1,36.60382,39.61682c-.00763.79266-.0315,1.58838-.08753,2.38946-.01544.2204-.03973.43884-.05878.65851-.06573.75879-.14788,1.5141-.2561,2.263a39.2259,39.2259,0,0,1-8.50647,19.26746c-.00873.01062-.01459.02319-.02313.034a2.16127,2.16127,0,0,0-.355.6471l-1.45154,4.29407-2.45734,7.26947-1.64831,4.876-2.45716,7.269-1.64483,4.86578-1.01374,2.999-11.77807,1.23755-7.39356.77679-10.38018,1.09064-1.405.14765-3.52143.37a2.065,2.065,0,0,0-1.76794,1.37561,2.09538,2.09538,0,0,0-.1228.31073l-.97138,4.36353-1.549,6.95874-1.037,4.65838-1.54925,6.95966-1.03815,4.66363-1.55041,6.96479-1.03962,4.67028-1.5495,6.96076-.41149,1.84863-.63,2.83008-6.801,30.5517a2.16877,2.16877,0,0,0,1.65875,2.59143c17.4859,3.781,40.45111,5.93274,65.30688.83111.70417-.14453,1.41266-.307,2.11969-.46331.70472-.15577,1.40845-.30848,2.11591-.4762a141.62862,141.62862,0,0,0,31.77051-11.70178c.64929-.3313,1.29864-.65985,1.94812-1.00373.63958-.33862,1.27911-.69281,1.9187-1.04382,2.11535-1.16077,4.23083-2.37189,6.34448-3.67218,36.23236-22.28961,51.98645-51.42352,58.82172-71.93884.13763-.413.25732-.814.3891-1.22321.275-.85412.54559-1.70459.796-2.54114.27282-.91131.53607-1.81549.781-2.70434.72431-2.62787,1.32031-5.14111,1.82654-7.54517.35852-1.7027.67334-3.34936.93854-4.92212.44037-2.6112.76538-5.03833.99756-7.238.179-1.69654.30218-3.24665.38952-4.66315.18329-2.97272.20008-5.31073.17078-6.84064l-.00031-.02807c.03327-.00605.07331-.01538.10712-.02167a19.25145,19.25145,0,0,0,9.12421-4.14117c.21057-.18726.43023-.39362.6535-.60639.80658-.7688,1.69568-1.69165,2.69366-2.73071a60.85871,60.85871,0,0,1,9.45105-8.50568,23.08755,23.08755,0,0,1,2.00061-1.20148,14.80288,14.80288,0,0,1,4.01325-1.498,9.952,9.952,0,0,1,5.01862.36828,17.079,17.079,0,0,1,5.17138,2.85169,23.05121,23.05121,0,0,1,2.52411,2.29712c.00086.20019.00037.44977-.00122.72448-.00812,1.40326-.05957,3.76148-.25623,6.92334-.10321,1.6601-.24749,3.54035-.44653,5.61988-.215,2.24682-.4928,4.71777-.85626,7.39972-.13007.9599-.27368,1.95147-.42609,2.96216-.14074.93341-.28973,1.884-.45093,2.85858-.61059,3.69073-1.375,7.67151-2.32623,11.88275l-12.35571-2.6933-1.47369-.32123-.27741,1.27313-.18439.84632-.46185,2.11963,13.75244,2.99774c-.66608,2.68927-1.404,5.455-2.23212,8.29431A205.49665,205.49665,0,0,1,1068.94,722.477l-12.70709-5.53851-.86645,1.98871-.86646,1.98876,12.72339,5.5456a200.75939,200.75939,0,0,1-15.05585,27.83453l-11.76813-8.1792-1.23828,1.78113-1.23822,1.78107,11.84235,8.23083a194.09327,194.09327,0,0,1-19.97669,24.73584l-10.59832-10.99432-3.12268,3.01141,10.6914,11.09088c-4.408,4.42334-9.14935,8.76722-14.2716,12.98249q-5.00556,4.11922-10.17011,7.6961l-8.88672-13.84283-1.82519,1.17212-1.825,1.17193,8.89447,13.85492,1.82513-1.17206,1.38263-.888a158.35478,158.35478,0,0,1-17.9527,10.70295q-1.28311.65469-2.57025,1.28363-1.27524.62246-2.55395,1.22027a174.60718,174.60718,0,0,1-32.84015,11.41992c-.704.17041-1.40772.339-2.11048.50055q-1.05963.24363-2.11725.47425-3.31026.7218-6.59362,1.31634l-2.89649-16.09637-2.13531.384-2.13556.384,2.89081,16.06452c-28.76355,4.60687-55.382,2.54107-73.558-.26807a2.16881,2.16881,0,0,0-2.44891,1.67255l-.86292,3.87634c-9.73578-3.41748-19.2904-6.86926-28.57818-10.36005l-7.52271-29.22381,22.457-31.68244a2.48762,2.48762,0,0,0,.367-.88232l.3988-2.29053.3252-1.86761,1.19714-6.87555.80859-4.64392,1.20166-6.90156.806-4.629,1.198-6.88031.80261-4.60962,1.19843-6.88294.801-4.60009,1.19831-6.88233.7998-4.59326,1.19781-6.87958.79871-4.58728,1.19745-6.8772.79718-4.5783,1.04541-6.00428.39758-2.28338Zm213.63123-31.40686c-7.14777,1.422-13.27338,7.79865-17.74549,12.454-1.05755,1.101-1.98,2.05567-2.7619,2.78418q-3.36163,1.67166-6.92553,3.34461a17.01971,17.01971,0,0,1-2.12836.32043,2.14363,2.14363,0,0,0-1.95984,1.57337c-24.26495,11.06591-54.63666,22.1582-86.90063,33.17639l-1.06348-6.10816c68.98993-23.59991,126.90784-46.76495,142.43994-71.351-.12646,7.87134-6.509,15.82837-17.50519,23.83228A13.824,13.824,0,0,0,1071.07184,640.0816Zm-31.89148,31.87708c-23.81812,10.62738-53.4195,21.33429-84.75244,31.98688l-1.06525-6.11847c32.22528-10.98346,62.05963-21.848,86.16791-32.75867C1039.50879,666.82782,1039.4187,669.16327,1039.18036,671.95868Zm-1.66968,11.96362c-23.13049,10.014-51.45929,20.14667-81.3034,30.24274l-1.0672-6.12933c31.08905-10.55164,59.97912-20.97113,83.53918-31.38324C1038.39221,678.8902,1038.00964,681.32745,1037.51068,683.9223Zm-3.11505,12.5412c-22.12714,9.22528-48.64246,18.58826-76.40765,27.929l-1.06836-6.13611c29.46533-9.94629,56.71728-19.65454,79.5307-29.38635C1035.8764,691.30139,1035.19714,693.83942,1034.39563,696.4635Zm-154.6192,47.36456c10.73041-3.58014,21.46734-7.11621,32.04968-10.60107q3.669-1.20822,7.31415-2.40924l1.33795,6.0105q-2.19434.72142-4.387,1.44207c-12.635,4.153-25.32013,8.32312-37.86359,12.51539Zm2.58789-11.62542c7.97949-2.649,15.97711-5.28608,23.9314-7.90863q5.31975-1.75387,10.613-3.50074l1.33728,6.00727q-3.85208,1.26947-7.70111,2.53674c-9.8811,3.254-19.82739,6.53-29.72986,9.82538Zm2.58594-11.61658q7.90851-2.61648,15.8211-5.22412,6.976-2.301,13.90637-4.59052l1.33661,6.0044q-5.50176,1.81659-11.00085,3.629-10.86338,3.58163-21.61176,7.13757Zm2.5849-11.61194q.681-.22476,1.36193-.44934l12.0094-1.2619,8.60083.90375q-5.011,1.6549-10.01873,3.30615-6.77206,2.2338-13.50177,4.45679Zm29.83477,33.187q2.00565-.65917,4.00257-1.31561l10.22931,45.95178a154.10719,154.10719,0,0,1-61.30744-.37359l6.89313-30.96546C890.6181,750.95483,904.11206,746.51874,917.36993,742.16107Zm8.14417-2.67755-.517-2.32227-.37732-1.695-1.33868-6.01355-.89429-4.01752L921.049,719.4256l-.89435-4.01776-1.337-6.006-.714-3.20722a2.14158,2.14158,0,0,0-.31012-.70618l4.12128-.433a2.1692,2.1692,0,0,0,1.82824-1.46283l.05316-.15723,2.45612-7.266,1.64661-4.87127,2.46-7.27741,1.65088-4.884,2.45978-7.27673.26623-.78766a43.93853,43.93853,0,0,0,3.34357-4.77674q.53914-.88842,1.03583-1.79828l1.19274,1.0351,3.56592,3.09467.00452.026,1.05969,6.08618.71387,4.1,1.0636,6.10846.71338,4.09705,1.06317,6.10608.71209,4.08984,1.06476,6.11524.71179,4.08807,1.06647,6.12494.71192,4.08862,1.06762,6.13178.31928,1.83374.39288,2.25622,6.55292,37.63532a2.18289,2.18289,0,0,0,.36755.88232l4.56214,6.43628a137.26857,137.26857,0,0,1-30.18256,11.03174Zm39.76819,26.804-6.58155-37.80109c27.37812-9.182,52.65424-18.05072,73.956-26.75806-6.99664,19.62158-22.38178,46.48011-56.16449,67.26233-2.19672,1.35138-4.39569,2.61188-6.59454,3.80817ZM1031.942,652.726c-23.21454,10.3053-51.38239,20.61554-81.0694,30.79981l-1.06427-6.11267c29.80206-10.25422,58.10382-20.67347,81.68323-31.19715,33.95623-15.155,54.35815-28.80725,62.5144-42.03467C1093.32922,618.60162,1073.01868,634.491,1031.942,652.726Zm-82.84815,20.58338-1.05969-6.08643c69.46838-23.982,129.95691-48.79578,145.95593-75.39233C1092.38043,619.26862,1024.57428,647.256,949.09387,673.30933Zm-4.04443-9.4068-3.67847-3.1922c.31915-.75421.61371-1.51807.88928-2.28827,72.17987-24.81659,135.27759-50.594,151.70734-78.68591C1091.61993,608.558,1022.22058,637.28107,945.04944,663.90253Zm143.91083-14.95722a2.16714,2.16714,0,0,0-.48829-1.30444c-.02752-.03381-.11334-.13715-.24749-.29022a43.62163,43.62163,0,0,0,5.81384-6.78949v.67767c0,3.823-1.78821,7.70435-5.095,11.63294C1089.002,650.533,1088.96692,649.16034,1088.96027,648.94531Zm-.3144,10.08417a41.61328,41.61328,0,0,0,5.39246-6.18225v.99286c0,3.96448-2.12219,8.01794-6.01392,12.14245C1088.3053,663.40393,1088.5047,661.07941,1088.64587,659.02948Zm5.39246-30.39142c0,5.26056-3.081,10.59277-8.649,15.97736a23.99415,23.99415,0,0,0-4.37426-2.9123c5.69171-4.40332,10.10919-8.83239,13.02325-13.29785Zm-.11481-60.9508c-3.06994,29.87164-72.47564,58.98565-150.24347,85.8941a43.84278,43.84278,0,0,0,.94489-5.952c28.10016-9.81274,54.81555-19.9096,78.01648-30.4201a339.80722,339.80722,0,0,0,36.52691-18.943C1075.7431,588.3858,1087.91553,578.21954,1093.92352,567.68726ZM846.77924,707.42767c-32.29371,10.86347-62.06849,21.43329-86.45569,32.04865-22.48749,9.78821-38.18616,18.73315-47.61157,27.22412a43.5439,43.5439,0,0,1-2.47938-3.69659c15.90589-19.73371,74.14893-41.18555,137.746-62.4646Zm-.80079,4.59919-1.2,6.89178c-54.2395,18.41962-101.76751,36.43933-125.95117,54.72577q-1.944-1.91886-3.592-3.81976C735.85437,751.15,788.2652,731.51324,845.97845,712.02686Zm-2.00195,11.49731-1.2,6.89172c-48.5401,16.63709-91.26569,33.01929-116.5954,49.72486q-2.357-1.88214-4.43915-3.74628C745.1955,759.03076,792.10321,741.20544,843.9765,723.52417Zm-2.004,11.50909-1.19952,6.8891C797.99347,756.726,760.04626,771.38861,734.674,786.374q-2.69624-1.83353-5.131-3.64874C754.28137,766.87933,795.92633,750.88464,841.97253,735.03326Zm-73.81659,39.13306c20.79334-9.23273,45.54981-18.4649,71.80939-27.60559l-1.20379,6.91388c-25.54139,8.95673-49.633,18.03412-70.15564,27.19519q-13.58369,6.06345-24.29456,11.82739-3.00045-1.79232-5.75848-3.56665A322.83459,322.83459,0,0,1,768.15594,774.16632Zm69.79493-16.03619-1.19861,6.88372c-30.795,10.92566-59.19971,22.03907-81.92084,33.43165q-3.238-1.73924-6.25238-3.46106C772.36505,782.47906,804.00043,770.11725,837.95087,758.13013Zm-4.43976,12.41717-19.73572,27.84363a2.16984,2.16984,0,0,0-.331,1.79541l7.01129,27.23731c-14.64862-5.58783-28.57733-11.2768-41.40747-17.0893q-10.6562-4.82748-19.71717-9.5202C780.35291,790.53119,806.03784,780.4104,833.51111,770.5473Zm15.26727-74.601c-66.74707,22.249-122.30334,42.60492-140.54449,63.18567a28.96308,28.96308,0,0,1-1.21564-3.27661c8.9342-20.46308,73.46826-43.742,142.95892-66.79364Zm93.90149,140.61523,7.83734,35.20667q-8.19808-2.67966-16.55017-5.39734c-25.3678-8.26349-51.135-16.658-75.84564-25.26495l.53454-2.40137C879.48083,841.75244,910.2337,843.63623,942.67987,836.56152Z"/>
        <path class="b583de3c-ba6c-4306-a329-558bae8abbf2" d="M888.603,661.28583a22.46264,22.46264,0,1,0-9.78022-18.5318A22.46325,22.46325,0,0,0,888.603,661.28583ZM901.29358,624.622A18.13118,18.13118,0,1,1,883.1615,642.754,18.15248,18.15248,0,0,1,901.29358,624.622Z"/>
        <polygon class="b583de3c-ba6c-4306-a329-558bae8abbf2" points="866.179 817.181 864.059 816.719 861.94 816.257 858.433 832.344 862.672 833.268 866.179 817.181"/>
        <polygon class="b583de3c-ba6c-4306-a329-558bae8abbf2" points="968.079 824.221 970.098 823.428 964.076 808.101 960.038 809.688 966.06 825.014 968.079 824.221"/>
        <polygon class="b583de3c-ba6c-4306-a329-558bae8abbf2" points="899.19 820.582 897.021 820.542 894.853 820.503 894.551 836.962 898.889 837.041 899.19 820.582"/>
        <path class="b583de3c-ba6c-4306-a329-558bae8abbf2" d="M703.91429,748.90361v107.259c0,50.7878,392.17142,114.702,392.17142,194.93383V943.83744C1096.08571,893.04964,703.91429,829.13548,703.91429,748.90361Z"/>
      </g>
      <g id="a3053397-8ffd-4b1e-aab7-70c04fc9e566" data-name="Circle">
        <path class="b583de3c-ba6c-4306-a329-558bae8abbf2" d="M653.92676,653.92676A348.71043,348.71043,0,0,1,1040.206,581.299q2.17118-1.192,4.24671-2.38483-3.69728-1.66424-7.438-3.25152A351.95869,351.95869,0,0,0,553.89948,835.49951c1.4215-.61944,2.87542-1.18115,4.36633-1.6723A345.51246,345.51246,0,0,1,653.92676,653.92676Z"/>
        <path class="b583de3c-ba6c-4306-a329-558bae8abbf2" d="M900,1248a348.80162,348.80162,0,0,1-108.16772-17.0683l-.85535,3.84229a353.67473,353.67473,0,0,0,219.73767-.5467l-.85522-3.842A348.71481,348.71481,0,0,1,900,1248Z"/>
        <path class="b583de3c-ba6c-4306-a329-558bae8abbf2" d="M653.92676,1146.07324a345.53056,345.53056,0,0,1-95.47547-178.90082,21.88448,21.88448,0,0,1-3.82135,1.196,350.97918,350.97918,0,0,0,96.4682,180.533,355.77126,355.77126,0,0,0,30.76838,27.39355v-5.12176A354.10163,354.10163,0,0,1,653.92676,1146.07324Z"/>
        <path class="b583de3c-ba6c-4306-a329-558bae8abbf2" d="M1146.07324,1146.07324a349.60156,349.60156,0,0,1-76.58368,58.02185q.26487,2.107.52271,4.19647A351.84625,351.84625,0,0,0,1245.27319,968.882h-4.05352A345.55889,345.55889,0,0,1,1146.07324,1146.07324Z"/>
        <path class="b583de3c-ba6c-4306-a329-558bae8abbf2" d="M1146.07324,653.92676a345.559,345.559,0,0,1,95.14643,177.19116h4.05358a351.06647,351.06647,0,0,0-96.37188-180.01978,355.78806,355.78806,0,0,0-30.76789-27.39276v5.12146A354.10163,354.10163,0,0,1,1146.07324,653.92676Z"/>
      </g>
    </g>
  </g>
</svg>
