<svg width="256" height="256" viewBox="0 0 256 256" fill="none" xmlns="http://www.w3.org/2000/svg">
<path fill-rule="evenodd" clip-rule="evenodd" d="M130.732 84.7608C135.417 83.4678 138.857 79.1754 138.857 74.0795C138.857 67.9605 133.897 63 127.778 63C121.659 63 116.698 67.9605 116.698 74.0795C116.698 79.1754 120.139 83.4678 124.823 84.7608V100.16L105.145 111.521L91.8089 103.822C93.0315 99.1181 91.0344 93.9926 86.6212 91.4446C81.3219 88.3851 74.5458 90.2007 71.4863 95.5C68.4267 100.799 70.2424 107.575 75.5417 110.635C79.9548 113.183 85.3923 112.35 88.8544 108.939L102.191 116.639V139.361L88.8544 147.061C85.3923 143.65 79.9548 142.817 75.5416 145.365C70.2424 148.425 68.4267 155.201 71.4862 160.5C74.5458 165.799 81.3219 167.615 86.6212 164.555C91.0343 162.007 93.0315 156.882 91.8089 152.178L105.145 144.479L124.823 155.84V171.239C120.139 172.532 116.698 176.825 116.698 181.92C116.698 188.04 121.659 193 127.778 193C133.897 193 138.857 188.04 138.857 181.92C138.857 176.825 135.417 172.532 130.732 171.239V155.84L150.411 144.479L163.747 152.178C162.524 156.882 164.521 162.007 168.935 164.555C174.234 167.615 181.01 165.799 184.07 160.5C187.129 155.201 185.313 148.425 180.014 145.365C175.601 142.817 170.164 143.65 166.701 147.061L153.365 139.361V116.639L166.701 108.939C170.163 112.35 175.601 113.183 180.014 110.635C185.313 107.575 187.129 100.799 184.07 95.5C181.01 90.2007 174.234 88.3851 168.935 91.4446C164.521 93.9926 162.524 99.1181 163.747 103.822L150.41 111.521L130.732 100.16V84.7608ZM127.778 77.7727C129.818 77.7727 131.471 76.1192 131.471 74.0795C131.471 72.0399 129.818 70.3864 127.778 70.3864C125.738 70.3864 124.085 72.0399 124.085 74.0795C124.085 76.1192 125.738 77.7727 127.778 77.7727ZM146.968 116.92L127.778 105.841L108.588 116.92V139.08L127.778 150.159L146.968 139.08V116.92ZM127.778 178.227C125.738 178.227 124.085 179.881 124.085 181.92C124.085 183.96 125.738 185.614 127.778 185.614C129.818 185.614 131.471 183.96 131.471 181.92C131.471 179.881 129.818 178.227 127.778 178.227ZM84.2798 102.886C85.2997 101.12 84.6945 98.8612 82.9281 97.8414C81.1616 96.8215 78.9029 97.4268 77.8831 99.1932C76.8632 100.96 77.4684 103.218 79.2349 104.238C81.0013 105.258 83.26 104.653 84.2798 102.886ZM171.276 153.114C170.256 154.88 170.861 157.139 172.628 158.159C174.394 159.178 176.653 158.573 177.673 156.807C178.693 155.04 178.087 152.782 176.321 151.762C174.555 150.742 172.296 151.347 171.276 153.114ZM171.276 102.886C172.296 104.653 174.555 105.258 176.321 104.238C178.087 103.218 178.693 100.96 177.673 99.1932C176.653 97.4268 174.394 96.8215 172.628 97.8414C170.861 98.8612 170.256 101.12 171.276 102.886ZM84.2798 153.114C83.2599 151.347 81.0012 150.742 79.2348 151.762C77.4684 152.782 76.8631 155.04 77.883 156.807C78.9028 158.573 81.1615 159.178 82.928 158.159C84.6944 157.139 85.2996 154.88 84.2798 153.114Z" fill="black"/>
</svg>
