<svg width="256" height="256" viewBox="0 0 256 256" fill="none" xmlns="http://www.w3.org/2000/svg">
<path d="M73 125C73 123.895 73.8954 123 75 123H91C92.1046 123 93 123.895 93 125V161C93 162.105 92.1046 163 91 163H75C73.8954 163 73 162.105 73 161V125Z" fill="black"/>
<path d="M63 175C63 173.895 63.8954 173 65 173H191C192.105 173 193 173.895 193 175V191C193 192.105 192.105 193 191 193H65C63.8954 193 63 192.105 63 191V175Z" fill="black"/>
<path d="M103 85C103 83.8954 103.895 83 105 83H121C122.105 83 123 83.8954 123 85V161C123 162.105 122.105 163 121 163H105C103.895 163 103 162.105 103 161V85Z" fill="black"/>
<path d="M133 105C133 103.895 133.895 103 135 103H151C152.105 103 153 103.895 153 105V161C153 162.105 152.105 163 151 163H135C133.895 163 133 162.105 133 161V105Z" fill="black"/>
<path d="M163 65C163 63.8954 163.895 63 165 63H181C182.105 63 183 63.8954 183 65V161C183 162.105 182.105 163 181 163H165C163.895 163 163 162.105 163 161V65Z" fill="black"/>
</svg>
