<svg width="256" height="256" viewBox="0 0 256 256" fill="none" xmlns="http://www.w3.org/2000/svg">
<path d="M191.703 112.287C193.432 113.005 193.432 115.455 191.703 116.173L128.807 142.299C128.29 142.514 127.71 142.514 127.193 142.299L75.3994 120.785V148.457C76.6572 149.185 77.5034 150.545 77.5034 152.103C77.5034 153.154 77.1179 154.115 76.4805 154.853L80.6333 168.04C81.0603 169.395 80.0479 170.776 78.6265 170.776H67.9642C66.5428 170.776 65.5304 169.395 65.9573 168.04L70.1102 154.853C69.4728 154.115 69.0873 153.154 69.0873 152.103C69.0873 150.545 69.9335 149.185 71.1913 148.457V119.037L64.2969 116.173C62.5677 115.455 62.5677 113.005 64.2969 112.287L127.193 86.161C127.71 85.9463 128.29 85.9463 128.807 86.161L191.703 112.287Z" fill="black"/>
<path d="M82.9105 152.793L87.5894 130.967L128.078 147.785L169.389 130.625L174.142 152.793C174.186 152.953 174.221 153.114 174.245 153.276L174.289 153.479H174.27C174.282 153.604 174.289 153.729 174.289 153.855C174.289 161.115 153.8 167 128.526 167C103.252 167 82.7635 161.115 82.7635 153.855C82.7635 153.729 82.7696 153.604 82.7818 153.479H82.7635L82.807 153.276C82.8314 153.114 82.8659 152.953 82.9105 152.793Z" fill="black"/>
</svg>
