<svg width="130" height="130" viewBox="0 0 130 130" fill="none" xmlns="http://www.w3.org/2000/svg">
<rect width="130" height="130" fill="white"/>
<path d="M128.48 75.3994V73.3984C121.929 73.3984 119.475 76.5417 118.293 79.7908C117.881 80.978 117.556 82.1935 117.32 83.4277C116.523 87.2793 116.054 88.2559 113.625 88.2559H96.0153V32.832H98.8864C100.058 32.8329 101.218 32.6029 102.3 32.1552C103.383 31.7075 104.367 31.0509 105.195 30.2229C106.024 29.3948 106.681 28.4117 107.13 27.3295C107.578 26.2473 107.809 25.0874 107.809 23.916C107.809 22.7446 107.578 21.5847 107.13 20.5025C106.681 19.4204 106.024 18.4372 105.195 17.6092C104.367 16.7812 103.383 16.1246 102.3 15.6769C101.218 15.2292 100.058 14.9992 98.8864 15H30.9098C28.5463 15.0017 26.2801 15.9418 24.6094 17.6137C22.9387 19.2856 22.0002 21.5524 22.0002 23.916C22.0002 26.2796 22.9387 28.5464 24.6094 30.2183C26.2801 31.8902 28.5463 32.8303 30.9098 32.832H33.7809V97.168H30.9098C28.5462 97.1696 26.28 98.1097 24.6093 99.7816C22.9385 101.453 22 103.72 22 106.084C22 108.448 22.9385 110.714 24.6093 112.386C26.28 114.058 28.5462 114.998 30.9098 115H98.8864C100.058 115.001 101.218 114.771 102.3 114.323C103.383 113.875 104.366 113.219 105.195 112.391C106.024 111.563 106.681 110.58 107.129 109.497C107.578 108.415 107.809 107.255 107.809 106.084C107.809 104.913 107.578 103.753 107.129 102.671C106.681 101.588 106.024 100.605 105.195 99.7772C104.366 98.9492 103.383 98.2926 102.3 97.8449C101.218 97.3972 100.058 97.1672 98.8864 97.168H96.0153V92.2559H113.625C119.578 92.2559 120.539 87.6211 121.238 84.2383C122.062 80.2676 122.656 77.3984 128.48 77.3984V75.3994ZM25.9958 106.084C25.9967 104.781 26.5147 103.531 27.4359 102.61C28.3572 101.688 29.6066 101.169 30.9097 101.168H98.8864C100.19 101.168 101.441 101.686 102.363 102.608C103.284 103.53 103.802 104.78 103.802 106.084C103.802 107.388 103.284 108.638 102.363 109.56C101.441 110.482 100.19 111 98.8864 111H30.9098C29.6067 110.999 28.3573 110.48 27.436 109.558C26.5147 108.637 25.9967 107.387 25.9958 106.084ZM98.8864 28.832H30.9097C29.606 28.8319 28.3558 28.3138 27.434 27.3919C26.5123 26.47 25.9944 25.2197 25.9944 23.916C25.9944 22.6123 26.5123 21.362 27.434 20.4401C28.3558 19.5182 29.606 19.0002 30.9097 19H98.8864C99.532 18.9999 100.171 19.127 100.768 19.374C101.364 19.621 101.906 19.9831 102.363 20.4396C102.82 20.8961 103.182 21.4381 103.429 22.0346C103.676 22.6311 103.803 23.2704 103.803 23.916C103.803 24.5617 103.676 25.201 103.429 25.7975C103.182 26.3939 102.82 26.9359 102.363 27.3924C101.906 27.8489 101.364 28.211 100.768 28.458C100.171 28.705 99.532 28.8321 98.8864 28.832ZM92.0153 88.627H64.8981V92.627H92.0153V97.168H37.7809V32.832H92.0153V37.375H64.8981V41.375H92.0153V45.916H64.8981V49.916H92.0153V54.459H64.8981V58.459H92.0153V63H64.8981V67H92.0153V71.5429H64.8981V75.5429H92.0153V80.084H64.8981V84.084H92.0153V88.627Z" fill="#247A6B" stroke="#247A6B"/>
</svg>
