<svg width="256" height="256" viewBox="0 0 256 256" fill="none" xmlns="http://www.w3.org/2000/svg">
<path d="M128.85 63.2083C128.143 62.9305 127.357 62.9306 126.65 63.2084L77.2852 82.607C74.7362 83.6087 74.7349 87.2229 77.2832 88.2264L126.648 107.665C127.356 107.944 128.144 107.944 128.852 107.665L178.217 88.2264C180.765 87.2229 180.764 83.6087 178.215 82.607L128.85 63.2083ZM70.1131 91.8901C68.1371 91.1127 66 92.5725 66 94.6997V169.239C66 170.481 66.7583 171.595 67.9113 172.049L120.625 192.788C122.601 193.566 124.738 192.106 124.738 189.979V115.439C124.738 114.198 123.979 113.083 122.826 112.629L70.1131 91.8901ZM189.5 94.6997C189.5 92.5725 187.363 91.1127 185.387 91.8901L132.674 112.629C131.521 113.083 130.762 114.198 130.762 115.439V189.979C130.762 192.106 132.899 193.566 134.875 192.788L187.589 172.049C188.742 171.595 189.5 170.481 189.5 169.239V94.6997Z" fill="black"/>
</svg>
