<svg width="130" height="130" viewBox="0 0 130 130" fill="none" xmlns="http://www.w3.org/2000/svg">
<rect width="130" height="130" fill="white"/>
<path d="M112.105 24.5742C109.485 21.5706 106.252 19.1623 102.624 17.511C98.9956 15.8597 95.0563 15.0035 91.0701 15C75.8748 15 68.1873 23.082 64.9998 27.7774C61.8123 23.082 54.1248 15 38.9295 15C34.9433 15.0035 31.004 15.8597 27.3759 17.511C23.7479 19.1623 20.515 21.5706 17.8943 24.5742C12.156 31.1367 9.69512 39.9063 10.9568 49.2656C13.5662 68.5703 27.2107 77.7852 46.0975 90.5391L47.4998 91.4883C59.1209 99.3477 63.0311 113.379 63.0701 113.52C63.1846 113.944 63.4356 114.319 63.7844 114.586C64.1331 114.854 64.5602 114.999 64.9998 115H65.0039C65.4429 114.999 65.8694 114.853 66.2175 114.586C66.5656 114.318 66.8159 113.944 66.9297 113.52C66.9687 113.379 70.8398 99.375 82.5 91.4883L83.9023 90.5391C102.789 77.7851 116.434 68.5703 119.043 49.2617C120.305 39.9063 117.844 31.1367 112.105 24.5742H112.105ZM64.9998 48.0115V52.0115H114.494C113.956 54.4252 113.157 56.7735 112.113 59.0154H64.9998V63.0154H109.953C108.318 65.5452 106.417 67.8932 104.283 70.0193H64.9998V74.0193H99.94C97.1863 76.3472 94.0945 78.646 90.7191 81.0232H64.9998V85.0232H84.9202C83.8565 85.7451 82.771 86.4796 81.6638 87.2266L80.2576 88.1758C78.5765 89.328 76.9928 90.616 75.5222 92.0271H64.9998V96.0271H71.8082C70.0299 98.2183 68.4484 100.562 67.0818 103.031H64.9998V107.031H65.0911C65.0635 107.093 65.0267 107.165 64.9998 107.227C62.6717 101.926 58.0076 93.7656 49.742 88.1758L48.3357 87.2266C29.6404 74.5977 17.2889 66.2578 14.9178 48.7305C13.8123 40.5312 15.9412 32.8867 20.9061 27.207C23.1513 24.633 25.9212 22.5689 29.0298 21.1534C32.1384 19.7379 35.5138 19.0037 38.9295 19C57.1482 19 62.9217 32.0273 63.156 32.582C63.3106 32.9431 63.5677 33.251 63.8953 33.4676C64.223 33.6842 64.607 33.8001 64.9998 33.8008H65.0039C65.3969 33.8008 65.7811 33.6848 66.1084 33.4672C66.4357 33.2497 66.6915 32.9404 66.8437 32.5781C67.2732 31.6789 67.778 30.8177 68.3528 30.0037H111.174C112.588 32.1618 113.662 34.5239 114.359 37.0076H64.9998V41.0076H115.118C115.4 43.3332 115.409 45.6839 115.144 48.0115H64.9998ZM91.0701 19C97.3925 19.0148 103.452 21.533 107.922 26.0037H71.8309C75.5652 22.5386 81.6646 19 91.0701 19Z" fill="#247A6B" stroke="#247A6B"/>
</svg>
