<svg xmlns="http://www.w3.org/2000/svg" width="949" height="1249.1" viewBox="425.5 275.45 949 1249.1">
  <defs>
    <style>
      .b4f0f378-7336-4cf4-92cc-8550d726c27c {
        fill: #247a6b;
      }
    </style>
  </defs>
  <title>Sartography-Logo-Vertical-Color</title>
  <g id="bcf38741-ec9c-43c6-84c7-089fe8febdf2" data-name="Logo - Color">
    <g id="f6a0ccf8-30d0-489e-8522-5e8752d68d79" data-name="Heart + Thimble">
      <path id="fc22fbf7-acda-44f8-a847-201c73c36c24" data-name="Thimble" class="b4f0f378-7336-4cf4-92cc-8550d726c27c" d="M1312.05205,910.1669v-1.95624c-6.40432,0-8.80355,3.073-9.95925,6.24941a25.42349,25.42349,0,0,0-.95139,3.55565c-.779,3.76545-1.23732,4.72017-3.61269,4.72017h-17.21565V868.55126h2.8069a8.71667,8.71667,0,1,0,0-17.43334h-66.45671a8.71667,8.71667,0,0,0,0,17.43334h2.8069v62.89748h-2.8069a8.71667,8.71667,0,0,0,0,17.43334H1283.12a8.71667,8.71667,0,1,0,0-17.43334h-2.8069v-4.80228h17.21565c5.82,0,6.75948-4.53114,7.44306-7.83832.80579-3.88192,1.38627-6.68691,7.08027-6.68691v-1.95409l.00071-.00024Zm-100.193,29.99851a4.80961,4.80961,0,0,1,4.80419-4.8061H1283.12a4.8061,4.8061,0,1,1,0,9.6122h-66.45671A4.80961,4.80961,0,0,1,1211.85907,940.16541Zm71.2609-75.52472h-66.45671a4.8061,4.8061,0,0,1,0-9.6122H1283.12a4.8061,4.8061,0,1,1,0,9.6122Zm-6.71747,58.458h-26.51089v3.91057h26.51089v4.43948h-53.02178V868.55126h53.02178v4.44139h-26.51089v3.91057h26.51089v4.43948h-26.51089v3.91057h26.51089v4.4414h-26.51089v3.91056h26.51089v4.43949h-26.51089v3.91056h26.51089v4.4414h-26.51089v3.91056h26.51089v4.43949h-26.51089v3.91057h26.51089Z"/>
      <path id="a1420d60-878b-45c2-ba8e-9bc4ec2b2aba" data-name="Heart" class="b4f0f378-7336-4cf4-92cc-8550d726c27c" d="M596.05226,860.47808a27.32455,27.32455,0,0,0-20.56484-9.36016c-14.85557,0-22.37119,7.90133-25.48742,12.49167-3.11623-4.59034-10.63185-12.49167-25.48742-12.49167a27.32455,27.32455,0,0,0-20.56484,9.36016c-5.61,6.41577-8.0159,14.98923-6.78239,24.13934,2.551,18.87307,15.89049,27.88188,34.35493,40.35063l1.371.928c11.36127,7.68365,15.184,21.40119,15.22219,21.53867A1.95732,1.95732,0,0,0,550,948.88208h.00382a1.95386,1.95386,0,0,0,1.88272-1.44737c.03819-.13748,3.82273-13.82828,15.22219-21.53867l1.371-.928c18.46444-12.46875,31.8039-21.47756,34.35493-40.35445C604.06816,875.46731,601.66224,866.89385,596.05226,860.47808ZM550,883.39131v3.91057h48.38777a33.505,33.505,0,0,1-2.32763,6.84731H550v3.91056h43.94852a41.361,41.361,0,0,1-5.54315,6.84731H550v3.91057h34.159c-2.6921,2.27583-5.71477,4.52326-9.01478,6.84731H550v3.91057h19.475q-1.55991,1.05867-3.18354,2.1541l-1.37481.928a36.44714,36.44714,0,0,0-4.62948,3.7652H550v3.91057h6.65613a46.93552,46.93552,0,0,0-4.62065,6.84731H550v3.91057h.08927c-.027.06062-.063.13127-.08927.19118-2.27607-5.18226-6.83585-13.16-14.91667-18.62483l-1.37481-.928c-18.27731-12.34654-30.35271-20.49992-32.67079-37.63538-1.08076-8.0159,1.00055-15.48951,5.85439-21.04221a23.41526,23.41526,0,0,1,17.62046-8.02353c17.81141,0,23.45576,12.73607,23.68489,13.27836A1.96467,1.96467,0,0,0,550,869.49835h.00382a1.951,1.951,0,0,0,1.79871-1.19532,17.26577,17.26577,0,0,1,1.47529-2.5169h41.86411a24.67432,24.67432,0,0,1,3.11337,6.84731H550V876.544h48.99736a29.286,29.286,0,0,1,.02554,6.84731Zm25.48742-28.36282a23.3768,23.3768,0,0,1,16.47526,6.84707H556.67832C560.3292,858.488,566.2922,855.02849,575.48742,855.02849Z"/>
    </g>
    <g id="a6eb1f7f-bc9e-43b7-9e09-fff40a05df32" data-name="Bespoke Apps">
      <g>
        <rect class="b4f0f378-7336-4cf4-92cc-8550d726c27c" x="450" y="1450" width="900" height="4"/>
        <rect class="b4f0f378-7336-4cf4-92cc-8550d726c27c" x="450" y="1546" width="900" height="4"/>
      </g>
      <g>
        <path class="b4f0f378-7336-4cf4-92cc-8550d726c27c" d="M516.58057,1501.84766a8.466,8.466,0,0,1,1.68017,5.39941,7.76786,7.76786,0,0,1-3.28808,6.7207q-3.28859,2.35109-9.57618,2.35157H489.36475v-33.59961h15.07177q5.76051,0,8.9043,2.30371a7.47471,7.47471,0,0,1,3.144,6.38379,8.30283,8.30283,0,0,1-1.22412,4.56054,7.97241,7.97241,0,0,1-3.28808,2.92774A8.608,8.608,0,0,1,516.58057,1501.84766Zm-22.416-15.24024v10.75195h9.84033a9.9941,9.9941,0,0,0,5.688-1.36816,5.02822,5.02822,0,0,0,0-8.01562,9.99409,9.99409,0,0,0-5.688-1.36817Zm17.18408,24.47949a4.67658,4.67658,0,0,0,2.064-4.22363q0-5.61621-8.208-5.61621h-11.04v11.18457h11.04A11.36042,11.36042,0,0,0,511.34863,1511.08691Z"/>
        <path class="b4f0f378-7336-4cf4-92cc-8550d726c27c" d="M550.084,1512.14355v4.17579H525.7002v-33.59961h23.71191v4.17578H530.5v10.32031h16.84814v4.0791H530.5v10.84863Z"/>
        <path class="b4f0f378-7336-4cf4-92cc-8550d726c27c" d="M560.332,1515.52734a15.03693,15.03693,0,0,1-5.54443-3.04785l1.77636-3.74414a14.68335,14.68335,0,0,0,4.91993,2.80762,18.05892,18.05892,0,0,0,6.168,1.08008q4.17627,0,6.23974-1.416a4.3646,4.3646,0,0,0,2.06445-3.76758,3.71641,3.71641,0,0,0-1.12841-2.80859,7.541,7.541,0,0,0-2.78369-1.65527q-1.656-.57569-4.68018-1.2959a48.03781,48.03781,0,0,1-6.12012-1.82422,10.10572,10.10572,0,0,1-3.98388-2.8086,7.49683,7.49683,0,0,1-1.65577-5.11132,8.64973,8.64973,0,0,1,1.416-4.84864,9.72836,9.72836,0,0,1,4.2959-3.45605,17.43463,17.43463,0,0,1,7.15185-1.2959,22.6443,22.6443,0,0,1,5.856.76856,15.58183,15.58183,0,0,1,4.94434,2.208l-1.58448,3.83985a17.39712,17.39712,0,0,0-4.51171-2.04,16.84894,16.84894,0,0,0-4.70411-.69629q-4.08031,0-6.12011,1.48828a4.55754,4.55754,0,0,0-2.04,3.83984,3.67488,3.67488,0,0,0,1.15234,2.8086,7.98528,7.98528,0,0,0,2.856,1.67969,44.29333,44.29333,0,0,0,4.63183,1.27148,47.11314,47.11314,0,0,1,6.0962,1.82422,10.2688,10.2688,0,0,1,3.96,2.78418,7.33164,7.33164,0,0,1,1.65576,5.04,8.58115,8.58115,0,0,1-1.43994,4.82422,9.64629,9.64629,0,0,1-4.36768,3.45605,18.07858,18.07858,0,0,1-7.20019,1.27148A22.98551,22.98551,0,0,1,560.332,1515.52734Z"/>
        <path class="b4f0f378-7336-4cf4-92cc-8550d726c27c" d="M611.04346,1485.83887a11.73112,11.73112,0,0,1,0,17.18457q-3.74415,3.12012-10.272,3.12011h-8.30419v10.17579h-4.79981v-33.59961h13.104Q607.29884,1482.71973,611.04346,1485.83887Zm-3.45606,14.18457a7.71557,7.71557,0,0,0,0-11.18457q-2.40087-1.94385-6.96-1.94336h-8.16015v15.07226h8.16015Q605.18677,1501.96777,607.5874,1500.02344Z"/>
        <path class="b4f0f378-7336-4cf4-92cc-8550d726c27c" d="M628.32275,1514.47168a16.49693,16.49693,0,0,1-6.4082-6.168,17.73894,17.73894,0,0,1,0-17.56836,16.50374,16.50374,0,0,1,6.4082-6.168,19.84321,19.84321,0,0,1,18.28809,0,16.38862,16.38862,0,0,1,6.38379,6.14356,17.98716,17.98716,0,0,1,0,17.61621,16.38417,16.38417,0,0,1-6.38379,6.14453,19.85094,19.85094,0,0,1-18.28809,0Zm15.81592-3.7207a12.32128,12.32128,0,0,0,4.65625-4.63184,13.63672,13.63672,0,0,0,0-13.20019,12.335,12.335,0,0,0-4.65625-4.63184,13.20887,13.20887,0,0,0-6.648-1.67969,13.4728,13.4728,0,0,0-6.6958,1.67969,12.2293,12.2293,0,0,0-4.7041,4.63184,13.63336,13.63336,0,0,0,0,13.20019,12.21588,12.21588,0,0,0,4.7041,4.63184,13.453,13.453,0,0,0,6.6958,1.68066A13.18956,13.18956,0,0,0,644.13867,1510.751Z"/>
        <path class="b4f0f378-7336-4cf4-92cc-8550d726c27c" d="M673.58643,1501.3916l-6.144,6.23926v8.68848h-4.7998v-33.59961h4.7998v18.76757l18.24024-18.76757h5.47168l-14.35157,15.11914,15.26368,18.48047h-5.61573Z"/>
        <path class="b4f0f378-7336-4cf4-92cc-8550d726c27c" d="M721.53809,1512.14355v4.17579H697.1543v-33.59961h23.71191v4.17578H701.9541v10.32031h16.84815v4.0791H701.9541v10.84863Z"/>
        <path class="b4f0f378-7336-4cf4-92cc-8550d726c27c" d="M763.63428,1507.919H745.77783l-3.6958,8.40039h-4.94385l15.21582-33.59961h4.752l15.26416,33.59961h-5.04Zm-1.68018-3.83985-7.24805-16.46387-7.248,16.46387Z"/>
        <path class="b4f0f378-7336-4cf4-92cc-8550d726c27c" d="M800.73779,1485.83887a11.73112,11.73112,0,0,1,0,17.18457q-3.74414,3.12012-10.272,3.12011h-8.3042v10.17579h-4.7998v-33.59961h13.104Q796.99316,1482.71973,800.73779,1485.83887Zm-3.45605,14.18457a7.71557,7.71557,0,0,0,0-11.18457q-2.40089-1.94385-6.96-1.94336h-8.16016v15.07226h8.16016Q794.88111,1501.96777,797.28174,1500.02344Z"/>
        <path class="b4f0f378-7336-4cf4-92cc-8550d726c27c" d="M834.91357,1485.83887a11.73112,11.73112,0,0,1,0,17.18457q-3.74414,3.12012-10.272,3.12011h-8.3042v10.17579h-4.7998v-33.59961h13.104Q831.16894,1482.71973,834.91357,1485.83887Zm-3.45605,14.18457a7.71557,7.71557,0,0,0,0-11.18457q-2.40089-1.94385-6.96-1.94336H816.3374v15.07226h8.16016Q829.05689,1501.96777,831.45752,1500.02344Z"/>
        <path class="b4f0f378-7336-4cf4-92cc-8550d726c27c" d="M848.665,1515.52734a15.03685,15.03685,0,0,1-5.54443-3.04785l1.77636-3.74414a14.6834,14.6834,0,0,0,4.91992,2.80762,18.059,18.059,0,0,0,6.168,1.08008q4.17627,0,6.23975-1.416a4.3646,4.3646,0,0,0,2.06445-3.76758,3.71638,3.71638,0,0,0-1.12842-2.80859,7.54082,7.54082,0,0,0-2.78369-1.65527q-1.656-.57569-4.68017-1.2959a48.03781,48.03781,0,0,1-6.12012-1.82422,10.10575,10.10575,0,0,1-3.98389-2.8086,7.49688,7.49688,0,0,1-1.65576-5.11132,8.64973,8.64973,0,0,1,1.416-4.84864,9.72831,9.72831,0,0,1,4.2959-3.45605,17.43463,17.43463,0,0,1,7.15185-1.2959,22.6443,22.6443,0,0,1,5.856.76856,15.58167,15.58167,0,0,1,4.94433,2.208l-1.58447,3.83985a17.397,17.397,0,0,0-4.51172-2.04,16.84887,16.84887,0,0,0-4.7041-.69629q-4.08032,0-6.12012,1.48828a4.55756,4.55756,0,0,0-2.04,3.83984,3.67488,3.67488,0,0,0,1.15234,2.8086,7.98528,7.98528,0,0,0,2.856,1.67969,44.29263,44.29263,0,0,0,4.63183,1.27148,47.11244,47.11244,0,0,1,6.09619,1.82422,10.26865,10.26865,0,0,1,3.96,2.78418,7.33159,7.33159,0,0,1,1.65577,5.04,8.58108,8.58108,0,0,1-1.43995,4.82422,9.64625,9.64625,0,0,1-4.36767,3.45605,18.0786,18.0786,0,0,1-7.2002,1.27148A22.98545,22.98545,0,0,1,848.665,1515.52734Z"/>
        <path class="b4f0f378-7336-4cf4-92cc-8550d726c27c" d="M901.22363,1506.23926a4.2487,4.2487,0,0,1-1.272-3.168,4.173,4.173,0,0,1,1.29639-3.0957,4.23935,4.23935,0,0,1,3.07226-1.27247,4.161,4.161,0,0,1,3.04785,1.27247,4.38718,4.38718,0,0,1-6.14453,6.26367Z"/>
        <path class="b4f0f378-7336-4cf4-92cc-8550d726c27c" d="M945.19141,1515.52734a15.03447,15.03447,0,0,1-5.54395-3.04785l1.77637-3.74414a14.67844,14.67844,0,0,0,4.91992,2.80762,18.0548,18.0548,0,0,0,6.168,1.08008q4.17627,0,6.24023-1.416a4.36475,4.36475,0,0,0,2.06348-3.76758,3.71427,3.71427,0,0,0-1.12793-2.80859,7.539,7.539,0,0,0-2.78418-1.65527q-1.65528-.57569-4.67969-1.2959a48.0371,48.0371,0,0,1-6.12011-1.82422,10.10731,10.10731,0,0,1-3.98438-2.8086,7.49913,7.49913,0,0,1-1.65527-5.11132,8.6498,8.6498,0,0,1,1.416-4.84864,9.72836,9.72836,0,0,1,4.2959-3.45605,17.4371,17.4371,0,0,1,7.15235-1.2959,22.64335,22.64335,0,0,1,5.85546.76856,15.58657,15.58657,0,0,1,4.94434,2.208l-1.584,3.83985a17.40327,17.40327,0,0,0-4.5127-2.04,16.84223,16.84223,0,0,0-4.70312-.69629q-4.08106,0-6.1211,1.48828a4.55757,4.55757,0,0,0-2.04,3.83984,3.67662,3.67662,0,0,0,1.15235,2.8086,7.98735,7.98735,0,0,0,2.85644,1.67969,44.32732,44.32732,0,0,0,4.63184,1.27148,47.05517,47.05517,0,0,1,6.0957,1.82422,10.26145,10.26145,0,0,1,3.96,2.78418,7.32945,7.32945,0,0,1,1.65625,5.04,8.5807,8.5807,0,0,1-1.43945,4.82422,9.64771,9.64771,0,0,1-4.36817,3.45605,18.07686,18.07686,0,0,1-7.20019,1.27148A22.98845,22.98845,0,0,1,945.19141,1515.52734Z"/>
        <path class="b4f0f378-7336-4cf4-92cc-8550d726c27c" d="M978.71973,1486.89551H967.2002v-4.17578h27.792v4.17578H983.47168v29.42383h-4.75195Z"/>
        <path class="b4f0f378-7336-4cf4-92cc-8550d726c27c" d="M1019.95215,1507.919H1002.0957l-3.69531,8.40039h-4.94434l15.21583-33.59961h4.75195l15.26367,33.59961h-5.04Zm-1.68067-3.83985-7.248-16.46387-7.24707,16.46387Z"/>
        <path class="b4f0f378-7336-4cf4-92cc-8550d726c27c" d="M1036.415,1512.86328q-3.74414-3.83936-3.74414-11.04v-19.10351h4.7998v18.91113q0,10.80029,9.45606,10.80078,4.60839,0,7.05664-2.66406,2.44774-2.66456,2.44726-8.13672v-18.91113h4.65625v19.10351q0,7.248-3.74414,11.06446-3.74413,3.81591-10.46386,3.81542Q1040.15821,1516.70312,1036.415,1512.86328Z"/>
        <path class="b4f0f378-7336-4cf4-92cc-8550d726c27c" d="M1099.82227,1482.71973v33.59961h-3.93555l-20.16016-25.05567v25.05567h-4.7998v-33.59961h3.93554l20.16016,25.05566v-25.05566Z"/>
        <path class="b4f0f378-7336-4cf4-92cc-8550d726c27c" d="M1116.57422,1486.89551h-11.51953v-4.17578h27.792v4.17578h-11.52051v29.42383h-4.752Z"/>
        <path class="b4f0f378-7336-4cf4-92cc-8550d726c27c" d="M1143.59863,1514.47168a16.49361,16.49361,0,0,1-6.4082-6.168,17.7357,17.7357,0,0,1,0-17.56836,16.50042,16.50042,0,0,1,6.4082-6.168,19.84321,19.84321,0,0,1,18.28809,0,16.38531,16.38531,0,0,1,6.38379,6.14356,17.9905,17.9905,0,0,1,0,17.61621,16.38087,16.38087,0,0,1-6.38379,6.14453,19.85094,19.85094,0,0,1-18.28809,0Zm15.81641-3.7207a12.31872,12.31872,0,0,0,4.65527-4.63184,13.63336,13.63336,0,0,0,0-13.20019,12.33248,12.33248,0,0,0-4.65527-4.63184,13.21331,13.21331,0,0,0-6.64844-1.67969,13.47465,13.47465,0,0,0-6.69629,1.67969,12.236,12.236,0,0,0-4.7041,4.63184,13.63336,13.63336,0,0,0,0,13.20019,12.22256,12.22256,0,0,0,4.7041,4.63184,13.45481,13.45481,0,0,0,6.69629,1.68066A13.194,13.194,0,0,0,1159.415,1510.751Z"/>
        <path class="b4f0f378-7336-4cf4-92cc-8550d726c27c" d="M1206.81348,1482.71973v33.59961h-3.93555l-20.16016-25.05567v25.05567h-4.7998v-33.59961h3.93555l20.16015,25.05566v-25.05566Z"/>
        <path class="b4f0f378-7336-4cf4-92cc-8550d726c27c" d="M1219.60547,1510.96777a3.25014,3.25014,0,0,1,.88769,2.32715,5.70657,5.70657,0,0,1-.168,1.39258q-.16846.67236-.64747,2.06348l-2.25585,6.67187h-3.02442l1.77637-7.15137a3.00812,3.00812,0,0,1-1.46387-1.12793,3.14344,3.14344,0,0,1-.55273-1.84863,3.18135,3.18135,0,0,1,.91211-2.35156,3.12411,3.12411,0,0,1,2.30371-.91211A2.95038,2.95038,0,0,1,1219.60547,1510.96777Z"/>
        <path class="b4f0f378-7336-4cf4-92cc-8550d726c27c" d="M1269.88477,1482.71973l-14.73536,33.59961h-4.752l-14.78418-33.59961h5.1836l12.09667,27.59961,12.19141-27.59961Z"/>
        <path class="b4f0f378-7336-4cf4-92cc-8550d726c27c" d="M1294.50977,1507.919h-17.85645l-3.69531,8.40039h-4.94434l15.21582-33.59961h4.752l15.26367,33.59961h-5.04Zm-1.68067-3.83985-7.248-16.46387-7.24707,16.46387Z"/>
        <path class="b4f0f378-7336-4cf4-92cc-8550d726c27c" d="M1307.94824,1515.6709a3.17472,3.17472,0,0,1-.96-2.376,3.11592,3.11592,0,0,1,.96-2.32715,3.18294,3.18294,0,0,1,2.30371-.93652,3.06621,3.06621,0,0,1,2.25586.91211,3.18135,3.18135,0,0,1,.91211,2.35156,3.21888,3.21888,0,0,1-.93554,2.376,3.04816,3.04816,0,0,1-2.23243.93652A3.18294,3.18294,0,0,1,1307.94824,1515.6709Z"/>
      </g>
    </g>
    <g id="a135e2e0-cf45-40e2-896b-10451bb97db1" data-name="Compass + Ribbon">
      <path class="b4f0f378-7336-4cf4-92cc-8550d726c27c" d="M1015.24347,802.08661c39.53619-32.5351,57.47333-72.40967,65.55853-100.13056a213.83867,213.83867,0,0,0,6.42346-29.61932c7.0326-6.13995,10.908-12.28656,10.908-18.49664V552.04755a2.04758,2.04758,0,0,0-4.09515,0c0,12.23724-9.87561,24.90332-29.95282,38.30005-27.72839,18.07226-71.75543,35.49176-119.30212,52.05657-.01715-.58514-.02967-1.17041-.0705-1.75537a43.67377,43.67377,0,0,0-43.09424-40.63433q-.31028-.00312-.621-.0022c-.3136-.00226-.62592.00183-.93817.00622a43.68453,43.68453,0,0,0-39.61707,60.69184l-5.93017,5.14575a2.17078,2.17078,0,0,0-.715,1.26636l-1.0271,5.89874c-48.70605,15.998-92.307,30.86334-119.96643,45.23749-21.23614,10.64123-30.93719,19.75592-30.93719,28.723V856.16248c0,11.36413,15.56634,22.9638,50.47216,37.61077,15.89832,6.671,34.76148,13.51807,55.37226,20.56287-11.03113,51.29565-25.742,121.08984-37.73627,182.86676-41.097,16.5741-68.10815,32.54425-68.10815,48.957v101.79254a2.04758,2.04758,0,1,0,4.09515,0c0-12.23724,9.87561-24.90326,29.95282-38.3,5.1698-3.36944,10.9093-6.71612,17.12915-10.03894-11.113,85.1803-12.10443,147.38068-12.11542,148.18763a2.17,2.17,0,0,0,1.91779,2.18414,2.04965,2.04965,0,0,0,.25366.01483,2.169,2.169,0,0,0,2.1153-1.698l36.12933-162.29962c42.11127-18.52655,96.18054-36.218,146.96991-52.82806,26.538-8.679,52.01636-17.013,74.80719-25.09961l53.477,240.22729a2.1681,2.1681,0,0,0,2.11529,1.698,2.07679,2.07679,0,0,0,.25422-.01483,2.16992,2.16992,0,0,0,1.91723-2.18414c-.01483-1.054-1.70117-106.84455-25.4303-231.77668-1.15991-6.10724-2.35687-12.33178-3.58038-18.63507a378.31691,378.31691,0,0,0,35.32184-15.648c21.23614-10.64117,30.93719-19.75586,30.93719-28.723V943.83752c0-11.36468-15.56585-22.96429-50.47271-37.61132-17.10694-7.17817-37.64807-14.56018-60.10443-22.173-5.28162-24.30243-8.87952-40.54535-9.55469-43.58868l4.50018-17.48456A162.07462,162.07462,0,0,0,1015.24347,802.08661Zm-41.57306,37.80005a2.16341,2.16341,0,0,0-.017,1.01159c.11005.49579,3.63758,16.375,9.1109,41.53669-8.90381-2.99628-18.08416-6.02832-27.45318-9.09784l-8.40222-37.74427a180.12184,180.12184,0,0,0,30.50921-10.26678Zm72.4057,70.11578c11.86255,4.978,47.96222,20.12537,47.96222,33.83508v92.5011q-.82361-1.49166-1.81506-2.98852c-.62763-.94885-1.31-1.89948-2.03827-2.85175q-1.19211-1.55877-2.563-3.124-1.53552-1.7514-3.29883-3.5116-1.367-1.3656-2.86707-2.73657-1.97634-1.80231-4.19519-3.615c-1.05047-.86035-2.13531-1.72211-3.266-2.58606q-2.33806-1.78656-4.90973-3.58417-1.82556-1.27807-3.76568-2.56176-2.65924-1.75818-5.53382-3.52741c-1.34765-.82867-2.73889-1.65954-4.15863-2.49206q-2.93106-1.71864-6.06445-3.44849-1.35-.74469-2.73981-1.49164-.8172-.43973-1.647-.88013-10.2594-5.44143-22.53479-11.00463-7.12748-3.22888-14.68671-6.406c-.80713-.34015-1.60992-.68091-2.42364-1.0202-.80591-.33612-1.62225-.67078-2.43445-1.006-8.66113-3.5752-17.67456-7.10486-26.95514-10.59418-.80768-.30365-1.6131-.60767-2.42468-.91071-.80444-.30035-1.61469-.59979-2.42291-.89959-32.87287-12.19349-68.81519-23.90424-103.99323-35.36329-9.11719-2.96991-18.12512-5.90454-26.94824-8.80554q-1.03748-.34112-2.07044-.68139-1.03646-.3414-2.07067-.68226c-8.01966-2.64526-15.87269-5.26232-23.498-7.85186-.69385-.2356-1.38306-.47071-2.07312-.70587q-1.033-.35213-2.06116-.70356c-20.35473-6.96313-38.97381-13.72729-54.65515-20.30743-11.86261-4.97748-47.96173-20.12488-47.96173-33.83453V763.66089q.82369,1.49176,1.81519,2.98877c.62768.94885,1.31,1.89953,2.03833,2.8518q1.19209,1.55869,2.56311,3.12385,1.53561,1.75149,3.29889,3.51165,1.367,1.3656,2.867,2.73664,1.97636,1.80229,4.19531,3.61486c1.05042.86036,2.13519,1.72229,3.26587,2.58619q2.33808,1.78665,4.90973,3.5841,1.82556,1.27807,3.76575,2.56177,2.65923,1.75818,5.53375,3.5274c1.34772.82868,2.73895,1.65961,4.15869,2.49213q2.93106,1.71863,6.06439,3.44849,1.35.74469,2.73981,1.4917.81729.43972,1.64709.88012,10.25922,5.44136,22.534,11.00422c13.70288,6.20794,28.632,12.27148,44.34778,18.21752.82269.31128,1.65271.62146,2.47968.93213.82647.31043,1.64947.62134,2.48.93116,8.61572,3.21368,17.45324,6.39282,26.43567,9.54309q1.03042.36135,2.0617.72253,1.02951.35971,2.0622.71875c24.6087,8.56445,50.23791,16.91437,75.47369,25.13483q9.51855,3.10071,18.8523,6.15045,1.20088.39294,2.39752.785,1.19952.393,2.39679.78552c9.37311,3.075,18.5473,6.11188,27.43182,9.112q1.20456.40677,2.40088.8125,1.20026.40686,2.39166.81269C1010.03772,896.02887,1029.66626,903.11652,1046.07611,910.00244Zm14.57483,170.42108c-5.88989,2.78479-11.20825,5.0174-14.57385,6.42981-4.76459,1.99927-9.80255,4.01569-15.07538,6.04926q-.56955-2.92035-1.14642-5.86188c31.68963-12.56091,55.09222-24.68726,64.14941-36.80365.0108.2865.03363.57349.03363.8595v.93738C1094.03833,1060.83911,1081.18573,1070.42108,1060.65094,1080.42352Zm-53.41193,26.18293-.57324-2.57526-.44794-2.01215-1.24505-5.59314-.9104-4.0896-1.35169-6.072-.91278-4.10028-1.35492-6.08673-.905-4.06549-1.35351-6.08026-.90222-4.05292-1.34833-6.05688-.90381-4.06018-1.343-6.033-.90942-4.08527-1.34924-6.061-.91169-4.09534-1.33331-5.98969-.39337-1.7669-.51514-2.31427-11.07055-49.731c9.28051,3.51508,18.2821,7.07,26.90966,10.67023,2.08118,9.932,4.19275,20.07348,6.30817,30.31555q.22175,1.07318.44342,2.14819.20435.99042.40869,1.98194.62064,3.01162,1.24115,6.032.42765,2.08145.8548,4.16589.6276,3.06245,1.25409,6.12946.42353,2.07386.84613,4.1488.62064,3.04688,1.23913,6.09418.41676,2.05344.83228,4.1062.62091,3.06756,1.23846,6.13123.41319,2.04976.82459,4.09668.62055,3.08742,1.23663,6.16632.41237,2.06047.82239,4.11627.61716,3.09411,1.22882,6.17554.41583,2.09463.82849,4.18164.609,3.0791,1.21118,6.14038.41062,2.08722.81812,4.16589.57248,2.921,1.13776,5.82184.199,1.02145.39672,2.03918.24115,1.24018.48084,2.47589,1.75561,9.05174,3.42657,17.84516a1552.548,1552.548,0,0,1,24.50238,207.44482Zm-74.53967,19.9848c-52.60742,17.13659-106.929,34.83435-150.12183,53.87152l1.49146-6.7c40.337-17.26288,90.97229-33.87934,138.6344-49.51648,27.75452-9.106,54.38806-17.84534,78.154-26.34192l1.23877,5.5647C980.74719,1110.939,957.1098,1118.63934,932.69934,1126.59125Zm-156.28943,61.61151L746.11853,1324.2774c1.25763-26.12933,4.31451-71.94079,11.62384-127.12231q.18448-1.39279.37378-2.7959.16425-1.22286.33136-2.4519.46023-3.38553.9411-6.81305.34717-2.47147.70667-4.96625.50867-3.536,1.04016-7.11316.36512-2.45553.742-4.93072.54191-3.56269,1.10712-7.16217.39084-2.48759.79358-4.99262.581-3.61615,1.18609-7.2655.40869-2.46387.829-4.94251.60947-3.59546,1.24262-7.21936.423-2.41909.85724-4.85077.64572-3.61779,1.31537-7.26019.443-2.40738.89752-4.82538.25635-1.36532.5144-2.732.43039-2.26584.86762-4.55347.46032-2.40957.9273-4.84009.693-3.606,1.39917-7.2528.24408-1.26.48993-2.525.22962-1.18268.46088-2.36963c11.84912-60.85711,26.22906-129.08056,37.08032-179.54834,7.61994,2.58576,15.46436,5.19843,23.471,7.83856l-36.18182,162.53565-.54126,2.43127-.5318,2.38916-1.59955,7.18525-1.069,4.80242-1.60614,7.215-1.071,4.81128-1.60693,7.21863-1.07813,4.84308-1.60681,7.218-1.09466,4.91755-1.62622,7.30535-1.10816,4.978-1.61059,7.23517-1.10688,4.97223-1.60986,7.23187-1.11743,5.01953-1.50726,6.77106-.55768,2.505Zm-7.38849-86.07745q-.70806,3.66622-1.40234,7.29034-3.76731,1.57142-7.38751,3.14343c-29.10437,12.66266-46.83032,23.91236-54.2699,34.59363v-.99286C705.96167,1132.31921,731.71375,1117.39954,769.02142,1102.12531Zm-7.99048,43.74969c-27.02441,12.40369-46.89587,24.93036-55.05749,37.84955.238-14.81708,22.62915-29.93781,56.29034-45.1034Q761.63474,1142.26341,761.03094,1145.875Zm-.82519,4.97662q-.60022,3.66459-1.17328,7.291c-28.31128,13.43469-45.67157,25.72876-53.03845,37.676C706.62616,1182.34955,724.39307,1167.59827,760.20575,1150.85162Zm-1.96411,12.33081q-.56022,3.61277-1.09564,7.1858c-24.89789,12.24908-43.32282,24.81256-51.13611,37.8012C706.88788,1193.20288,727.4707,1178.073,758.24164,1163.18243Zm-1.83325,12.1565q-.52634,3.589-1.03022,7.13684c-24.00683,12.18707-41.71319,24.73773-49.34576,37.788C707.26221,1205.16571,726.90137,1190.095,756.40839,1175.33893Zm9.94958-59.31458q-.53109,2.7963-1.04687,5.57886c-29.12281,12.55963-50.74189,25.09851-59.34943,37.83563v-.67767c0-14.20721,24.592-29.21747,60.72882-44.48151C766.58,1114.86023,766.46783,1115.4458,766.358,1116.02435Zm-60.3963,55.33753c0-14.55561,23.4884-29.65766,58.46027-44.90985q-.66532,3.65891-1.30787,7.29394c-28.05664,12.48132-48.77746,25.0152-57.1524,37.84876Zm.11481,60.95086c1.56237-15.20245,20.31665-30.20831,48.59985-44.82751q-.4801,3.46746-.941,6.89508-6.91223,3.70248-12.90368,7.35339C724.2569,1211.61414,712.08447,1221.78046,706.07648,1232.31274Zm319.68457-165.96368q7.209-2.91248,13.9154-5.82544c22.48749-9.78815,38.1861-18.733,47.61151-27.224a43.56807,43.56807,0,0,1,2.47944,3.69653c-9.18366,11.39374-32.48072,23.36023-62.77558,35.53565Q1026.37905,1069.44666,1025.76105,1066.34906Zm-.82416-4.12036q-.61743-3.084-1.2392-6.17609c24.27783-9.89154,44.32654-19.75488,57.475-29.697q1.944,1.91895,3.592,3.81977C1073.22864,1040.62354,1051.73682,1051.37305,1024.93689,1062.2287Zm-2.06458-10.27338q-.61862-3.06756-1.24066-6.13891c21.03412-8.619,38.97614-17.24414,52.18714-25.95716q2.35693,1.88223,4.43921,3.74634C1065.6319,1032.95325,1046.21136,1042.43451,1022.87231,1051.95532Zm-2.0736-10.2467q-.61937-3.05027-1.241-6.1001c17.69214-7.28607,33.26031-14.59509,45.76825-21.98248q2.69622,1.83353,5.131,3.64874C1057.78217,1025.39337,1040.66815,1033.55115,1020.79871,1041.70862Zm11.04535-15.87494c-4.21906,1.87335-8.60944,3.74664-13.134,5.6192q-.62713-3.06939-1.25567-6.134c4.79943-1.99207,9.45837-3.98828,13.93975-5.98871q13.5836-6.06345,24.2945-11.82733,3.00045,1.79232,5.75848,3.56659A322.81748,322.81748,0,0,1,1031.84406,1025.83368Zm-15.24659-4.68994q-.62073-3.02061-1.24176-6.03314c10.70893-4.47791,20.7154-8.99469,29.81281-13.55616q3.238,1.73932,6.25238,3.46112C1041.13232,1010.42468,1029.377,1015.807,1016.59747,1021.14374Zm-2.0957-10.1684c-1.85144-8.9602-3.69873-17.83856-5.52539-26.5672q6.12588,2.61246,11.97485,5.257,10.65647,4.82767,19.71772,9.52063C1032.58221,1003.14148,1023.806,1007.07318,1014.50177,1010.97534Zm13.321,65.748c30.4148-12.14893,53.40436-23.9646,63.94336-35.85529a28.95066,28.95066,0,0,1,1.21564,3.27655c-5.29559,12.12909-30.12787,25.24756-63.94623,38.72168Q1028.43275,1079.80429,1027.82275,1076.72333Zm-41.407-43.69293c-31.01977,11.60491-65.37634,22.91967-98.24188,33.74255-30.76691,10.13184-60.4353,19.90356-86.87036,29.569l1.59424-7.16162c25.32714-9.14752,53.3164-18.34815,81.011-27.45075,34.677-11.39788,69.73743-22.92382,101.17371-34.68853Zm2.25824,10.14422c-29.5965,10.97778-62.64349,21.87341-94.96973,32.53131-33.46063,11.0318-66.28747,21.85608-95.066,32.60907l1.59968-7.18609c27.57672-10.16608,58.57214-20.37452,89.21722-30.46625,33.28284-10.96063,67.311-22.16712,97.87067-33.54443Zm2.25049,10.10956c-28.50812,10.51074-60.27625,20.99017-91.69586,31.35382-36.55805,12.05859-72.38,23.87634-103.2583,35.66168l1.60077-7.191c29.75213-11.20416,63.7893-22.42718,97.4154-33.51355,33.09985-10.9129,65.61554-21.63409,94.5957-32.34063Zm2.25037,10.10907c-27.52674,10.09436-58.13947,20.19031-88.41987,30.17572-39.6975,13.0907-78.54949,25.9054-111.45953,38.7467l1.60053-7.18994c31.85418-12.26593,68.96984-24.511,105.61541-36.59851,31.93085-10.53253,63.30213-20.88153,91.316-31.18677Zm2.25384,10.12476c-26.5412,9.67474-55.99621,19.38006-85.1358,28.98-41.47046,13.66168-84.09479,27.7066-119.70471,41.97912l1.6184-7.27014c33.96686-13.41009,74.432-26.75641,113.83118-39.74884,30.76337-10.14484,60.99115-20.11432,88.03864-30.01489Zm2.25794,10.143c-25.5506,9.25134-53.8451,18.55847-81.83991,27.7655-44.921,14.77381-90.48846,29.76276-127.96326,45.20069l1.60346-7.20294c36.55462-14.85645,80.51367-29.34082,122.08667-43.037,29.94464-9.86487,58.85382-19.38928,84.75928-28.80762Zm-115.05658-25.82208c-27.87372,9.1615-54.64911,17.96356-78.66407,26.54284l35.49176-159.4356c8.7049,2.86133,17.58619,5.7547,26.57416,8.68243,36.026,11.73523,72.85828,23.73438,106.32166,36.232l11.82159,53.10449C952.14661,1034.9895,916.61145,1046.6698,882.63007,1057.83893Zm-95.84723,103.73279c38.48523-16.04139,85.751-31.58912,130.34369-46.255,28.96026-9.52447,56.74035-18.66168,81.47113-27.56341l1.35125,6.07c-24.55194,8.82386-51.67987,17.72516-78.52227,26.53174-48.08759,15.7768-96.89716,31.7934-136.24646,48.416Zm-47.43378-441.9953c5.88989-2.78473,11.20825-5.01734,14.57385-6.42981,26.27124-11.02362,60.7796-22.56263,97.901-34.69117l-1.04882,6.0235c-70.32233,23.2641-129.08564,44.28888-144.77979,65.28394-.0108-.2865-.03363-.57349-.03363-.8595v-.93732C705.96167,739.16083,718.81427,729.57886,739.34906,719.57642Zm118.09155-48.088.49823-2.86138,4.7594-4.1297,1.6839-1.46113.11762-.102a2.16993,2.16993,0,0,0,.54235-2.56024,39.3462,39.3462,0,0,1,35.1496-56.02081c.261-.00305.52179-.007.78381-.00482.17847.00146.35584-.00214.53473.00171.63874.01385,1.27991.04083,1.924.086a39.40342,39.40342,0,0,1,36.60382,39.61682c-.00763.79266-.0315,1.58838-.08753,2.38946-.01544.2204-.03973.43884-.05878.65851-.06573.75879-.14788,1.5141-.2561,2.263a39.2259,39.2259,0,0,1-8.50647,19.26746c-.00873.01062-.01459.02319-.02313.034a2.16127,2.16127,0,0,0-.355.6471l-1.45154,4.29407-2.45734,7.26947-1.64831,4.876-2.45716,7.269-1.64483,4.86578-1.01373,2.999-11.77808,1.23755-7.39356.77679-10.38018,1.09064-1.405.14765-3.52143.37a2.065,2.065,0,0,0-1.76794,1.37561,2.09538,2.09538,0,0,0-.1228.31073l-.97138,4.36353-1.549,6.95874-1.037,4.65838-1.54925,6.95966-1.03815,4.66363-1.55041,6.96479-1.03962,4.67028-1.5495,6.96076-.41149,1.84863-.63,2.83008-6.801,30.5517a2.16877,2.16877,0,0,0,1.65875,2.59143c17.4859,3.781,40.45111,5.93274,65.30688.83111.70417-.14453,1.41266-.307,2.11969-.46331.70472-.15577,1.40845-.30848,2.11591-.4762a141.62862,141.62862,0,0,0,31.77051-11.70178c.64929-.3313,1.29864-.65985,1.94812-1.00373.63958-.33862,1.27911-.69281,1.9187-1.04382,2.11535-1.16077,4.23083-2.37189,6.34448-3.67218,36.23236-22.28961,51.98645-51.42352,58.82172-71.93884.13763-.413.25732-.814.3891-1.22321.275-.85412.54559-1.70459.796-2.54114.27282-.91131.53607-1.81549.781-2.70434.72431-2.62787,1.32031-5.14111,1.82654-7.54517.35852-1.7027.67334-3.34936.93854-4.92212.44037-2.6112.76538-5.03833.99756-7.238.179-1.69654.30218-3.24665.38952-4.66315.18329-2.97272.20008-5.31073.17078-6.84064l-.00031-.02807c.03327-.00605.07331-.01538.10712-.02167a19.25145,19.25145,0,0,0,9.12421-4.14117c.21057-.18726.43023-.39362.6535-.60639.80658-.7688,1.69568-1.69165,2.69366-2.73071a60.85871,60.85871,0,0,1,9.45105-8.50568,23.08755,23.08755,0,0,1,2.00061-1.20148,14.80288,14.80288,0,0,1,4.01325-1.498,9.952,9.952,0,0,1,5.01862.36828,17.079,17.079,0,0,1,5.17138,2.85169,23.05121,23.05121,0,0,1,2.52411,2.29712c.00086.20019.00037.44977-.00122.72448-.00812,1.40326-.05957,3.76148-.25623,6.92334-.10321,1.6601-.24749,3.54035-.44653,5.61988-.215,2.24682-.4928,4.71777-.85626,7.39972-.13007.9599-.27368,1.95147-.42609,2.96216-.14074.93341-.28973,1.884-.45093,2.85858-.61059,3.69073-1.375,7.67151-2.32623,11.88275l-12.35571-2.6933-1.47369-.32123-.27741,1.27313-.18439.84632-.46185,2.11963,13.75244,2.99774c-.66607,2.68927-1.404,5.455-2.23212,8.29431A205.49665,205.49665,0,0,1,1068.94,722.477l-12.70709-5.53851-.86645,1.98871-.86646,1.98876,12.72339,5.5456a200.75939,200.75939,0,0,1-15.05585,27.83453l-11.76813-8.1792-1.23828,1.78113-1.23822,1.78107,11.84235,8.23083a194.09327,194.09327,0,0,1-19.97669,24.73584l-10.59832-10.99432-3.12268,3.01141,10.6914,11.09088c-4.408,4.42334-9.14935,8.76722-14.2716,12.98249q-5.00556,4.11922-10.17011,7.6961l-8.88672-13.84283-1.82519,1.17212-1.825,1.17193,8.89447,13.85492,1.82513-1.17206,1.38263-.888a158.35478,158.35478,0,0,1-17.9527,10.70295q-1.28311.65469-2.57025,1.28363-1.27524.62246-2.55395,1.22027a174.60718,174.60718,0,0,1-32.84015,11.41992c-.704.17041-1.40772.339-2.11048.50055q-1.05963.24363-2.11725.47425-3.31026.7218-6.59362,1.31634l-2.89649-16.09637-2.13531.384-2.13556.384,2.89081,16.06452c-28.76355,4.60687-55.382,2.54107-73.558-.26807a2.16881,2.16881,0,0,0-2.44891,1.67255l-.86292,3.87634c-9.73578-3.41748-19.2904-6.86926-28.57818-10.36005l-7.52271-29.22381,22.457-31.68244a2.48762,2.48762,0,0,0,.367-.88232l.3988-2.29053.3252-1.86761,1.19714-6.87555.80859-4.64392,1.20166-6.90156.806-4.629,1.198-6.88031.80261-4.60962,1.19843-6.88294.801-4.60009,1.19831-6.88233.7998-4.59326,1.19781-6.87958.79871-4.58728,1.19745-6.8772.79718-4.5783,1.04541-6.00428.39758-2.28338Zm213.63123-31.40686c-7.14777,1.422-13.27338,7.79865-17.74549,12.454-1.05755,1.101-1.98,2.05567-2.7619,2.78418q-3.36163,1.67166-6.92553,3.34461a17.01971,17.01971,0,0,1-2.12836.32043,2.14363,2.14363,0,0,0-1.95984,1.57337c-24.26495,11.06591-54.63666,22.1582-86.90063,33.17639l-1.06348-6.10816c68.98993-23.59991,126.90784-46.76495,142.43994-71.351-.12646,7.87134-6.509,15.82837-17.50519,23.83228A13.824,13.824,0,0,0,1071.07184,640.0816Zm-31.89148,31.87708c-23.81812,10.62738-53.4195,21.33429-84.75244,31.98688l-1.06525-6.11847c32.22528-10.98346,62.05963-21.848,86.16791-32.75867C1039.50879,666.82782,1039.4187,669.16327,1039.18036,671.95868Zm-1.66968,11.96362c-23.13049,10.014-51.45929,20.14667-81.3034,30.24274l-1.0672-6.12933c31.08905-10.55164,59.97912-20.97113,83.53918-31.38324C1038.39221,678.8902,1038.00964,681.32745,1037.51068,683.9223Zm-3.11505,12.5412c-22.12714,9.22528-48.64246,18.58826-76.40765,27.929l-1.06836-6.13611c29.46533-9.94629,56.71728-19.65454,79.5307-29.38635C1035.8764,691.30139,1035.19714,693.83942,1034.39563,696.4635Zm-154.6192,47.36456c10.73041-3.58014,21.46734-7.11621,32.04968-10.60107q3.669-1.20822,7.31415-2.40924l1.33795,6.0105q-2.19434.72142-4.387,1.44207c-12.635,4.153-25.32013,8.32312-37.86359,12.51539Zm2.58789-11.62542c7.97949-2.649,15.97711-5.28608,23.9314-7.90863q5.31975-1.75387,10.613-3.50074l1.33728,6.00727q-3.85208,1.26947-7.70111,2.53674c-9.8811,3.254-19.82739,6.53-29.72986,9.82538Zm2.58594-11.61658q7.90851-2.61648,15.8211-5.22412,6.976-2.301,13.90637-4.59052l1.33661,6.0044q-5.50176,1.81659-11.00085,3.629-10.86338,3.58163-21.61176,7.13757Zm2.5849-11.61194q.681-.22476,1.36193-.44934l12.0094-1.2619,8.60083.90375q-5.011,1.6549-10.01873,3.30615-6.77206,2.2338-13.50177,4.45679Zm29.83477,33.187q2.00565-.65917,4.00257-1.31561l10.22931,45.95178a154.10719,154.10719,0,0,1-61.30744-.37359l6.89313-30.96546C890.6181,750.95483,904.11206,746.51874,917.36993,742.16107Zm8.14417-2.67755-.517-2.32227-.37732-1.695-1.33868-6.01355-.89429-4.01752L921.049,719.4256l-.89435-4.01776-1.337-6.006-.714-3.20722a2.14158,2.14158,0,0,0-.31012-.70618l4.12128-.433a2.1692,2.1692,0,0,0,1.82824-1.46283l.05316-.15723,2.45612-7.266,1.64661-4.87127,2.46-7.27741,1.65088-4.884,2.45978-7.27673.26623-.78766a43.93853,43.93853,0,0,0,3.34357-4.77674q.53914-.88842,1.03583-1.79828l1.19274,1.0351,3.56592,3.09467.00452.026,1.05969,6.08618.71387,4.1,1.0636,6.10846.71338,4.09705,1.06317,6.10608.71209,4.08984,1.06476,6.11524.71179,4.08807,1.06647,6.12494.71192,4.08862,1.06762,6.13178.31928,1.83374.39288,2.25622,6.55292,37.63532a2.18289,2.18289,0,0,0,.36755.88232l4.56214,6.43628a137.26857,137.26857,0,0,1-30.18256,11.03174Zm39.76819,26.804-6.58155-37.80109c27.37812-9.182,52.65424-18.05072,73.956-26.75806-6.99664,19.62158-22.38178,46.48011-56.16449,67.26233-2.19672,1.35138-4.39569,2.61188-6.59454,3.80817ZM1031.942,652.726c-23.21454,10.3053-51.38239,20.61554-81.0694,30.79981l-1.06427-6.11267c29.80206-10.25422,58.10382-20.67347,81.68323-31.19715,33.95623-15.155,54.35815-28.80725,62.5144-42.03467C1093.32922,618.60162,1073.01868,634.491,1031.942,652.726Zm-82.84815,20.58338-1.05969-6.08643c69.46838-23.982,129.95691-48.79578,145.95593-75.39233C1092.38043,619.26862,1024.57428,647.256,949.09387,673.30933Zm-4.04443-9.4068-3.67847-3.1922c.31915-.75421.61371-1.51807.88928-2.28827,72.17987-24.81659,135.27759-50.594,151.70734-78.68591C1091.61993,608.558,1022.22058,637.28107,945.04944,663.90253Zm143.91083-14.95722a2.16714,2.16714,0,0,0-.48829-1.30444c-.02752-.03381-.11334-.13715-.24749-.29022a43.62163,43.62163,0,0,0,5.81384-6.78949v.67767c0,3.823-1.78821,7.70435-5.095,11.63294C1089.002,650.533,1088.96692,649.16034,1088.96027,648.94531Zm-.3144,10.08417a41.61328,41.61328,0,0,0,5.39246-6.18225v.99286c0,3.96448-2.12219,8.01794-6.01392,12.14245C1088.3053,663.40393,1088.5047,661.07941,1088.64587,659.02948Zm5.39246-30.39142c0,5.26056-3.081,10.59277-8.649,15.97736a23.99415,23.99415,0,0,0-4.37426-2.9123c5.69171-4.40332,10.10919-8.83239,13.02325-13.29785Zm-.11481-60.9508c-3.06994,29.87164-72.47564,58.98565-150.24347,85.8941a43.84278,43.84278,0,0,0,.94489-5.952c28.10016-9.81274,54.81555-19.9096,78.01648-30.4201a339.80722,339.80722,0,0,0,36.52691-18.943C1075.7431,588.3858,1087.91553,578.21954,1093.92352,567.68726ZM846.77924,707.42767c-32.29371,10.86347-62.06849,21.43329-86.45569,32.04865-22.48749,9.78821-38.18616,18.73315-47.61157,27.22412a43.5439,43.5439,0,0,1-2.47938-3.69659c15.90589-19.73371,74.14893-41.18555,137.746-62.4646Zm-.80079,4.59919-1.2,6.89178c-54.2395,18.41962-101.76751,36.43933-125.95117,54.72577q-1.944-1.91886-3.592-3.81976C735.85437,751.15,788.2652,731.51324,845.97845,712.02686Zm-2.00195,11.49731-1.2,6.89172c-48.5401,16.63709-91.26569,33.01929-116.5954,49.72486q-2.357-1.88214-4.43915-3.74628C745.1955,759.03076,792.10321,741.20544,843.9765,723.52417Zm-2.004,11.50909-1.19952,6.8891C797.99347,756.726,760.04626,771.38861,734.674,786.374q-2.69624-1.83353-5.131-3.64874C754.28137,766.87933,795.92633,750.88464,841.97253,735.03326Zm-73.81659,39.13306c20.79334-9.23273,45.54981-18.4649,71.80939-27.60559l-1.20379,6.91388c-25.54139,8.95673-49.633,18.03412-70.15564,27.19519q-13.58369,6.06345-24.29456,11.82739-3.00045-1.79232-5.75848-3.56665A322.83459,322.83459,0,0,1,768.15594,774.16632Zm69.79493-16.03619-1.19861,6.88372c-30.795,10.92566-59.19971,22.03907-81.92084,33.43165q-3.238-1.73924-6.25238-3.46106C772.36505,782.47906,804.00043,770.11725,837.95087,758.13013Zm-4.43976,12.41717-19.73572,27.84363a2.16984,2.16984,0,0,0-.331,1.79541l7.01129,27.23731c-14.64862-5.58783-28.57733-11.2768-41.40747-17.0893q-10.6562-4.82748-19.71717-9.5202C780.35291,790.53119,806.03784,780.4104,833.51111,770.5473Zm15.26727-74.601c-66.74707,22.249-122.30334,42.60492-140.54449,63.18567a28.96308,28.96308,0,0,1-1.21564-3.27661c8.9342-20.46308,73.46826-43.742,142.95892-66.79364Zm93.90149,140.61523,7.83734,35.20667q-8.19808-2.67966-16.55017-5.39734c-25.3678-8.26349-51.135-16.658-75.84564-25.26495l.53454-2.40137C879.48083,841.75244,910.2337,843.63623,942.67987,836.56152Z"/>
      <path class="b4f0f378-7336-4cf4-92cc-8550d726c27c" d="M888.603,661.28583a22.46264,22.46264,0,1,0-9.78022-18.5318A22.46325,22.46325,0,0,0,888.603,661.28583ZM901.29358,624.622A18.13118,18.13118,0,1,1,883.1615,642.754,18.15248,18.15248,0,0,1,901.29358,624.622Z"/>
      <polygon class="b4f0f378-7336-4cf4-92cc-8550d726c27c" points="866.179 817.181 864.059 816.719 861.94 816.257 858.433 832.344 862.672 833.268 866.179 817.181"/>
      <polygon class="b4f0f378-7336-4cf4-92cc-8550d726c27c" points="968.079 824.221 970.098 823.428 964.076 808.101 960.038 809.688 966.06 825.014 968.079 824.221"/>
      <polygon class="b4f0f378-7336-4cf4-92cc-8550d726c27c" points="899.19 820.582 897.021 820.542 894.853 820.503 894.551 836.962 898.889 837.041 899.19 820.582"/>
    </g>
    <g id="a6a43833-8990-4367-853c-acaa728cffd4" data-name="Circle">
      <path class="b4f0f378-7336-4cf4-92cc-8550d726c27c" d="M653.92676,653.92676A348.71043,348.71043,0,0,1,1040.206,581.299q2.17118-1.192,4.24671-2.38483-3.69728-1.66424-7.438-3.25152A351.95869,351.95869,0,0,0,553.89948,835.49951c1.4215-.61944,2.87542-1.18115,4.36633-1.6723A345.51246,345.51246,0,0,1,653.92676,653.92676Z"/>
      <path class="b4f0f378-7336-4cf4-92cc-8550d726c27c" d="M900,1248a348.80162,348.80162,0,0,1-108.16772-17.0683l-.85535,3.84229a353.67473,353.67473,0,0,0,219.73767-.5467l-.85522-3.842A348.71481,348.71481,0,0,1,900,1248Z"/>
      <path class="b4f0f378-7336-4cf4-92cc-8550d726c27c" d="M653.92676,1146.07324a345.53056,345.53056,0,0,1-95.47547-178.90082,21.88448,21.88448,0,0,1-3.82135,1.196,350.97918,350.97918,0,0,0,96.4682,180.533,355.77126,355.77126,0,0,0,30.76838,27.39355v-5.12176A354.10163,354.10163,0,0,1,653.92676,1146.07324Z"/>
      <path class="b4f0f378-7336-4cf4-92cc-8550d726c27c" d="M1146.07324,1146.07324a349.60156,349.60156,0,0,1-76.58368,58.02185q.26487,2.107.52271,4.19647A351.84625,351.84625,0,0,0,1245.27319,968.882h-4.05352A345.55889,345.55889,0,0,1,1146.07324,1146.07324Z"/>
      <path class="b4f0f378-7336-4cf4-92cc-8550d726c27c" d="M1146.07324,653.92676a345.559,345.559,0,0,1,95.14643,177.19116h4.05358a351.06647,351.06647,0,0,0-96.37188-180.01978,355.78806,355.78806,0,0,0-30.76789-27.39276v5.12146A354.10163,354.10163,0,0,1,1146.07324,653.92676Z"/>
    </g>
    <g id="b76e08c7-c0c5-4f67-9cd4-18a2c06eda53" data-name="Sartography">
      <path class="b4f0f378-7336-4cf4-92cc-8550d726c27c" d="M531.54639,636.55518a33.88826,33.88826,0,0,1-14.47559,5.248l-1.91113-4.97607a32.487,32.487,0,0,0,13.33984-4.7627,42.81507,42.81507,0,0,0,11.99561-10.665q7.355-9.47973,7.50488-17.11181a14.15376,14.15376,0,0,0-5.63477-12.11768,12.41928,12.41928,0,0,0-9.09668-2.957,21.44886,21.44886,0,0,0-9.00537,3.189,110.683,110.683,0,0,0-10.88379,7.95947,126.07425,126.07425,0,0,1-12.59228,8.9873,23.65022,23.65022,0,0,1-11.07324,3.40723q-5.94654.32373-11.91944-4.311a20.51245,20.51245,0,0,1-6.87841-9.438,22.0057,22.0057,0,0,1-.33106-12.78711q1.71387-7.09937,7.81787-14.97022a46.85844,46.85844,0,0,1,9.99756-9.55762,40.31328,40.31328,0,0,1,11.49658-5.813l2.48926,4.81738a38.91688,38.91688,0,0,0-10.97559,5.5332,41.80406,41.80406,0,0,0-8.74169,8.33057q-7.13526,9.197-7.11524,16.80566a14.67449,14.67449,0,0,0,5.89746,12.16992,12.41372,12.41372,0,0,0,9.09717,2.957,21.41778,21.41778,0,0,0,9.00537-3.189,121.90926,121.90926,0,0,0,11.05176-7.98047,122.86888,122.86888,0,0,1,12.55566-8.93994,24.29623,24.29623,0,0,1,10.9419-3.43359q5.85132-.394,11.72949,4.16406A19.94923,19.94923,0,0,1,552.627,596.562a22.44788,22.44788,0,0,1,.13623,12.93994q-1.82153,7.24439-7.92773,15.1128A48.90958,48.90958,0,0,1,531.54639,636.55518Z"/>
      <path class="b4f0f378-7336-4cf4-92cc-8550d726c27c" d="M597.09668,535.05811,561.25928,568.063l8.15869,24.624-4.855,4.47119-28.48194-87.96533,4.502-4.146,85.32763,35.6128-4.855,4.47119Zm-5.17285-2.251L542.84033,512.104l16.68848,50.53711Z"/>
      <path class="b4f0f378-7336-4cf4-92cc-8550d726c27c" d="M685.24609,503.333l-31.93652-13.04444a61.04528,61.04528,0,0,1-6.57959,4.86377l-20.293,12.81348,14.6709,23.23584-5.1748,3.26758-44.8462-71.02686,25.46827-16.08056q13.3938-8.45729,25.00781-6.91993,11.61474,1.53736,18.72558,12.79932,5.31811,8.42358,4.62452,16.87744-.69361,8.45729-7.23487,15.85059l33.45313,13.64795Zm-41.39892-12.74658q11.36279-7.17408,14.17969-15.97754,2.81469-8.80225-3.01465-18.03614-5.82934-9.23217-14.9878-10.47607-9.15966-1.24219-20.52246,5.93262l-20.293,12.813,24.34473,38.55761Z"/>
      <path class="b4f0f378-7336-4cf4-92cc-8550d726c27c" d="M690.7334,414.58252l-27.8335,11.82129-2.1582-5.08057L722.042,395.28809l2.15821,5.08056-27.834,11.82178,30.67969,72.23486-5.6333,2.39258Z"/>
      <path class="b4f0f378-7336-4cf4-92cc-8550d726c27c" d="M776.65381,461.36768a41.08443,41.08443,0,0,1-18.66992-11.43506,44.23009,44.23009,0,0,1-9.65918-42.35254,41.08335,41.08335,0,0,1,11.86572-18.39893,47.656,47.656,0,0,1,43.50928-9.98437,40.68064,40.68064,0,0,1,18.65674,11.37646,44.69037,44.69037,0,0,1,9.7124,42.58643A40.66264,40.66264,0,0,1,820.18945,451.5a47.65734,47.65734,0,0,1-43.53564,9.86768Zm39.28271-13.94385a35.35856,35.35856,0,0,0,10.15528-15.91651,38.7623,38.7623,0,0,0-8.40479-36.85351,35.37889,35.37889,0,0,0-16.05224-9.93994,40.44283,40.44283,0,0,0-37.26319,8.49853,35.23084,35.23084,0,0,0-10.21338,15.92969,38.76036,38.76036,0,0,0,8.40479,36.854,35.22111,35.22111,0,0,0,16.11035,9.92627,40.44149,40.44149,0,0,0,37.26318-8.49853Z"/>
      <path class="b4f0f378-7336-4cf4-92cc-8550d726c27c" d="M918.54883,407.90625l5.8789-.11426.60938,31.43408a36.59735,36.59735,0,0,1-13.2207,8.29834,49.78461,49.78461,0,0,1-16.564,3.08155,45.828,45.828,0,0,1-22.60254-5.08252,40.5297,40.5297,0,0,1-16.01269-14.93213,44.69073,44.69073,0,0,1-.84717-43.67188,40.54137,40.54137,0,0,1,15.42139-15.542,46.09764,46.09764,0,0,1,22.50878-5.95752,47.46548,47.46548,0,0,1,17.0337,2.60987,36.36768,36.36768,0,0,1,13.42382,8.32128l-3.75976,4.15381a31.767,31.767,0,0,0-11.96582-7.38965,42.68048,42.68048,0,0,0-14.50244-2.05908,39.69691,39.69691,0,0,0-19.40332,5.17725,34.99966,34.99966,0,0,0-13.36035,13.522,36.88605,36.88605,0,0,0-4.55225,18.9917,36.2429,36.2429,0,0,0,19.21875,31.7334,38.96149,38.96149,0,0,0,19.53076,4.48193q14.39723-.279,23.72608-8.1416Z"/>
      <path class="b4f0f378-7336-4cf4-92cc-8550d726c27c" d="M1005.84961,461.50391l-15.01172-31.06055a61.13225,61.13225,0,0,1-8.14453-.78613L959.03809,425.605l-4.63965,27.08545-6.03223-1.0332,14.18262-82.794,29.6875,5.085q15.6123,2.67482,23.2168,11.58643,7.604,8.91283,5.35546,22.04053-1.68164,9.81883-7.85254,15.63867-6.17431,5.822-15.98144,6.9414l15.73437,32.52344Zm-22.24414-37.16944q13.24512,2.269,21.22851-2.39013,7.979-4.65967,9.82422-15.42286,1.84425-10.76073-4.13183-17.813-5.97657-7.0503-19.22266-9.31934l-23.65527-4.05225-7.69824,44.9458Z"/>
      <path class="b4f0f378-7336-4cf4-92cc-8550d726c27c" d="M1086.37988,463.76514,1040.6582,446.939,1022.4707,465.436l-6.19336-2.27979,65.27246-65.48633,5.74317,2.11328,7.252,92.17627-6.19336-2.27929Zm-.35742-5.63037-3.97851-53.12256-37.35157,37.91308Z"/>
      <path class="b4f0f378-7336-4cf4-92cc-8550d726c27c" d="M1190.84961,460.25781q3.92431,11.03907-2.86133,22.501-6.7251,11.36059-18.28906,13.228-11.56641,1.86987-25.19629-6.19971l-20.65234-12.22559-13.999,23.647-5.2666-3.11768,42.791-72.28418,25.91894,15.34375Q1186.9253,449.21876,1190.84961,460.25781Zm-22.88184,30.17237q9.08643-1.45241,14.65137-10.8501,5.56055-9.39551,2.49609-18.11524-3.06884-8.71875-14.63281-15.56445l-20.65234-12.22607-23.168,39.13672,20.65234,12.22607Q1158.87939,491.88233,1167.96777,490.43018Z"/>
      <path class="b4f0f378-7336-4cf4-92cc-8550d726c27c" d="M1280.11523,523.39355l-55.79,62.79688L1219.75,582.126l26.54-29.87354-41.98438-37.2998-26.54,29.87353-4.5752-4.06445,55.79-62.79736,4.57519,4.06494L1207.89258,510.916l41.98437,37.29931L1275.54,519.3291Z"/>
      <path class="b4f0f378-7336-4cf4-92cc-8550d726c27c" d="M1279.88574,608.313l-22.81347,17.77392-3.76172-4.82812,22.81347-17.77344,22.65332-60.5459,4.12989,5.30078-20.34278,54.33448,57.66016-6.43506,3.9082,5.01709Z"/>
    </g>
  </g>
</svg>
