<?xml version="1.0" encoding="UTF-8" standalone="no"?>
<svg
   version="1.1"
   viewBox="0 0 256 256"
   id="svg51768"
   sodipodi:docname="python.svg"
   inkscape:version="1.1.2 (0a00cf5339, 2022-02-04)"
   width="256"
   height="256"
   xmlns:inkscape="http://www.inkscape.org/namespaces/inkscape"
   xmlns:sodipodi="http://sodipodi.sourceforge.net/DTD/sodipodi-0.dtd"
   xmlns="http://www.w3.org/2000/svg"
   xmlns:svg="http://www.w3.org/2000/svg">
  <defs
     id="defs51772" />
  <sodipodi:namedview
     id="namedview51770"
     pagecolor="#ffffff"
     bordercolor="#666666"
     borderopacity="1.0"
     inkscape:pageshadow="2"
     inkscape:pageopacity="0.0"
     inkscape:pagecheckerboard="0"
     showgrid="false"
     inkscape:zoom="1.5887806"
     inkscape:cx="-636.33709"
     inkscape:cy="361.28338"
     inkscape:window-width="3840"
     inkscape:window-height="2123"
     inkscape:window-x="0"
     inkscape:window-y="0"
     inkscape:window-maximized="1"
     inkscape:current-layer="svg51768" />
  <path
     id="rect51754"
     d="m 128,63 c -18.005,0 -32.5,7.2475 -32.5,16.25 v 13 H 128 V 95.5 H 95.5 79.25 C 70.2475,95.5 63,109.995 63,128 c 0,18.005 7.2475,32.5 16.25,32.5 h 13 c 0,-8.1927 0.503641,-14.3925 1.701172,-19.18262 1.19753,-4.79012 3.148394,-8.22907 6.017578,-10.52441 5.73837,-4.59071 14.21876,-4.41797 26.40625,-4.41797 13.81249,0 22.46369,-0.18525 27.26953,-3.74512 2.40292,-1.77994 4.07246,-4.41571 5.20508,-8.75342 C 159.98223,109.53876 160.5,103.55728 160.5,95.5 V 79.25 C 160.5,70.2475 146.005,63 128,63 Z M 110.125,73.238769 A 6.0125,6.0125 0 0 1 116.13623,79.25 6.0125,6.0125 0 0 1 110.125,85.261231 6.0125,6.0125 0 0 1 104.11377,79.25 6.0125,6.0125 0 0 1 110.125,73.238769 Z M 163.75,95.5 c 0,8.1927 -0.49786,14.39875 -1.75195,19.20166 -1.2541,4.80291 -3.34238,8.2609 -6.42383,10.54346 -6.1629,4.5651 -15.38673,4.37988 -29.19922,4.37988 -12.18749,0 -19.95712,0.17273 -24.375,3.70703 -2.208937,1.76715 -3.81277,4.42197 -4.900389,8.77246 C 96.011982,146.45498 95.5,152.44272 95.5,160.5 v 16.25 c 0,9.0025 14.495,16.25 32.5,16.25 18.005,0 32.5,-7.2475 32.5,-16.25 v -13 H 128 v -3.25 h 32.5 16.25 c 9.0025,0 16.25,-14.495 16.25,-32.5 0,-18.005 -7.2475,-32.5 -16.25,-32.5 z m -17.875,75.23877 a 6.0125,6.0125 0 0 1 6.01123,6.01123 6.0125,6.0125 0 0 1 -6.01123,6.01123 6.0125,6.0125 0 0 1 -6.01123,-6.01123 6.0125,6.0125 0 0 1 6.01123,-6.01123 z"
     style="stroke-width:3.25001" />
  <g
     id="line51762">
    <path
       style="color:#000000;fill:#000000;-inkscape-stroke:none"
       d="M 10,9.5 H 20"
       id="path52341" />
  </g>
  <g
     id="line51764">
    <path
       style="color:#000000;fill:#000000;-inkscape-stroke:none"
       d="M 20,30.5 H 30"
       id="path52347" />
  </g>
</svg>
