<svg width="130" height="130" viewBox="0 0 130 130" fill="none" xmlns="http://www.w3.org/2000/svg">
<rect width="130" height="130" fill="white"/>
<path fill-rule="evenodd" clip-rule="evenodd" d="M92.8631 19.1269C91.5048 23.7841 88.4913 30.4831 81.8491 35.9491C80.1629 37.3354 78.3161 38.5139 76.3485 39.4592L75.5924 42.3967C75.7058 42.908 76.3103 45.6368 77.1976 49.7197L77.368 50.5042L80.6245 65.7598L80.7963 66.5796C81.1031 68.046 81.4135 69.5376 81.7245 71.0429L81.9881 72.3207L82.0442 72.5934L82.0766 72.7512L82.2206 73.4527C82.291 73.7959 82.3613 74.1394 82.4315 74.4832L82.5739 75.1814C82.5989 75.3037 82.6238 75.426 82.6487 75.5484C82.6933 75.7676 82.7379 75.9869 82.7824 76.2062L82.9224 76.8963C82.992 77.2403 83.0615 77.5841 83.1308 77.9277L83.2695 78.616C83.3391 78.9623 83.4085 79.3082 83.4777 79.6536L83.6161 80.3459C83.6853 80.6928 83.7543 81.039 83.8229 81.3846L83.9625 82.0888C84.0308 82.4338 84.0987 82.7778 84.1662 83.1208L84.304 83.8221C84.3686 84.1516 84.4328 84.4798 84.4966 84.8069L84.6432 85.5607C84.8487 86.6197 85.0498 87.6654 85.2447 88.6914C89.2312 109.68 89.5145 127.453 89.5171 127.631C89.5183 127.721 89.486 127.808 89.4265 127.876C89.367 127.944 89.2845 127.987 89.195 127.997C89.1877 127.998 89.1804 127.999 89.1731 127.999C89.1708 128 89.1686 128 89.1664 128C89.1617 128 89.1569 128 89.1522 128C89.0694 128 88.989 127.972 88.9244 127.92C88.8598 127.868 88.8148 127.796 88.7969 127.715L74.4654 63.3354L71.1488 48.4364L69.6583 41.741C64.2072 42.9295 59.0407 42.613 55.542 42.101L55.3017 43.1804L52.4669 55.915L36.4836 127.715C36.4657 127.796 36.4207 127.868 36.3561 127.92C36.2915 127.972 36.2111 128 36.1283 128C36.1225 128 36.1168 128 36.111 128C36.1026 127.999 36.0941 127.999 36.0857 127.997C35.9961 127.987 35.9136 127.944 35.854 127.876C35.7945 127.808 35.7623 127.721 35.7635 127.631C35.7653 127.495 35.9319 117.045 37.7989 102.735L37.9151 101.855C37.9667 101.472 38.0194 101.085 38.0732 100.697L38.1911 99.8554C38.2475 99.4581 38.3052 99.0584 38.3642 98.6564L38.4881 97.8213C38.5481 97.4211 38.6094 97.0187 38.6722 96.6141L38.805 95.7674C38.8692 95.3612 38.9349 94.9529 39.0021 94.5425L39.1408 93.7064C39.2084 93.3019 39.2774 92.8957 39.3479 92.4877L39.4907 91.6687C39.5627 91.2616 39.636 90.8531 39.7105 90.4433L39.8599 89.6287C39.9176 89.317 39.9762 89.0046 40.0357 88.6914C40.0409 88.6642 40.0461 88.6369 40.0513 88.6096L40.0682 88.521L40.2476 87.5811C40.3254 87.1752 40.4039 86.767 40.4832 86.3564L40.6433 85.5294C42.6584 75.1507 45.1299 63.4251 46.9831 54.8073L47.1289 54.1299L49.6238 41.1308L49.6222 41.1303C49.5263 41.0943 49.4297 41.0581 49.3344 41.022L47.9464 35.6298C47.9332 35.5785 47.9313 35.525 47.9409 35.4729C47.9505 35.4208 47.9713 35.3714 48.002 35.3282L51.3176 30.6504L51.8621 29.7208L54.7258 13.2747C54.7401 13.1921 54.7826 13.117 54.8459 13.062L55.8422 12.1975C55.3738 11.0898 55.1849 9.88392 55.292 8.68603C55.399 7.48815 55.7989 6.33493 56.4562 5.32784C57.1136 4.32074 58.0084 3.49064 59.062 2.91054C60.1155 2.33044 61.2954 2.01814 62.4979 2.0011C62.5504 2.00043 62.6029 1.99975 62.6555 2.00009C62.6903 1.99998 62.7251 2.00009 62.7599 2.00043C64.6037 2.02043 66.3724 2.73392 67.7139 3.99892C69.0555 5.26391 69.8716 6.98765 69.9998 8.8271C70.0057 8.91134 70.0081 8.99582 70.0105 9.08009L70.0117 9.12201L69.985 9.99986C69.9551 10.3364 69.9021 10.6705 69.8263 10.9998L69.5878 11.8131C69.5415 11.9425 69.492 12.0708 69.4384 12.1975L70.0564 12.7338L70.5578 13.2916L73.4555 29.9347L74.2309 31.0287C74.6003 30.8277 74.9698 30.6159 75.3388 30.3889C81.0144 26.8974 83.5992 22.3851 84.7746 19.0886L85.0667 18.2041C85.2014 17.7633 85.3155 17.3369 85.4119 16.9284L85.5901 16.0972C85.6739 15.6612 85.7382 15.2518 85.7864 14.8758L85.8706 14.0872C85.9106 13.6176 85.9257 13.2252 85.9294 12.9297L85.9328 12.1719C85.9529 12.0988 85.9955 12.0339 86.0546 11.9864C86.1138 11.939 86.1864 11.9114 86.2621 11.9076C86.3823 11.8972 86.5017 11.8792 86.6196 11.8538C87.0188 11.6664 87.4066 11.4791 87.7832 11.2919C87.9145 11.1695 88.0695 11.009 88.2472 10.8241C88.9985 10.042 90.0276 8.9707 91.2284 8.7318C91.5309 8.6725 91.8421 8.67399 92.144 8.73619L92.8989 9.00423C93.1611 9.13993 93.4075 9.304 93.6338 9.49351L94.1101 9.95304C94.1266 9.97181 94.1387 9.98613 94.1458 9.99471L94.1517 10.0018C94.2024 10.0638 94.2313 10.1409 94.2337 10.2209C94.2349 10.2571 94.2408 10.4877 94.2309 10.8806L94.1809 11.9151C94.1572 12.2595 94.1237 12.65 94.0765 13.0832L93.9423 14.1508C93.7007 15.8329 93.3401 17.4958 92.8631 19.1269ZM74.8648 42.2996C74.8504 42.3552 74.8494 42.4134 74.8619 42.4695C74.8804 42.5528 75.473 45.2206 76.3926 49.4478L79.9794 66.2347C80.329 67.9033 80.6838 69.6071 81.0392 71.3278L81.0606 71.4318C81.0783 71.5174 81.096 71.603 81.1136 71.6887C81.1365 71.7996 81.1594 71.9106 81.1823 72.0217C81.2518 72.359 81.3213 72.6968 81.3908 73.035C81.4387 73.2682 81.4866 73.5015 81.5344 73.7349C81.6047 74.0779 81.675 74.4212 81.7451 74.7647L81.8125 75.0947C81.8374 75.217 81.8624 75.3394 81.8873 75.4617C81.9568 75.803 82.0262 76.1442 82.0955 76.4855L82.2353 77.1754C82.3048 77.519 82.3742 77.8623 82.4434 78.2055C82.4896 78.435 82.5358 78.6644 82.5819 78.8937C82.6514 79.2395 82.7206 79.5848 82.7896 79.9297C82.8358 80.1604 82.8819 80.3909 82.9278 80.6212C82.9969 80.9677 83.0657 81.3136 83.1342 81.6587C83.1808 81.8933 83.2272 82.1275 83.2734 82.3612C83.3416 82.7061 83.4095 83.05 83.4769 83.3928C83.5229 83.6266 83.5687 83.8599 83.6144 84.0927C83.6785 84.4199 83.7422 84.7459 83.8055 85.0708L83.8722 85.4134C83.8992 85.5523 83.9261 85.691 83.9529 85.8294C84.1496 86.8432 84.3415 87.8425 84.5286 88.8274C86.6816 100.339 88.0569 111.982 88.6451 123.679L75.4585 64.4421L71.7804 47.9193L70.3688 41.5782C72.1254 41.1574 73.8408 40.5801 75.4944 39.8534L74.8648 42.2996ZM56.5238 12.5711C56.5837 12.5191 56.6251 12.449 56.6415 12.3713C56.6579 12.2937 56.6486 12.2128 56.6149 12.141C56.1464 11.1399 55.9364 10.0373 56.0042 8.93401C56.0719 7.83077 56.4152 6.76213 57.0026 5.82585C57.5901 4.88957 58.403 4.11555 59.3669 3.57459C60.3308 3.03364 61.4149 2.74302 62.5202 2.72934L62.539 2.72911C62.5765 2.72866 62.6142 2.72821 62.6518 2.7285C62.6627 2.72856 62.6736 2.72853 62.6845 2.7285C62.7035 2.72845 62.7225 2.72841 62.7417 2.72883C62.849 2.73117 62.9567 2.73569 63.0649 2.74328C64.7441 2.86283 66.3146 3.6176 67.457 4.85403C68.5994 6.09046 69.2278 7.71567 69.2144 9.39901C69.2131 9.53218 69.2091 9.66586 69.1997 9.80045C69.1983 9.82088 69.1964 9.84125 69.1945 9.86158L69.1936 9.87031L69.1917 9.89086L69.1909 9.89987L69.1899 9.91108C69.1788 10.0386 69.165 10.1655 69.1468 10.2913C68.9745 11.4804 68.4803 12.5997 67.7177 13.5283C67.7169 13.5292 67.7163 13.5302 67.7156 13.5313L67.7148 13.5326L67.7138 13.534C67.6879 13.5665 67.6677 13.6033 67.6542 13.6427L65.8611 18.9471L60.0687 19.5557C60.0022 19.5616 59.9388 19.5865 59.8861 19.6275C59.8334 19.6685 59.7937 19.7238 59.7717 19.7868C59.7634 19.8036 59.7565 19.8211 59.751 19.839L56.7057 33.5195C56.6952 33.5664 56.6942 33.6149 56.7025 33.6622C56.7109 33.7095 56.7286 33.7547 56.7545 33.7951C56.7804 33.8356 56.814 33.8705 56.8535 33.898C56.8929 33.9254 56.9374 33.9447 56.9844 33.9549C59.922 34.5901 63.7803 34.9516 67.9561 34.0945C68.0442 34.0764 68.1326 34.0567 68.2211 34.0369C68.2515 34.0301 68.2819 34.0234 68.3122 34.0166L68.3717 34.0035C68.4701 33.9818 68.5688 33.9601 68.6677 33.9366C70.5191 33.4971 72.311 32.8371 74.0052 31.9707L74.0556 31.945C74.1479 31.898 74.2402 31.851 74.3325 31.8021C74.4216 31.7549 74.5108 31.7059 74.5999 31.6569L74.6549 31.6267C75.0102 31.4317 75.3656 31.2282 75.7207 31.0098C81.8079 27.2651 84.4546 22.3705 85.6029 18.9239C85.6167 18.8824 85.6295 18.8417 85.6422 18.801C85.6473 18.7845 85.6526 18.7678 85.6578 18.7513L85.662 18.7381C85.6641 18.7315 85.6662 18.7249 85.6683 18.7184C85.7145 18.5749 85.76 18.432 85.802 18.2914C85.8479 18.1383 85.8921 17.9864 85.9332 17.8371C86.0549 17.3956 86.1551 16.9734 86.2401 16.5695C86.3003 16.2834 86.3532 16.0068 86.3978 15.7426C86.4718 15.3039 86.5264 14.8961 86.5654 14.5266C86.5954 14.2415 86.6161 13.9811 86.6308 13.7431C86.6616 13.2437 86.6644 12.8509 86.6595 12.5939L86.6595 12.5892C86.6623 12.5887 86.6654 12.588 86.6686 12.5873C86.6716 12.5867 86.6746 12.5861 86.6775 12.5855C87.2409 12.493 87.7698 12.253 88.2103 11.8898C88.2457 11.8583 88.2826 11.8237 88.3201 11.7879C88.4556 11.6588 88.605 11.5037 88.7727 11.3292C89.2506 10.7987 89.7828 10.3198 90.3605 9.90019C90.469 9.82728 90.5812 9.75991 90.6966 9.69834C90.9079 9.5822 91.1351 9.49743 91.3708 9.44667C91.6525 9.39473 91.9429 9.41603 92.214 9.50854C92.5292 9.61658 92.8232 9.7787 93.0828 9.98763C93.2335 10.1056 93.3752 10.2346 93.5068 10.3736C93.5069 10.4006 93.5069 10.4331 93.5068 10.4688C93.5068 10.4698 93.5068 10.4708 93.5068 10.4718V10.4749L93.5068 10.4953C93.5051 10.731 93.4967 11.1272 93.4638 11.6584C93.4464 11.9373 93.4222 12.2532 93.3888 12.6026C93.3527 12.98 93.306 13.3952 93.2449 13.8457C93.2231 14.007 93.1989 14.1736 93.1733 14.3434C93.1497 14.5002 93.1247 14.6599 93.0976 14.8236C92.995 15.4437 92.8666 16.1125 92.7068 16.82L90.3834 16.3135L90.2282 17.0257L92.5387 17.5293C92.4268 17.9811 92.3028 18.4458 92.1636 18.9228C91.8012 20.1633 91.3694 21.3824 90.8703 22.5744L88.7355 21.644L88.4443 22.3122L90.5819 23.2439C89.8631 24.8668 89.0173 26.4304 88.0525 27.9201L86.0754 26.546L85.6593 27.1445L87.6489 28.5273C86.6457 30.002 85.5232 31.3918 84.2928 32.683L82.5122 30.8359L81.9876 31.3418L83.7838 33.2051C83.0432 33.9482 82.2467 34.678 81.3861 35.3862C80.8255 35.8476 80.2559 36.2785 79.6775 36.6792L78.1845 34.3535L77.5713 34.7473L79.0583 37.0637C78.8838 37.1663 78.5784 37.3495 78.2394 37.5528C77.569 37.9549 76.7673 38.4358 76.5884 38.527C76.4447 38.6004 76.3007 38.6722 76.1566 38.7427C76.0137 38.8124 75.8707 38.8807 75.7275 38.9477C75.2582 39.1654 74.7836 39.3705 74.3039 39.563L73.2529 36.9595L72.5745 37.2261L73.6241 39.8259C72.509 40.2414 71.369 40.5889 70.2103 40.8663C70.092 40.8949 69.9738 40.9232 69.8557 40.9504C69.737 40.9776 69.6185 41.0042 69.5 41.03C69.1292 41.1109 68.76 41.1846 68.3923 41.2512L67.9056 38.547L67.1881 38.676L67.6738 41.3749C65.8023 41.6746 63.9848 41.8062 62.2828 41.8275L62.3519 39.0563L61.6233 39.0431L61.5537 41.8301C59.5356 41.8188 57.6998 41.6582 56.1551 41.451L56.8059 38.485L56.0938 38.3297L55.4316 41.3475C55.3928 41.3417 55.3542 41.3357 55.3158 41.3298C55.2244 41.3157 55.131 41.3368 55.0546 41.389C54.9782 41.4412 54.9245 41.5205 54.9044 41.6108L54.7594 42.2621L51.621 56.3608L36.6354 123.678C36.8467 119.289 37.3603 111.592 38.5883 102.322C38.6089 102.166 38.6299 102.009 38.6511 101.852C38.6695 101.715 38.688 101.578 38.7067 101.44C38.7583 101.061 38.811 100.679 38.8649 100.295C38.9037 100.019 38.9433 99.7404 38.9836 99.461C39.0406 99.065 39.0988 98.6666 39.1583 98.266C39.1992 97.9909 39.2408 97.7148 39.283 97.4376C39.3437 97.0386 39.4057 96.6375 39.469 96.2343C39.5128 95.9557 39.5572 95.6761 39.6023 95.3956C39.6674 94.9906 39.7338 94.5837 39.8016 94.1749C39.8473 93.899 39.8938 93.6222 39.9408 93.3446C40.0091 92.9419 40.0787 92.5376 40.1496 92.1317C40.197 91.8608 40.245 91.5891 40.2936 91.3168C40.366 90.9116 40.4396 90.505 40.5146 90.097C40.5642 89.8274 40.6145 89.5572 40.6654 89.2864C40.6941 89.1335 40.7229 88.9805 40.7518 88.8274C40.8 88.5736 40.8486 88.3186 40.8976 88.0624C40.9491 87.7925 41.0011 87.5215 41.0534 87.2492C41.131 86.8454 41.2093 86.4392 41.2884 86.0308C41.3158 85.8896 41.3432 85.7482 41.3707 85.6065L41.4482 85.2084C43.4389 74.9843 45.8547 63.5226 47.6778 55.0439L50.4634 40.8104L49.9582 40.5215L48.6944 35.6119L52.4672 30.2891C52.4972 30.2442 52.5181 30.1938 52.5289 30.1409L55.4216 13.5275L56.5238 12.5711ZM60.3938 20.3059L60.6226 20.2304L62.6402 20.0184L64.0852 20.1703L64.9538 20.6079L67.7971 33.3804C64.3943 34.0495 60.8917 34.0282 57.4973 33.3177L60.3938 20.3059ZM65.5294 19.839C65.5194 19.7966 65.5017 19.7564 65.4773 19.7203L66.1697 19.6476C66.239 19.6403 66.3048 19.6133 66.3593 19.5697C66.4137 19.5261 66.4545 19.4679 66.4768 19.4018L68.3237 13.9383C68.5285 13.6836 68.7161 13.4155 68.8854 13.1358C68.9458 13.0363 69.0038 12.9356 69.0594 12.8337L69.8589 13.5275L69.8597 13.5319L72.7516 30.1409C72.761 30.1942 72.7821 30.2449 72.8134 30.2891L73.5798 31.3704C71.968 32.1846 70.2661 32.8067 68.5091 33.2238L65.5294 19.839Z" fill="#247A6B"/>
<path fill-rule="evenodd" clip-rule="evenodd" d="M60.5779 12.2793C61.2738 12.7553 62.109 12.9846 62.9504 12.9306C63.7918 12.8765 64.5909 12.5423 65.2202 11.9811C65.8495 11.42 66.2727 10.6643 66.4224 9.83454C66.5721 9.0048 66.4396 8.14883 66.0461 7.40317C65.6525 6.6575 65.0207 6.0651 64.2512 5.72045C63.4817 5.3758 62.619 5.29877 61.8006 5.50162C60.9822 5.70448 60.2554 6.17554 59.736 6.83968C59.2165 7.50382 58.9345 8.32277 58.9348 9.1659C58.935 9.77931 59.0848 10.3834 59.3711 10.9259C59.6574 11.4684 60.0716 11.933 60.5779 12.2793ZM64.4022 6.6331C63.9013 6.29838 63.3124 6.1197 62.7099 6.11967C61.9023 6.12058 61.128 6.44181 60.5569 7.01289C59.9858 7.58397 59.6646 8.35827 59.6637 9.1659C59.6637 9.76834 59.8424 10.3573 60.1771 10.8582C60.5118 11.3591 60.9876 11.7495 61.5442 11.98C62.1008 12.2105 62.7132 12.2708 63.3041 12.1533C63.8949 12.0358 64.4377 11.7457 64.8637 11.3197C65.2897 10.8937 65.5798 10.3509 65.6973 9.76006C65.8149 9.16919 65.7546 8.55674 65.524 8.00015C65.2935 7.44355 64.9031 6.96782 64.4022 6.6331Z" fill="#247A6B"/>
<path fill-rule="evenodd" clip-rule="evenodd" d="M56.6415 12.3713C56.6251 12.449 56.5837 12.5191 56.5238 12.5711L55.4216 13.5275L52.5289 30.1409C52.5181 30.1938 52.4972 30.2442 52.4672 30.2891L48.6944 35.6119L49.9582 40.5215L50.4634 40.8104L47.6778 55.0439C45.8547 63.5226 43.4389 74.9843 41.4482 85.2084L41.3707 85.6065L41.2884 86.0308C41.2093 86.4392 41.131 86.8454 41.0534 87.2492C41.0011 87.5215 40.9491 87.7925 40.8976 88.0624C40.8486 88.3186 40.8 88.5736 40.7518 88.8274L40.6654 89.2864C40.6145 89.5572 40.5642 89.8274 40.5146 90.097C40.4396 90.505 40.366 90.9116 40.2936 91.3168C40.245 91.5891 40.197 91.8608 40.1496 92.1317C40.0787 92.5376 40.0091 92.9419 39.9408 93.3446C39.8938 93.6222 39.8473 93.899 39.8016 94.1749C39.7338 94.5837 39.6674 94.9906 39.6023 95.3956C39.5572 95.6761 39.5128 95.9557 39.469 96.2343C39.4057 96.6375 39.3437 97.0386 39.283 97.4376C39.2408 97.7148 39.1992 97.9909 39.1583 98.266C39.0988 98.6666 39.0406 99.065 38.9836 99.461C38.9433 99.7404 38.9037 100.019 38.8649 100.295C38.811 100.679 38.7583 101.061 38.7067 101.44C38.688 101.578 38.6695 101.715 38.6511 101.852C38.6299 102.009 38.6089 102.166 38.5883 102.322C37.3603 111.592 36.8467 119.289 36.6354 123.678L51.621 56.3608L54.7594 42.2621L54.9044 41.6108C54.9245 41.5205 54.9782 41.4412 55.0546 41.389C55.131 41.3368 55.2244 41.3157 55.3158 41.3298L55.4316 41.3475L56.0938 38.3297L56.8059 38.485L56.1551 41.451C57.6998 41.6582 59.5356 41.8188 61.5537 41.8301L61.6233 39.0431L62.3519 39.0563L62.2828 41.8275C63.9848 41.8062 65.8023 41.6746 67.6738 41.3749L67.1881 38.676L67.9056 38.547L68.3923 41.2512C68.76 41.1846 69.1292 41.1109 69.5 41.03C69.6185 41.0042 69.737 40.9776 69.8557 40.9504C69.9738 40.9232 70.092 40.8949 70.2103 40.8663C71.369 40.5889 72.509 40.2414 73.6241 39.8259L72.5745 37.2261L73.2529 36.9595L74.3039 39.563C74.7836 39.3705 75.2582 39.1654 75.7275 38.9477C75.8707 38.8807 76.0137 38.8124 76.1566 38.7427C76.3007 38.6722 76.4447 38.6004 76.5884 38.527C76.7673 38.4358 77.569 37.9549 78.2394 37.5528C78.5784 37.3495 78.8838 37.1663 79.0583 37.0637L77.5713 34.7473L78.1845 34.3535L79.6775 36.6792C80.2559 36.2785 80.8255 35.8476 81.3861 35.3862C82.2467 34.678 83.0432 33.9482 83.7838 33.2051L81.9876 31.3418L82.5122 30.8359L84.2928 32.683C85.5232 31.3918 86.6457 30.002 87.6489 28.5273L85.6593 27.1445L86.0754 26.546L88.0525 27.9201C89.0173 26.4304 89.8631 24.8668 90.5819 23.2439L88.4443 22.3122L88.7355 21.644L90.8703 22.5744C91.3694 21.3824 91.8012 20.1633 92.1636 18.9228C92.3028 18.4458 92.4268 17.9811 92.5387 17.5293L90.2282 17.0257L90.3834 16.3135L92.7068 16.82C92.8666 16.1125 92.995 15.4437 93.0976 14.8236C93.1247 14.6599 93.1497 14.5002 93.1733 14.3434C93.1989 14.1736 93.2231 14.007 93.2449 13.8457C93.306 13.3952 93.3527 12.98 93.3888 12.6026C93.4222 12.2532 93.4464 11.9373 93.4638 11.6584C93.4967 11.1272 93.5051 10.731 93.5068 10.4953L93.5068 10.4749V10.4718V10.4688C93.5069 10.4331 93.5069 10.4006 93.5068 10.3736C93.3752 10.2346 93.2335 10.1056 93.0828 9.98763C92.8232 9.7787 92.5292 9.61658 92.214 9.50854C91.9429 9.41603 91.6525 9.39473 91.3708 9.44667C91.1351 9.49743 90.9079 9.5822 90.6966 9.69834C90.5812 9.75991 90.469 9.82728 90.3605 9.90019C89.7828 10.3198 89.2506 10.7987 88.7727 11.3292C88.605 11.5037 88.4556 11.6588 88.3201 11.7879C88.2826 11.8237 88.2457 11.8583 88.2103 11.8898C87.7698 12.253 87.2409 12.493 86.6775 12.5855L86.6686 12.5873L86.6595 12.5892L86.6595 12.5939C86.6644 12.8509 86.6616 13.2437 86.6308 13.7431C86.6161 13.9811 86.5954 14.2415 86.5654 14.5266C86.5264 14.8961 86.4718 15.3039 86.3978 15.7426C86.3532 16.0068 86.3003 16.2834 86.2401 16.5695C86.1551 16.9734 86.0549 17.3956 85.9332 17.8371C85.8921 17.9864 85.8479 18.1383 85.802 18.2914C85.76 18.432 85.7145 18.5749 85.6683 18.7184L85.662 18.7381L85.6578 18.7513L85.6422 18.801C85.6295 18.8417 85.6167 18.8824 85.6029 18.9239C84.4546 22.3705 81.8079 27.2651 75.7207 31.0098C75.3656 31.2282 75.0102 31.4317 74.6549 31.6267L74.5999 31.6569C74.5108 31.7059 74.4216 31.7549 74.3325 31.8021C74.2402 31.851 74.1479 31.898 74.0556 31.945L74.0052 31.9707C72.311 32.8371 70.5191 33.4971 68.6677 33.9366C68.5688 33.9601 68.4701 33.9818 68.3717 34.0035L68.3122 34.0166L68.2211 34.0369C68.1326 34.0567 68.0442 34.0764 67.9561 34.0945C63.7803 34.9516 59.922 34.5901 56.9844 33.9549C56.9374 33.9447 56.8929 33.9254 56.8535 33.898C56.814 33.8705 56.7804 33.8356 56.7545 33.7951C56.7286 33.7547 56.7109 33.7095 56.7025 33.6622C56.6942 33.6149 56.6952 33.5664 56.7057 33.5195L59.751 19.839C59.7565 19.8211 59.7634 19.8036 59.7717 19.7868C59.7937 19.7238 59.8334 19.6685 59.8861 19.6275C59.9388 19.5865 60.0022 19.5616 60.0687 19.5557L65.8611 18.9471L67.6542 13.6427C67.6677 13.6033 67.6879 13.5665 67.7138 13.534L67.7148 13.5326L67.7156 13.5313C67.7163 13.5302 67.7169 13.5292 67.7177 13.5283C68.4803 12.5997 68.9745 11.4804 69.1468 10.2913C69.165 10.1655 69.1788 10.0386 69.1899 9.91108L69.1909 9.89987L69.1917 9.89086L69.1936 9.87031L69.1945 9.86158C69.1964 9.84125 69.1983 9.82088 69.1997 9.80045C69.2091 9.66586 69.2131 9.53218 69.2144 9.39901C69.2278 7.71567 68.5994 6.09046 67.457 4.85403C66.3146 3.6176 64.7441 2.86283 63.0649 2.74328C62.9567 2.73569 62.849 2.73117 62.7417 2.72883C62.7225 2.72841 62.7035 2.72845 62.6845 2.7285L62.6518 2.7285C62.6142 2.72821 62.5765 2.72866 62.539 2.72911L62.5202 2.72934C61.4149 2.74302 60.3308 3.03364 59.3669 3.57459C58.403 4.11555 57.5901 4.88957 57.0026 5.82585C56.4152 6.76213 56.0719 7.83077 56.0042 8.93401C55.9364 10.0373 56.1464 11.1399 56.6149 12.141C56.6486 12.2128 56.6579 12.2937 56.6415 12.3713ZM62.9504 12.9306C62.109 12.9846 61.2738 12.7553 60.5779 12.2793C60.0716 11.933 59.6574 11.4684 59.3711 10.9259C59.0848 10.3834 58.935 9.77931 58.9348 9.1659C58.9345 8.32277 59.2165 7.50382 59.736 6.83968C60.2554 6.17554 60.9822 5.70448 61.8006 5.50162C62.619 5.29877 63.4817 5.3758 64.2512 5.72045C65.0207 6.0651 65.6525 6.6575 66.0461 7.40317C66.4396 8.14883 66.5721 9.0048 66.4224 9.83454C66.2727 10.6643 65.8495 11.42 65.2202 11.9811C64.5909 12.5423 63.7918 12.8765 62.9504 12.9306Z" fill="#247A6B"/>
<path d="M74.8619 42.4695C74.8494 42.4134 74.8504 42.3552 74.8648 42.2996L75.4944 39.8534C73.8408 40.5801 72.1254 41.1574 70.3688 41.5782L71.7804 47.9193L75.4585 64.4421L88.6451 123.679C88.0569 111.982 86.6816 100.339 84.5286 88.8274C84.3415 87.8425 84.1496 86.8432 83.9529 85.8294L83.8722 85.4134L83.8055 85.0708C83.7422 84.7459 83.6785 84.4199 83.6144 84.0927L83.4769 83.3928C83.4095 83.05 83.3416 82.7061 83.2734 82.3612L83.1342 81.6587C83.0657 81.3136 82.9969 80.9677 82.9278 80.6212L82.7896 79.9297C82.7206 79.5848 82.6514 79.2395 82.5819 78.8937L82.4434 78.2055C82.3742 77.8623 82.3048 77.519 82.2353 77.1754L82.0955 76.4855C82.0262 76.1442 81.9568 75.803 81.8873 75.4617L81.8125 75.0947L81.7451 74.7647C81.675 74.4212 81.6047 74.0779 81.5344 73.7349L81.3908 73.035C81.3213 72.6968 81.2518 72.359 81.1823 72.0217L81.1136 71.6887L81.0606 71.4318L81.0392 71.3278C80.6838 69.6071 80.329 67.9033 79.9794 66.2347L76.3926 49.4478C75.473 45.2206 74.8804 42.5528 74.8619 42.4695Z" fill="#247A6B"/>
<path d="M65.4773 19.7203C65.5017 19.7564 65.5194 19.7966 65.5294 19.839L68.5091 33.2238C70.2661 32.8067 71.968 32.1846 73.5798 31.3704L72.8134 30.2891C72.7821 30.2449 72.761 30.1942 72.7516 30.1409L69.8597 13.5319L69.8589 13.5275L69.0594 12.8337C69.0038 12.9356 68.9458 13.0363 68.8854 13.1358C68.7161 13.4155 68.5285 13.6836 68.3237 13.9383L66.4768 19.4018C66.4545 19.4679 66.4137 19.5261 66.3593 19.5697C66.3048 19.6133 66.239 19.6403 66.1697 19.6476L65.4773 19.7203Z" fill="#247A6B"/>
<path d="M62.6518 2.7285C62.6142 2.72821 62.5765 2.72866 62.539 2.72911L62.5202 2.72934C61.4149 2.74302 60.3308 3.03364 59.3669 3.57459C58.403 4.11555 57.5901 4.88957 57.0026 5.82585C56.4152 6.76213 56.0719 7.83077 56.0042 8.93401C55.9364 10.0373 56.1464 11.1399 56.6149 12.141C56.6486 12.2128 56.6579 12.2937 56.6415 12.3713C56.6251 12.449 56.5837 12.5191 56.5238 12.5711L55.4216 13.5275L52.5289 30.1409C52.5181 30.1938 52.4972 30.2442 52.4672 30.2891L48.6944 35.6119L49.9582 40.5215L50.4634 40.8104L47.6778 55.0439C45.8547 63.5226 43.4389 74.9843 41.4482 85.2084L41.3707 85.6065M62.6518 2.7285C62.6627 2.72856 62.6736 2.72853 62.6845 2.7285M62.6518 2.7285L62.6845 2.7285M62.6845 2.7285C62.7035 2.72845 62.7225 2.72841 62.7417 2.72883C62.849 2.73117 62.9567 2.73569 63.0649 2.74328C64.7441 2.86283 66.3146 3.6176 67.457 4.85403C68.5994 6.09046 69.2278 7.71567 69.2144 9.39901C69.2131 9.53218 69.2091 9.66586 69.1997 9.80045C69.1983 9.82088 69.1964 9.84125 69.1945 9.86158M69.1936 9.87031C69.193 9.87716 69.1923 9.88401 69.1917 9.89086M69.1936 9.87031L69.1917 9.89086M69.1936 9.87031C69.1939 9.86742 69.1942 9.86448 69.1945 9.86158M69.1936 9.87031L69.1945 9.86158M69.1899 9.91108C69.1788 10.0386 69.165 10.1655 69.1468 10.2913C68.9745 11.4804 68.4803 12.5997 67.7177 13.5283C67.7169 13.5292 67.7163 13.5302 67.7156 13.5313L67.7148 13.5326L67.7138 13.534C67.6879 13.5665 67.6677 13.6033 67.6542 13.6427L65.8611 18.9471L60.0687 19.5557C60.0022 19.5616 59.9388 19.5865 59.8861 19.6275C59.8334 19.6685 59.7937 19.7238 59.7717 19.7868C59.7634 19.8036 59.7565 19.8211 59.751 19.839L56.7057 33.5195C56.6952 33.5664 56.6942 33.6149 56.7025 33.6622C56.7109 33.7095 56.7286 33.7547 56.7545 33.7951C56.7804 33.8356 56.814 33.8705 56.8535 33.898C56.8929 33.9254 56.9374 33.9447 56.9844 33.9549C59.922 34.5901 63.7803 34.9516 67.9561 34.0945C68.0442 34.0764 68.1326 34.0567 68.2211 34.0369M69.1899 9.91108C69.1902 9.90734 69.1905 9.90361 69.1909 9.89987M69.1899 9.91108L69.1909 9.89987M68.2211 34.0369C68.2515 34.0301 68.2819 34.0234 68.3122 34.0166M68.2211 34.0369L68.3122 34.0166M68.3122 34.0166L68.3717 34.0035C68.4701 33.9818 68.5688 33.9601 68.6677 33.9366C70.5191 33.4971 72.311 32.8371 74.0052 31.9707L74.0556 31.945C74.1479 31.898 74.2402 31.851 74.3325 31.8021C74.4216 31.7549 74.5108 31.7059 74.5999 31.6569L74.6549 31.6267C75.0102 31.4317 75.3656 31.2282 75.7207 31.0098C81.8079 27.2651 84.4546 22.3705 85.6029 18.9239C85.6167 18.8824 85.6295 18.8417 85.6422 18.801M85.6422 18.801C85.6473 18.7845 85.6526 18.7678 85.6578 18.7513M85.6422 18.801L85.6578 18.7513M85.6683 18.7184C85.7145 18.5749 85.76 18.432 85.802 18.2914C85.8479 18.1383 85.8921 17.9864 85.9332 17.8371C86.0549 17.3956 86.1551 16.9734 86.2401 16.5695C86.3003 16.2834 86.3532 16.0068 86.3978 15.7426C86.4718 15.3039 86.5264 14.8961 86.5654 14.5266C86.5954 14.2415 86.6161 13.9811 86.6308 13.7431C86.6616 13.2437 86.6644 12.8509 86.6595 12.5939L86.6595 12.5892M85.6683 18.7184C85.6662 18.7249 85.6641 18.7315 85.662 18.7381M85.6683 18.7184L85.662 18.7381M86.6595 12.5892C86.6623 12.5887 86.6654 12.588 86.6686 12.5873M86.6595 12.5892L86.6686 12.5873M86.6775 12.5855C87.2409 12.493 87.7698 12.253 88.2103 11.8898C88.2457 11.8583 88.2826 11.8237 88.3201 11.7879C88.4556 11.6588 88.605 11.5037 88.7727 11.3292C89.2506 10.7987 89.7828 10.3198 90.3605 9.90019C90.469 9.82728 90.5812 9.75991 90.6966 9.69834C90.9079 9.5822 91.1351 9.49743 91.3708 9.44667C91.6525 9.39473 91.9429 9.41603 92.214 9.50854C92.5292 9.61658 92.8232 9.7787 93.0828 9.98763C93.2335 10.1056 93.3752 10.2346 93.5068 10.3736C93.5069 10.4006 93.5069 10.4331 93.5068 10.4688M86.6775 12.5855C86.6746 12.5861 86.6716 12.5867 86.6686 12.5873M86.6775 12.5855L86.6686 12.5873M93.5068 10.4953C93.5051 10.731 93.4967 11.1272 93.4638 11.6584C93.4464 11.9373 93.4222 12.2532 93.3888 12.6026C93.3527 12.98 93.306 13.3952 93.2449 13.8457C93.2231 14.007 93.1989 14.1736 93.1733 14.3434C93.1497 14.5002 93.1247 14.6599 93.0976 14.8236C92.995 15.4437 92.8666 16.1125 92.7068 16.82L90.3834 16.3135L90.2282 17.0257L92.5387 17.5293C92.4268 17.9811 92.3028 18.4458 92.1636 18.9228C91.8012 20.1633 91.3694 21.3824 90.8703 22.5744L88.7355 21.644L88.4443 22.3122L90.5819 23.2439C89.8631 24.8668 89.0173 26.4304 88.0525 27.9201L86.0754 26.546L85.6593 27.1445L87.6489 28.5273C86.6457 30.002 85.5232 31.3918 84.2928 32.683L82.5122 30.8359L81.9876 31.3418L83.7838 33.2051C83.0432 33.9482 82.2467 34.678 81.3861 35.3862C80.8255 35.8476 80.2559 36.2785 79.6775 36.6792L78.1845 34.3535L77.5713 34.7473L79.0583 37.0637C78.8838 37.1663 78.5784 37.3495 78.2394 37.5528C77.569 37.9549 76.7673 38.4358 76.5884 38.527C76.4447 38.6004 76.3007 38.6722 76.1566 38.7427C76.0137 38.8124 75.8707 38.8807 75.7275 38.9477C75.2582 39.1654 74.7836 39.3705 74.3039 39.563L73.2529 36.9595L72.5745 37.2261L73.6241 39.8259C72.509 40.2414 71.369 40.5889 70.2103 40.8663C70.092 40.8949 69.9738 40.9232 69.8557 40.9504C69.737 40.9776 69.6185 41.0042 69.5 41.03C69.1292 41.1109 68.76 41.1846 68.3923 41.2512L67.9056 38.547L67.1881 38.676L67.6738 41.3749C65.8023 41.6746 63.9848 41.8062 62.2828 41.8275L62.3519 39.0563L61.6233 39.0431L61.5537 41.8301C59.5356 41.8188 57.6998 41.6582 56.1551 41.451L56.8059 38.485L56.0938 38.3297L55.4316 41.3475M93.5068 10.4953L93.5068 10.4749M93.5068 10.4953C93.5068 10.4884 93.5068 10.4816 93.5068 10.4749M55.4316 41.3475C55.3928 41.3417 55.3542 41.3357 55.3158 41.3298M55.4316 41.3475L55.3158 41.3298M55.3158 41.3298C55.2244 41.3157 55.131 41.3368 55.0546 41.389C54.9782 41.4412 54.9245 41.5205 54.9044 41.6108L54.7594 42.2621L51.621 56.3608L36.6354 123.678C36.8467 119.289 37.3603 111.592 38.5883 102.322C38.6089 102.166 38.6299 102.009 38.6511 101.852C38.6695 101.715 38.688 101.578 38.7067 101.44C38.7583 101.061 38.811 100.679 38.8649 100.295C38.9037 100.019 38.9433 99.7404 38.9836 99.461C39.0406 99.065 39.0988 98.6666 39.1583 98.266C39.1992 97.9909 39.2408 97.7148 39.283 97.4376C39.3437 97.0386 39.4057 96.6375 39.469 96.2343C39.5128 95.9557 39.5572 95.6761 39.6023 95.3956C39.6674 94.9906 39.7338 94.5837 39.8016 94.1749C39.8473 93.899 39.8938 93.6222 39.9408 93.3446C40.0091 92.9419 40.0787 92.5376 40.1496 92.1317C40.197 91.8608 40.245 91.5891 40.2936 91.3168C40.366 90.9116 40.4396 90.505 40.5146 90.097C40.5642 89.8274 40.6145 89.5572 40.6654 89.2864M69.1917 9.89086C69.1914 9.89386 69.1911 9.89687 69.1909 9.89987M69.1917 9.89086L69.1909 9.89987M85.6578 18.7513L85.662 18.7381M85.6578 18.7513C85.6592 18.7469 85.6606 18.7425 85.662 18.7381M93.5068 10.4749V10.4718M93.5068 10.4749C93.5068 10.4739 93.5068 10.4729 93.5068 10.4718M40.6654 89.2864C40.6941 89.1335 40.7229 88.9805 40.7518 88.8274M40.6654 89.2864L40.7518 88.8274M40.7518 88.8274C40.8 88.5736 40.8486 88.3186 40.8976 88.0624C40.9491 87.7925 41.0011 87.5215 41.0534 87.2492C41.131 86.8454 41.2093 86.4392 41.2884 86.0308M41.2884 86.0308C41.3158 85.8896 41.3432 85.7482 41.3707 85.6065M41.2884 86.0308L41.3707 85.6065M40.0682 88.521L40.2476 87.5811C40.3254 87.1752 40.4039 86.767 40.4832 86.3564L40.6433 85.5294C42.6584 75.1507 45.1299 63.4251 46.9831 54.8073L47.1289 54.1299L49.6238 41.1308L49.6222 41.1303C49.5263 41.0943 49.4297 41.0581 49.3344 41.022L47.9464 35.6298C47.9332 35.5785 47.9313 35.525 47.9409 35.4729C47.9505 35.4208 47.9713 35.3714 48.002 35.3282L51.3176 30.6504L51.8621 29.7208L54.7258 13.2747C54.7401 13.1921 54.7826 13.117 54.8459 13.062L55.8422 12.1975C55.3738 11.0898 55.1849 9.88392 55.292 8.68603C55.399 7.48815 55.7989 6.33493 56.4562 5.32784C57.1136 4.32074 58.0084 3.49064 59.062 2.91054C60.1155 2.33044 61.2954 2.01814 62.4979 2.0011C62.5504 2.00043 62.6029 1.99975 62.6555 2.00009C62.6903 1.99998 62.7251 2.00009 62.7599 2.00043C64.6037 2.02043 66.3724 2.73392 67.7139 3.99892C69.0555 5.26391 69.8716 6.98765 69.9998 8.8271C70.0057 8.91134 70.0081 8.99582 70.0105 9.08009L70.0117 9.12201L69.985 9.99986C69.9551 10.3364 69.9021 10.6705 69.8263 10.9998L69.5878 11.8131C69.5415 11.9425 69.492 12.0708 69.4384 12.1975L70.0564 12.7338L70.5578 13.2916L73.4555 29.9347L74.2309 31.0287C74.6003 30.8277 74.9698 30.6159 75.3388 30.3889C81.0144 26.8974 83.5992 22.3851 84.7746 19.0886L85.0667 18.2041C85.2014 17.7633 85.3155 17.3369 85.4119 16.9284L85.5901 16.0972C85.6739 15.6612 85.7382 15.2518 85.7864 14.8758L85.8706 14.0872C85.9106 13.6176 85.9257 13.2252 85.9294 12.9297L85.9328 12.1719C85.9529 12.0988 85.9955 12.0339 86.0546 11.9864C86.1138 11.939 86.1864 11.9114 86.2621 11.9076C86.3823 11.8972 86.5017 11.8792 86.6196 11.8538C87.0188 11.6664 87.4066 11.4791 87.7832 11.2919C87.9145 11.1695 88.0695 11.009 88.2472 10.8241C88.9985 10.042 90.0276 8.9707 91.2284 8.7318C91.5309 8.6725 91.8421 8.67399 92.144 8.73619L92.8989 9.00423C93.1611 9.13993 93.4075 9.304 93.6338 9.49351L94.1101 9.95304C94.1266 9.97181 94.1387 9.98613 94.1458 9.99471L94.1517 10.0018C94.2024 10.0638 94.2313 10.1409 94.2337 10.2209C94.2349 10.2571 94.2408 10.4877 94.2309 10.8806L94.1809 11.9151C94.1572 12.2595 94.1237 12.65 94.0765 13.0832L93.9423 14.1508C93.7007 15.8329 93.3401 17.4958 92.8631 19.1269C91.5048 23.7841 88.4913 30.4831 81.8491 35.9491C80.1629 37.3354 78.3161 38.5139 76.3485 39.4592L75.5924 42.3967C75.7058 42.908 76.3103 45.6368 77.1976 49.7197L77.368 50.5042L80.6245 65.7598L80.7963 66.5796C81.1031 68.046 81.4135 69.5376 81.7245 71.0429L81.9881 72.3207M40.0682 88.521L40.0513 88.6096M40.0682 88.521C40.0626 88.5505 40.0569 88.5801 40.0513 88.6096M81.0606 71.4318L81.0392 71.3278C80.6838 69.6071 80.329 67.9033 79.9794 66.2347L76.3926 49.4478C75.473 45.2206 74.8804 42.5528 74.8619 42.4695C74.8494 42.4134 74.8504 42.3552 74.8648 42.2996L75.4944 39.8534C73.8408 40.5801 72.1254 41.1574 70.3688 41.5782L71.7804 47.9193L75.4585 64.4421L88.6451 123.679C88.0569 111.982 86.6816 100.339 84.5286 88.8274C84.3415 87.8425 84.1496 86.8432 83.9529 85.8294M81.0606 71.4318C81.0783 71.5174 81.096 71.603 81.1136 71.6887M81.0606 71.4318L81.1136 71.6887M81.1136 71.6887C81.1365 71.7996 81.1594 71.9106 81.1823 72.0217M81.1136 71.6887L81.1823 72.0217M81.1823 72.0217C81.2518 72.359 81.3213 72.6968 81.3908 73.035M81.3908 73.035C81.4387 73.2682 81.4866 73.5015 81.5344 73.7349M81.3908 73.035L81.5344 73.7349M81.5344 73.7349C81.6047 74.0779 81.675 74.4212 81.7451 74.7647L81.8125 75.0947M81.8125 75.0947C81.8374 75.217 81.8624 75.3394 81.8873 75.4617M81.8125 75.0947L81.8873 75.4617M81.8873 75.4617C81.9568 75.803 82.0262 76.1442 82.0955 76.4855L82.2353 77.1754C82.3048 77.519 82.3742 77.8623 82.4434 78.2055M82.4434 78.2055C82.4896 78.435 82.5358 78.6644 82.5819 78.8937M82.4434 78.2055L82.5819 78.8937M82.5819 78.8937C82.6514 79.2395 82.7206 79.5848 82.7896 79.9297M82.7896 79.9297C82.8358 80.1604 82.8819 80.3909 82.9278 80.6212M82.7896 79.9297L82.9278 80.6212M82.9278 80.6212C82.9969 80.9677 83.0657 81.3136 83.1342 81.6587M83.1342 81.6587C83.1808 81.8933 83.2272 82.1275 83.2734 82.3612M83.1342 81.6587L83.2734 82.3612M83.2734 82.3612C83.3416 82.7061 83.4095 83.05 83.4769 83.3928M83.4769 83.3928C83.5229 83.6266 83.5687 83.8599 83.6144 84.0927M83.4769 83.3928L83.6144 84.0927M83.6144 84.0927C83.6785 84.4199 83.7422 84.7459 83.8055 85.0708L83.8722 85.4134M83.9529 85.8294C83.9261 85.691 83.8992 85.5523 83.8722 85.4134M83.9529 85.8294L83.8722 85.4134M81.9881 72.3207L82.0442 72.5934M81.9881 72.3207C82.0068 72.4116 82.0255 72.5025 82.0442 72.5934M82.0766 72.7512L82.2206 73.4527C82.291 73.7959 82.3613 74.1394 82.4315 74.4832L82.5739 75.1814C82.5989 75.3037 82.6238 75.426 82.6487 75.5484C82.6933 75.7676 82.7379 75.9869 82.7824 76.2062L82.9224 76.8963C82.992 77.2403 83.0615 77.5841 83.1308 77.9277L83.2695 78.616C83.3391 78.9623 83.4085 79.3082 83.4777 79.6536L83.6161 80.3459C83.6853 80.6928 83.7543 81.039 83.8229 81.3846L83.9625 82.0888C84.0308 82.4338 84.0987 82.7778 84.1662 83.1208L84.304 83.8221C84.3686 84.1516 84.4328 84.4798 84.4966 84.8069L84.6432 85.5607C84.8487 86.6197 85.0498 87.6654 85.2447 88.6914C89.2312 109.68 89.5145 127.453 89.5171 127.631C89.5183 127.721 89.486 127.808 89.4265 127.876C89.367 127.944 89.2845 127.987 89.195 127.997C89.1877 127.998 89.1804 127.999 89.1731 127.999C89.1708 128 89.1686 128 89.1664 128C89.1617 128 89.1569 128 89.1522 128C89.0694 128 88.989 127.972 88.9244 127.92C88.8598 127.868 88.8148 127.796 88.7969 127.715L74.4654 63.3354L71.1488 48.4364L69.6583 41.741C64.2072 42.9295 59.0407 42.613 55.542 42.101L55.3017 43.1804L52.4669 55.915L36.4836 127.715C36.4657 127.796 36.4207 127.868 36.3561 127.92C36.2915 127.972 36.2111 128 36.1283 128C36.1225 128 36.1168 128 36.111 128C36.1026 127.999 36.0941 127.999 36.0857 127.997C35.9961 127.987 35.9136 127.944 35.854 127.876C35.7945 127.808 35.7623 127.721 35.7635 127.631C35.7653 127.495 35.9319 117.045 37.7989 102.735L37.9151 101.855C37.9667 101.472 38.0194 101.085 38.0732 100.697L38.1911 99.8554C38.2475 99.4581 38.3052 99.0584 38.3642 98.6564L38.4881 97.8213C38.5481 97.4211 38.6094 97.0187 38.6722 96.6141L38.805 95.7674C38.8692 95.3612 38.9349 94.9529 39.0021 94.5425L39.1408 93.7064C39.2084 93.3019 39.2774 92.8957 39.3479 92.4877L39.4907 91.6687C39.5627 91.2616 39.636 90.8531 39.7105 90.4433L39.8599 89.6287C39.9176 89.317 39.9762 89.0046 40.0357 88.6914C40.0409 88.6642 40.0461 88.6369 40.0513 88.6096M82.0766 72.7512L82.0442 72.5934M82.0766 72.7512C82.0658 72.6986 82.055 72.646 82.0442 72.5934M93.5068 10.4718V10.4688M93.5068 10.4718C93.5068 10.4708 93.5068 10.4698 93.5068 10.4688M64.9538 20.6079L64.0852 20.1703L62.6402 20.0184L60.6226 20.2304L60.3938 20.3059L57.4973 33.3177C60.8917 34.0282 64.3943 34.0495 67.7971 33.3804L64.9538 20.6079ZM65.4773 19.7203C65.5017 19.7564 65.5194 19.7966 65.5294 19.839L68.5091 33.2238C70.2661 32.8067 71.968 32.1846 73.5798 31.3704L72.8134 30.2891C72.7821 30.2449 72.761 30.1942 72.7516 30.1409L69.8597 13.5319L69.8589 13.5275L69.0594 12.8337C69.0038 12.9356 68.9458 13.0363 68.8854 13.1358C68.7161 13.4155 68.5285 13.6836 68.3237 13.9383L66.4768 19.4018C66.4545 19.4679 66.4137 19.5261 66.3593 19.5697C66.3048 19.6133 66.239 19.6403 66.1697 19.6476L65.4773 19.7203ZM60.5779 12.2793C61.2738 12.7553 62.109 12.9846 62.9504 12.9306C63.7918 12.8765 64.5909 12.5423 65.2202 11.9811C65.8495 11.42 66.2727 10.6643 66.4224 9.83454C66.5721 9.0048 66.4396 8.14883 66.0461 7.40317C65.6525 6.6575 65.0207 6.0651 64.2512 5.72045C63.4817 5.3758 62.619 5.29877 61.8006 5.50162C60.9822 5.70448 60.2554 6.17554 59.736 6.83968C59.2165 7.50382 58.9345 8.32277 58.9348 9.1659C58.935 9.77931 59.0848 10.3834 59.3711 10.9259C59.6574 11.4684 60.0716 11.933 60.5779 12.2793ZM62.7099 6.11967C63.3124 6.1197 63.9013 6.29838 64.4022 6.6331C64.9031 6.96782 65.2935 7.44355 65.524 8.00015C65.7546 8.55674 65.8149 9.16919 65.6973 9.76006C65.5798 10.3509 65.2897 10.8937 64.8637 11.3197C64.4377 11.7457 63.8949 12.0358 63.3041 12.1533C62.7132 12.2708 62.1008 12.2105 61.5442 11.98C60.9876 11.7495 60.5118 11.3591 60.1771 10.8582C59.8424 10.3573 59.6637 9.76834 59.6637 9.1659C59.6646 8.35827 59.9858 7.58397 60.5569 7.01289C61.128 6.44181 61.9023 6.12058 62.7099 6.11967Z" stroke="#247A6B" stroke-width="2"/>
</svg>
