<svg width="130" height="130" viewBox="0 0 130 130" fill="none" xmlns="http://www.w3.org/2000/svg">
<rect width="130" height="130" fill="white"/>
<path fill-rule="evenodd" clip-rule="evenodd" d="M99.5316 20.6911C99.5316 21.8089 99.0569 22.8355 97.5682 24.0205C96.0794 25.2055 91.7513 27.7392 87.7458 29.3109C83.9116 30.8783 79.3619 32.4746 74.4338 34.1274L51.8998 41.6983C46.9547 43.4736 42.3314 45.2953 38.5475 47.1463C39.6348 47.7094 40.8179 48.2806 42.0966 48.8599C44.406 49.9061 46.9132 50.9301 49.5499 51.9359L50.4434 52.2743C52.1152 52.9026 53.835 53.5239 55.5874 54.1391L56.3297 54.3987C60.7776 55.948 65.4156 57.459 69.9818 58.9464C70.984 59.2725 71.977 59.5964 72.9608 59.9179L73.8237 60.2003C75.5101 60.7528 77.1626 61.2986 78.7653 61.8379L79.6278 62.1292C83.6699 63.4995 87.3673 64.8282 90.4466 66.1203C96.7297 68.7568 99.5316 70.8447 99.5316 72.8903V92.5427C99.5316 94.1568 97.7854 95.7974 93.9629 97.7128C91.893 98.7594 89.7709 99.6995 87.605 100.529L82.4295 102.453C78.3272 103.908 73.7411 105.409 68.9643 106.971C59.8223 109.961 50.0899 113.145 42.5099 116.48L37.4158 118.93C36.2962 119.528 35.2631 120.13 34.3326 120.737C30.7187 123.148 28.9411 125.428 28.9411 127.631C28.9412 127.679 28.9318 127.727 28.9133 127.772C28.8948 127.817 28.8677 127.857 28.8334 127.892C28.7992 127.926 28.7585 127.953 28.7138 127.972C28.669 127.99 28.621 128 28.5725 128C28.5241 128 28.4761 127.99 28.4313 127.972C28.3865 127.953 28.3459 127.926 28.3116 127.892C28.2774 127.857 28.2503 127.817 28.2318 127.772C28.2133 127.727 28.2039 127.679 28.204 127.631V109.308C28.204 106.354 33.066 103.479 40.4634 100.496L46.5818 98.1881C50.9044 96.6438 55.724 95.0595 60.7412 93.4104C66.8578 91.4 73.2541 89.2976 79.0192 87.1332L84.478 84.975C86.1527 84.2726 87.7324 83.5649 89.188 82.8529C88.1007 82.2898 86.9176 81.7185 85.6388 81.1392C84.937 80.8219 84.2185 80.5065 83.4834 80.193L82.6082 79.8235C81.0552 79.1754 79.435 78.5355 77.7645 77.9028L76.8913 77.5744C70.868 75.3249 64.2382 73.165 57.7536 71.0527C56.1357 70.5257 54.5371 70.0049 52.9702 69.4899L52.2248 69.2445C50.7837 68.7693 49.3717 68.299 48.0001 67.8336L47.2559 67.5801C43.5459 66.312 40.1506 65.0796 37.2889 63.8788C31.0059 61.2424 28.204 59.1544 28.204 57.1089V37.4565C28.204 35.8424 29.9502 34.2018 33.7726 32.2864C38.7513 29.699 46.5994 27.0233 55.3665 24.1437L71.9287 18.6327C80.4871 15.651 88.4119 12.5155 93.403 9.26253C97.0169 6.85113 98.7944 4.57125 98.7944 2.36857C98.7944 2.27082 98.8333 2.17707 98.9024 2.10795C98.9715 2.03883 99.0653 2 99.163 2C99.2608 2 99.3545 2.03883 99.4236 2.10795C99.4927 2.17707 99.5316 2.27082 99.5316 2.36857V20.6911ZM90.1613 66.8L90.162 66.8003C92.2979 67.6966 98.7944 70.4228 98.7944 72.8903V89.5404C98.6956 89.3614 98.5867 89.1821 98.4677 89.0025C98.3548 88.8317 98.232 88.6606 98.1009 88.4891C97.9578 88.3021 97.804 88.1147 97.6395 87.9268C97.4553 87.7167 97.2573 87.506 97.0457 87.2947C96.8817 87.1309 96.7097 86.9667 96.5297 86.8022C96.2925 86.5859 96.0408 86.369 95.7745 86.1515C95.5854 85.9966 95.3902 85.8415 95.1867 85.686C94.9061 85.4716 94.6115 85.2566 94.3029 85.0408C94.0838 84.8875 93.8579 84.7338 93.6251 84.5797C93.306 84.3687 92.974 84.1571 92.629 83.9448C92.3864 83.7956 92.136 83.6461 91.8805 83.4962C91.5287 83.29 91.1649 83.0831 90.7889 82.8755C90.6269 82.7861 90.4625 82.6966 90.2957 82.607C90.1976 82.5542 90.0988 82.5014 89.9993 82.4486C88.7681 81.7956 87.4161 81.1353 85.943 80.4678C85.0877 80.0803 84.2065 79.6959 83.2994 79.3147C83.2594 79.2978 83.2195 79.281 83.1795 79.2641L83.1013 79.2311C83.0222 79.1977 82.943 79.1643 82.8632 79.1311C82.7587 79.0875 82.6534 79.0441 82.548 79.0007L82.4655 78.9667L82.425 78.95C80.866 78.3065 79.2436 77.6711 77.5731 77.043L77.4556 76.9989C77.3495 76.9589 77.2434 76.919 77.1366 76.8791C77.0646 76.8522 76.9923 76.8254 76.9199 76.7985L76.7005 76.7172C70.7834 74.5224 64.3139 72.4145 57.9819 70.3518C56.3408 69.8173 54.7194 69.289 53.1312 68.7669C53.0067 68.7259 52.8825 68.685 52.7585 68.6442L52.3858 68.5214C50.9423 68.0453 49.5287 67.5742 48.1562 67.1081C48.053 67.073 47.9505 67.0381 47.8479 67.0031L47.783 66.981C47.6591 66.9388 47.5354 66.8965 47.412 66.8544C43.7482 65.601 40.3968 64.3835 37.5742 63.1991C35.4389 62.3031 28.9411 59.5766 28.9411 57.1089V40.4587C29.04 40.6377 29.1489 40.8171 29.2678 40.9967C29.3808 41.1675 29.5036 41.3386 29.6347 41.51C29.7778 41.6971 29.9316 41.8845 30.0961 42.0723C30.2804 42.2825 30.4783 42.4932 30.6899 42.7044C30.8539 42.8683 31.026 43.0325 31.206 43.197C31.4431 43.4133 31.6948 43.6302 31.9611 43.8477C32.1502 44.0025 32.3454 44.1577 32.549 44.3132C32.8295 44.5276 33.1241 44.7426 33.4327 44.9583C33.6518 45.1117 33.8777 45.2654 34.1105 45.4194C34.4296 45.6304 34.7617 45.842 35.1066 46.0543C35.3492 46.2035 35.5996 46.3531 35.8552 46.5029C36.2069 46.7092 36.5707 46.9161 36.9467 47.1237C37.1087 47.213 37.2731 47.3025 37.4399 47.3922C37.538 47.4449 37.6368 47.4977 37.7364 47.5506C38.9675 48.2035 40.3195 48.8638 41.7925 49.5313C44.259 50.6487 46.9462 51.7402 49.775 52.8105C49.8779 52.8494 49.9815 52.8882 50.085 52.9271L50.3609 53.0307C50.463 53.0691 50.565 53.1075 50.6678 53.1458C52.2186 53.7243 53.8093 54.2965 55.4262 54.8636C55.5498 54.907 55.6735 54.9503 55.7973 54.9936C55.9208 55.0368 56.0445 55.0799 56.1684 55.123C60.598 56.6646 65.2112 58.1676 69.7536 59.6473C70.8958 60.0193 72.027 60.3884 73.147 60.7543C73.2911 60.8015 73.435 60.8486 73.5786 60.8956L74.01 61.037C75.6971 61.5905 77.3485 62.1372 78.9477 62.6772C79.0922 62.726 79.2363 62.7747 79.3798 62.8234C79.5239 62.8722 79.6674 62.921 79.8103 62.9697C83.6744 64.2848 87.2076 65.5606 90.1613 66.8ZM92.7848 97.4756C91.7246 97.9769 90.7673 98.3787 90.1615 98.633C89.3039 98.9928 88.397 99.3558 87.4479 99.7218L82.245 101.624C78.4022 102.968 74.1475 104.354 69.7536 105.786C60.2843 108.87 50.5065 112.056 42.7319 115.483L37.5403 117.988C36.7108 118.432 35.9366 118.873 35.2177 119.311C32.2342 121.09 30.0432 122.92 28.9618 124.815C29.243 122.079 32.6187 119.378 37.7097 116.747L43.0003 114.277C50.2609 111.169 59.3752 108.178 67.9544 105.364C72.9501 103.725 77.7441 102.152 82.022 100.622L87.2416 98.6667C92.9457 96.4058 97.1581 94.223 98.7884 92.0421C98.7904 92.0937 98.7945 92.1453 98.7945 92.1968V92.3655C98.7945 93.9504 96.481 95.6752 92.7848 97.4756ZM40.0394 102.694C39.5873 102.883 39.144 103.071 38.7096 103.26C33.4709 105.539 30.2802 107.564 28.9411 109.487V109.308C28.9411 106.817 33.5764 104.131 40.2918 101.382L46.3895 99.0518C50.9483 97.4053 55.9864 95.7492 60.9714 94.1107C67.2132 92.0591 73.524 89.9845 79.1825 87.8668L84.6317 85.7194C86.5593 84.9134 88.3604 84.1003 89.9979 83.2793C90.3865 83.488 90.7616 83.6957 91.1234 83.9023C89.2714 84.8759 87.1555 85.8447 84.8552 86.8053L79.4225 88.9449C73.839 91.0338 67.6549 93.0704 61.7391 95.0185C56.2011 96.8423 50.8608 98.6011 46.1025 100.341L40.0394 102.694ZM38.8535 109.257C33.9891 111.489 30.4123 113.744 28.9432 116.07C28.9861 113.403 33.0164 110.681 39.0754 107.951L44.9492 105.522C50.6829 103.314 57.3637 101.11 63.9598 98.9343C69.7073 97.0384 75.3541 95.1756 80.3966 93.3207L85.7613 91.2464C89.5475 89.695 92.777 88.1425 95.155 86.5741C95.4378 86.8 95.7041 87.0248 95.954 87.2485C93.6813 88.931 90.1857 90.6376 85.9846 92.3514L80.6391 94.4102C75.6844 96.2272 70.1741 98.0444 64.7237 99.8418C57.5782 102.198 50.5849 104.505 44.6611 106.816L38.8535 109.257ZM38.4938 111.465C33.3978 113.883 30.273 116.096 28.9469 118.247C29.0607 115.822 32.2587 113.167 38.705 110.153L44.4651 107.697C50.5791 105.283 57.8628 102.88 64.9546 100.542C70.4919 98.7158 75.9329 96.9213 80.8014 95.1392L86.1332 93.0889C90.5032 91.3084 94.1119 89.533 96.4787 87.7435C96.7119 87.9737 96.9274 88.2029 97.1252 88.431C95.0487 90.3117 91.1802 92.2466 86.3563 94.2006L81.0448 96.2326C76.2674 97.9741 70.9656 99.721 65.7205 101.449C58.2559 103.908 50.5835 106.436 44.1738 109.005L38.4938 111.465ZM38.1542 113.666C33.6726 115.87 30.3562 118.132 28.9498 120.47C29.1078 117.776 32.8127 115.052 38.3514 112.372L43.9756 109.896C50.5553 107.222 58.4679 104.614 65.951 102.149C71.341 100.373 76.5446 98.659 81.2076 96.9637L86.5046 94.9422C87.3697 94.5927 88.2046 94.2432 89.0094 93.8937C93.0571 92.1318 95.8828 90.5217 97.5794 88.9934C97.7394 89.2074 97.8884 89.4295 98.0257 89.6587C96.3726 91.7096 92.1792 93.8636 86.7262 96.0551L81.4513 98.0584C76.8522 99.7236 71.7592 101.399 66.7202 103.056C58.6344 105.715 50.4324 108.413 43.6869 111.192L38.1542 113.666ZM37.836 115.845C33.5148 118.039 30.3277 120.298 28.9538 122.647C29.1752 119.929 32.7102 117.216 38.0215 114.56L43.4888 112.082C50.4161 109.195 58.9239 106.396 66.9505 103.756C72.1633 102.042 77.1637 100.397 81.6152 98.795L86.8757 96.8096C92.3504 94.6228 96.4884 92.496 98.3855 90.3557C98.4702 90.5477 98.5433 90.7446 98.6043 90.9455C97.6511 93.1287 93.1813 95.49 87.094 97.9153L81.8585 99.8876C77.4391 101.476 72.5562 103.078 67.7245 104.663C59.0688 107.503 50.2832 110.386 43.2003 113.378L37.836 115.845ZM39.6239 104.888C34.3819 107.149 30.4905 109.406 28.9411 111.698V111.576C28.9411 109.019 33.3676 106.317 39.8722 103.57L45.9107 101.203C50.8745 99.3727 56.4536 97.5352 61.9697 95.7187C67.9606 93.7458 74.0856 91.7286 79.5863 89.6807L85.0094 87.5569C85.8733 87.1983 86.7119 86.839 87.5186 86.4789C89.1486 85.7513 90.6062 85.0416 91.8915 84.35C92.2516 84.5651 92.5971 84.7791 92.9281 84.992C91.1985 85.9683 89.42 86.8553 87.5996 87.6495C86.8401 87.9867 86.0499 88.3239 85.2355 88.661L79.829 90.7709C74.5017 92.7469 68.5532 94.708 62.7346 96.6265C56.7117 98.6122 50.8029 100.561 45.6228 102.496L39.6239 104.888ZM28.9411 113.844C28.9411 111.224 33.169 108.506 39.4639 105.761L45.4307 103.359C50.786 101.342 56.9127 99.3221 62.9654 97.3265C68.9233 95.3622 74.7761 93.4324 79.9925 91.5052L85.388 89.409C88.5726 88.0975 91.3748 86.7819 93.6263 85.4521C93.9498 85.6722 94.2577 85.8911 94.5498 86.1089C92.2684 87.5703 89.1879 89.0387 85.6114 90.507L80.2341 92.5906C75.1027 94.4825 69.3844 96.3688 63.7289 98.2342C57.1485 100.405 50.7006 102.532 45.1426 104.653L39.2285 107.074C34.1783 109.32 30.4486 111.576 28.9411 113.886V113.844ZM34.9508 32.5236C36.011 32.0223 36.9683 31.6205 37.5741 31.3662C42.3029 29.382 48.5143 27.305 55.1961 25.1218L71.9002 19.5732C76.9582 17.8069 81.7669 15.9895 85.9431 14.0976C88.2015 13.0949 90.3972 11.9562 92.5179 10.6879C95.5013 8.90941 97.6923 7.0795 98.7738 5.1837C98.2212 10.5606 85.7283 15.8011 71.7301 20.6445L55.0074 26.2061C42.3494 30.3936 31.7721 34.178 28.9472 37.9571C28.9465 37.9393 28.9456 37.9215 28.9446 37.9037C28.9429 37.8699 28.9411 37.8361 28.9411 37.8024V37.6337C28.9411 36.0487 31.2546 34.324 34.9508 32.5236ZM88.9867 21.9003C84.6191 23.8922 79.1522 25.8888 73.3447 27.8721L53.5676 34.4747C44.8305 37.4693 37.1399 40.4181 32.5806 43.4251C32.2977 43.1992 32.0314 42.9744 31.7815 42.7507C36.0031 39.6253 44.4465 36.4168 53.7836 33.2342L73.1533 26.7726C85.5714 22.5246 95.9966 18.355 98.7923 13.9295C98.7696 15.3463 97.6207 16.7786 95.6414 18.2193C93.1449 19.8412 91.6733 20.6203 88.9867 21.9003ZM88.9201 23.9524C84.6328 25.8653 79.3046 27.7926 73.6647 29.71L53.207 36.5458C45.5067 39.2104 38.6763 41.8497 34.1093 44.5471C33.7857 44.327 33.4779 44.1081 33.1857 43.8903C37.6386 41.038 45.1346 38.159 53.4229 35.3058L73.473 28.6087C79.2735 26.6317 84.6437 24.6761 88.9831 22.7122C92.1597 21.2679 93.8374 20.3802 96.4503 18.5065C97.4748 17.7139 98.2699 16.9167 98.7944 16.1129V16.1548C98.7944 17.1017 98.2399 18.0615 97.2376 19.0307C94.2495 21.2344 92.4099 22.292 88.9201 23.9524ZM88.6195 26.1059C84.4561 27.9084 79.3569 29.7322 73.985 31.5495L52.8449 38.6252C48.2475 40.2374 43.911 41.8713 40.217 43.5203C38.587 44.2479 37.1293 44.9576 35.844 45.6492C35.4839 45.4341 35.1384 45.2201 34.8075 45.0072C36.5371 44.0309 38.3156 43.1439 40.136 42.3497C43.8788 40.6878 48.3349 39.026 53.0616 37.3807L73.7929 30.4462C79.3889 28.547 84.5891 26.6715 88.8299 24.7973C92.6114 23.1338 94.5743 21.9916 97.748 19.523C98.1377 19.1526 98.4884 18.743 98.7944 18.3009V18.4229C98.7944 19.111 98.7351 19.4373 97.8774 20.5168C97.0196 21.5963 92.7953 24.4961 88.6195 26.1059ZM88.0588 28.3633C84.076 30.0238 79.3033 31.7091 74.3055 33.3904L52.4833 40.7023C46.9402 42.6689 41.8274 44.6693 37.7376 46.7199C37.349 46.5112 36.9739 46.3035 36.6122 46.0969C40.8936 43.846 46.588 41.6209 52.699 39.4632L74.1132 32.286C79.417 30.4956 84.3223 28.7482 88.4287 26.9964C92.5204 25.3014 94.5842 24.1284 97.8238 21.6252C98.1832 21.2871 98.5083 20.9144 98.7944 20.5124V20.6911C98.7944 21.4047 98.5702 21.9345 97.7119 22.8767C96.8537 23.819 92.1347 26.6548 88.0588 28.3633ZM87.6172 20.4906C83.4386 22.3455 78.3684 24.2013 73.0248 26.0345L53.928 32.4052C44.1649 35.7207 35.6099 38.9642 31.2569 42.2557C31.0236 42.0255 30.8081 41.7963 30.6103 41.5682C34.3218 38.2068 43.7556 34.6722 54.144 31.1647L72.8332 24.9342C78.1976 23.0885 83.2919 21.213 87.5361 19.3188C93.6482 16.5909 97.3205 14.1335 98.7886 11.7526C98.6668 14.3482 95.0109 17.2083 87.6172 20.4906ZM72.5139 23.1C85.0181 18.7833 95.906 14.3168 98.7858 9.52947C98.496 14.4683 86.291 19.506 72.7046 24.1956L54.2881 30.3368C48.4753 32.2922 43.1158 34.1948 38.7262 36.1055C34.6785 37.8674 31.8527 39.4775 30.1562 41.0058C29.9961 40.7918 29.8472 40.5697 29.7099 40.3405C32.5729 36.7884 43.0566 32.9271 54.504 29.0969L72.5139 23.1ZM71.4746 21.5159C84.4669 17.0489 95.8244 12.409 98.7817 7.35249C98.3591 12.5404 85.8673 17.7105 71.9766 22.5023L54.6479 28.2702C42.6335 32.275 32.6335 35.939 29.3501 39.6435C29.2654 39.4515 29.1923 39.2546 29.1313 39.0537C30.7394 35.3704 42.3555 31.1802 54.8637 27.031L71.4746 21.5159Z" fill="#247A6B"/>
<path d="M38.7096 103.26C39.144 103.071 39.5873 102.883 40.0394 102.694L46.1025 100.341C50.8608 98.6011 56.2011 96.8423 61.7391 95.0185C67.6549 93.0704 73.839 91.0338 79.4225 88.9449L84.8552 86.8053C87.1555 85.8447 89.2714 84.8759 91.1234 83.9023C90.7616 83.6957 90.3865 83.488 89.9979 83.2793C88.3604 84.1003 86.5593 84.9134 84.6317 85.7194L79.1825 87.8668C73.524 89.9845 67.2132 92.0591 60.9714 94.1107C55.9864 95.7492 50.9483 97.4053 46.3895 99.0518L40.2918 101.382C33.5764 104.131 28.9411 106.817 28.9411 109.308V109.487C30.2802 107.564 33.4709 105.539 38.7096 103.26Z" fill="#247A6B"/>
<path d="M28.9411 111.698C30.4905 109.406 34.3819 107.149 39.6239 104.888L45.6228 102.496C50.8029 100.561 56.7117 98.6122 62.7346 96.6265C68.5532 94.708 74.5017 92.7469 79.829 90.7709L85.2355 88.661C86.0499 88.3239 86.8401 87.9867 87.5996 87.6495C89.42 86.8553 91.1985 85.9683 92.9281 84.992C92.5971 84.7791 92.2516 84.5651 91.8915 84.35C90.6062 85.0416 89.1486 85.7513 87.5186 86.4789C86.7119 86.839 85.8733 87.1983 85.0094 87.5569L79.5863 89.6807C74.0856 91.7286 67.9606 93.7458 61.9697 95.7187C56.4536 97.5352 50.8745 99.3727 45.9107 101.203L39.8722 103.57C33.3676 106.317 28.9411 109.019 28.9411 111.576V111.698Z" fill="#247A6B"/>
<path d="M39.4639 105.761C33.169 108.506 28.9411 111.224 28.9411 113.844V113.886C30.4486 111.576 34.1783 109.32 39.2285 107.074L45.1426 104.653C50.7006 102.532 57.1485 100.405 63.7289 98.2342C69.3844 96.3688 75.1027 94.4825 80.2341 92.5906L85.6114 90.507C89.1879 89.0387 92.2684 87.5703 94.5498 86.1089C94.2577 85.8911 93.9498 85.6722 93.6263 85.4521C91.3748 86.7819 88.5726 88.0975 85.388 89.409L79.9925 91.5052C74.7761 93.4324 68.9233 95.3622 62.9654 97.3265C56.9127 99.3221 50.786 101.342 45.4307 103.359L39.4639 105.761Z" fill="#247A6B"/>
<path d="M28.9432 116.07C30.4123 113.744 33.9891 111.489 38.8535 109.257L44.6611 106.816C50.5849 104.505 57.5782 102.198 64.7237 99.8418C70.1741 98.0444 75.6844 96.2272 80.6391 94.4102L85.9846 92.3514C90.1857 90.6376 93.6813 88.931 95.954 87.2485C95.7041 87.0248 95.4378 86.8 95.155 86.5741C92.777 88.1425 89.5475 89.695 85.7613 91.2464L80.3966 93.3207C75.3541 95.1756 69.7073 97.0384 63.9598 98.9343C57.3637 101.11 50.6829 103.314 44.9492 105.522L39.0754 107.951C33.0164 110.681 28.9861 113.403 28.9432 116.07Z" fill="#247A6B"/>
<path d="M28.9469 118.247C30.273 116.096 33.3978 113.883 38.4938 111.465L44.1738 109.005C50.5835 106.436 58.2559 103.908 65.7205 101.449C70.9656 99.721 76.2674 97.9741 81.0448 96.2326L86.3563 94.2006C91.1802 92.2466 95.0487 90.3117 97.1252 88.431C96.9274 88.2029 96.7119 87.9737 96.4787 87.7435C94.1119 89.533 90.5032 91.3084 86.1332 93.0889L80.8014 95.1392C75.9329 96.9213 70.4919 98.7158 64.9546 100.542C57.8628 102.88 50.5791 105.283 44.4651 107.697L38.705 110.153C32.2587 113.167 29.0607 115.822 28.9469 118.247Z" fill="#247A6B"/>
<path d="M28.9498 120.47C30.3562 118.132 33.6726 115.87 38.1542 113.666L43.6869 111.192C50.4324 108.413 58.6344 105.715 66.7202 103.056C71.7592 101.399 76.8522 99.7236 81.4513 98.0584L86.7262 96.0551C92.1792 93.8636 96.3726 91.7096 98.0257 89.6587C97.8884 89.4295 97.7394 89.2074 97.5794 88.9934C95.8828 90.5217 93.0571 92.1318 89.0094 93.8937C88.2046 94.2432 87.3697 94.5927 86.5046 94.9422L81.2076 96.9637C76.5446 98.659 71.341 100.373 65.951 102.149C58.4679 104.614 50.5553 107.222 43.9756 109.896L38.3514 112.372C32.8127 115.052 29.1078 117.776 28.9498 120.47Z" fill="#247A6B"/>
<path d="M28.9538 122.647C30.3277 120.298 33.5148 118.039 37.836 115.845L43.2003 113.378C50.2832 110.386 59.0688 107.503 67.7245 104.663C72.5562 103.078 77.4391 101.476 81.8585 99.8876L87.094 97.9153C93.1813 95.49 97.6511 93.1287 98.6043 90.9455C98.5433 90.7446 98.4702 90.5477 98.3855 90.3557C96.4884 92.496 92.3504 94.6228 86.8757 96.8096L81.6152 98.795C77.1637 100.397 72.1633 102.042 66.9505 103.756C58.9239 106.396 50.4161 109.195 43.4888 112.082L38.0215 114.56C32.7102 117.216 29.1752 119.929 28.9538 122.647Z" fill="#247A6B"/>
<path d="M90.1615 98.633C90.7673 98.3787 91.7246 97.9769 92.7848 97.4756C96.481 95.6752 98.7945 93.9504 98.7945 92.3655V92.1968C98.7945 92.1453 98.7904 92.0937 98.7884 92.0421C97.1581 94.223 92.9457 96.4058 87.2416 98.6667L82.022 100.622C77.7441 102.152 72.9501 103.725 67.9544 105.364C59.3752 108.178 50.2609 111.169 43.0003 114.277L37.7097 116.747C32.6187 119.378 29.243 122.079 28.9618 124.815C30.0432 122.92 32.2342 121.09 35.2177 119.311C35.9366 118.873 36.7108 118.432 37.5403 117.988L42.7319 115.483C50.5065 112.056 60.2843 108.87 69.7536 105.786C74.1475 104.354 78.4022 102.968 82.245 101.624L87.4479 99.7218C88.397 99.3558 89.3039 98.9928 90.1615 98.633Z" fill="#247A6B"/>
<path d="M37.5741 31.3662C36.9683 31.6205 36.011 32.0223 34.9508 32.5236C31.2546 34.324 28.9411 36.0487 28.9411 37.6337V37.8024C28.9411 37.8361 28.9429 37.8699 28.9446 37.9037C28.9456 37.9215 28.9465 37.9393 28.9472 37.9571C31.7721 34.178 42.3494 30.3936 55.0074 26.2061L71.7301 20.6445C85.7283 15.8011 98.2212 10.5606 98.7738 5.1837C97.6923 7.0795 95.5013 8.90941 92.5179 10.6879C90.3972 11.9562 88.2015 13.0949 85.9431 14.0976C81.7669 15.9895 76.9582 17.8069 71.9002 19.5732L55.1961 25.1218C48.5143 27.305 42.3029 29.382 37.5741 31.3662Z" fill="#247A6B"/>
<path d="M98.7817 7.35249C95.8244 12.409 84.4669 17.0489 71.4746 21.5159L54.8637 27.031C42.3555 31.1802 30.7394 35.3704 29.1313 39.0537C29.1923 39.2546 29.2654 39.4515 29.3501 39.6435C32.6335 35.939 42.6335 32.275 54.6479 28.2702L71.9766 22.5023C85.8673 17.7105 98.3591 12.5404 98.7817 7.35249Z" fill="#247A6B"/>
<path d="M98.7858 9.52947C95.906 14.3168 85.0181 18.7833 72.5139 23.1L54.504 29.0969C43.0566 32.9271 32.5729 36.7884 29.7099 40.3405C29.8472 40.5697 29.9961 40.7918 30.1562 41.0058C31.8527 39.4775 34.6785 37.8674 38.7262 36.1055C43.1158 34.1948 48.4753 32.2922 54.2881 30.3368L72.7046 24.1956C86.291 19.506 98.496 14.4683 98.7858 9.52947Z" fill="#247A6B"/>
<path d="M73.0248 26.0345C78.3684 24.2013 83.4386 22.3455 87.6172 20.4906C95.0109 17.2083 98.6668 14.3482 98.7886 11.7526C97.3205 14.1335 93.6482 16.5909 87.5361 19.3188C83.2919 21.213 78.1976 23.0885 72.8332 24.9342L54.144 31.1647C43.7556 34.6722 34.3218 38.2068 30.6103 41.5682C30.8081 41.7963 31.0236 42.0255 31.2569 42.2557C35.6099 38.9642 44.1649 35.7207 53.928 32.4052L73.0248 26.0345Z" fill="#247A6B"/>
<path d="M73.3447 27.8721C79.1522 25.8888 84.6191 23.8922 88.9867 21.9003C91.6733 20.6203 93.1449 19.8412 95.6414 18.2193C97.6207 16.7786 98.7696 15.3463 98.7923 13.9295C95.9966 18.355 85.5714 22.5246 73.1533 26.7726L53.7836 33.2342C44.4465 36.4168 36.0031 39.6253 31.7815 42.7507C32.0314 42.9744 32.2977 43.1992 32.5806 43.4251C37.1399 40.4181 44.8305 37.4693 53.5676 34.4747L73.3447 27.8721Z" fill="#247A6B"/>
<path d="M73.6647 29.71C79.3046 27.7926 84.6328 25.8653 88.9201 23.9524C92.4099 22.292 94.2495 21.2344 97.2376 19.0307C98.2399 18.0615 98.7944 17.1017 98.7944 16.1548V16.1129C98.2699 16.9167 97.4748 17.7139 96.4503 18.5065C93.8374 20.3802 92.1597 21.2679 88.9831 22.7122C84.6437 24.6761 79.2735 26.6317 73.473 28.6087L53.4229 35.3058C45.1346 38.159 37.6386 41.038 33.1857 43.8903C33.4779 44.1081 33.7857 44.327 34.1093 44.5471C38.6763 41.8497 45.5067 39.2104 53.207 36.5458L73.6647 29.71Z" fill="#247A6B"/>
<path d="M73.985 31.5495C79.3569 29.7322 84.4561 27.9084 88.6195 26.1059C92.7953 24.4961 97.0196 21.5963 97.8774 20.5168C98.7351 19.4373 98.7944 19.111 98.7944 18.4229V18.3009C98.4884 18.743 98.1377 19.1526 97.748 19.523C94.5743 21.9916 92.6114 23.1338 88.8299 24.7973C84.5891 26.6715 79.3889 28.547 73.7929 30.4462L53.0616 37.3807C48.3349 39.026 43.8788 40.6878 40.136 42.3497C38.3156 43.1439 36.5371 44.0309 34.8075 45.0072C35.1384 45.2201 35.4839 45.4341 35.844 45.6492C37.1293 44.9576 38.587 44.2479 40.217 43.5203C43.911 41.8713 48.2475 40.2374 52.8449 38.6252L73.985 31.5495Z" fill="#247A6B"/>
<path d="M74.3055 33.3904C79.3033 31.7091 84.076 30.0238 88.0588 28.3633C92.1347 26.6548 96.8537 23.819 97.7119 22.8767C98.5702 21.9345 98.7944 21.4047 98.7944 20.6911V20.5124C98.5083 20.9144 98.1832 21.2871 97.8238 21.6252C94.5842 24.1284 92.5204 25.3014 88.4287 26.9964C84.3223 28.7482 79.417 30.4956 74.1132 32.286L52.699 39.4632C46.588 41.6209 40.8936 43.846 36.6122 46.0969C36.9739 46.3035 37.349 46.5112 37.7376 46.7199C41.8274 44.6693 46.9402 42.6689 52.4833 40.7023L74.3055 33.3904Z" fill="#247A6B"/>
<path d="M82.548 79.0007C82.6534 79.0441 82.7587 79.0875 82.8632 79.1311C82.943 79.1643 83.0222 79.1977 83.1013 79.2311L83.1795 79.2641C83.2195 79.281 83.2594 79.2978 83.2994 79.3147C84.2065 79.6959 85.0877 80.0803 85.943 80.4678C87.4161 81.1353 88.7681 81.7956 89.9993 82.4486C90.0988 82.5014 90.1976 82.5542 90.2957 82.607C90.4625 82.6966 90.6269 82.7861 90.7889 82.8755C91.1649 83.0831 91.5287 83.29 91.8805 83.4962C92.136 83.6461 92.3864 83.7956 92.629 83.9448C92.974 84.1571 93.306 84.3687 93.6251 84.5797C93.8579 84.7338 94.0838 84.8875 94.3029 85.0408C94.6115 85.2566 94.9061 85.4716 95.1867 85.686C95.3902 85.8415 95.5854 85.9966 95.7745 86.1515C96.0408 86.369 96.2925 86.5859 96.5297 86.8022C96.7097 86.9667 96.8817 87.1309 97.0457 87.2947C97.2573 87.506 97.4553 87.7167 97.6395 87.9268C97.804 88.1147 97.9578 88.3021 98.1009 88.4891C98.232 88.6606 98.3548 88.8317 98.4677 89.0025C98.5867 89.1821 98.6956 89.3614 98.7944 89.5404V72.8903C98.7944 70.4228 92.2979 67.6966 90.162 66.8003L90.1613 66.8C87.2076 65.5606 83.6744 64.2848 79.8103 62.9697C79.6674 62.921 79.5239 62.8722 79.3798 62.8234C79.2363 62.7747 79.0922 62.726 78.9477 62.6772C77.3485 62.1372 75.6971 61.5905 74.01 61.037L73.5786 60.8956C73.435 60.8486 73.2911 60.8015 73.147 60.7543C72.027 60.3884 70.8958 60.0193 69.7536 59.6473C65.2112 58.1676 60.598 56.6646 56.1684 55.123C56.0445 55.0799 55.9208 55.0368 55.7973 54.9936C55.6735 54.9503 55.5498 54.907 55.4262 54.8636C53.8093 54.2965 52.2186 53.7243 50.6678 53.1458C50.565 53.1075 50.463 53.0691 50.3609 53.0307L50.085 52.9271C49.9815 52.8882 49.8779 52.8494 49.775 52.8105C46.9462 51.7402 44.259 50.6487 41.7925 49.5313C40.3195 48.8638 38.9675 48.2035 37.7364 47.5506C37.6368 47.4977 37.538 47.4449 37.4399 47.3922C37.2731 47.3025 37.1087 47.213 36.9467 47.1237C36.5707 46.9161 36.2069 46.7092 35.8552 46.5029C35.5996 46.3531 35.3492 46.2035 35.1066 46.0543C34.7617 45.842 34.4296 45.6304 34.1105 45.4194C33.8777 45.2654 33.6518 45.1117 33.4327 44.9583C33.1241 44.7426 32.8295 44.5276 32.549 44.3132C32.3454 44.1577 32.1502 44.0025 31.9611 43.8477C31.6948 43.6302 31.4431 43.4133 31.206 43.197C31.026 43.0325 30.8539 42.8683 30.6899 42.7044C30.4783 42.4932 30.2804 42.2825 30.0961 42.0723C29.9316 41.8845 29.7778 41.6971 29.6347 41.51C29.5036 41.3386 29.3808 41.1675 29.2678 40.9967C29.1489 40.8171 29.04 40.6377 28.9411 40.4587V57.1089C28.9411 59.5766 35.4389 62.3031 37.5742 63.1991C40.3968 64.3835 43.7482 65.601 47.412 66.8544C47.5354 66.8965 47.6591 66.9388 47.783 66.981L47.8479 67.0031C47.9505 67.0381 48.053 67.073 48.1562 67.1081C49.5287 67.5742 50.9423 68.0453 52.3858 68.5214L52.7585 68.6442C52.8825 68.685 53.0067 68.7259 53.1312 68.7669C54.7194 69.289 56.3408 69.8173 57.9819 70.3518C64.3139 72.4145 70.7834 74.5224 76.7005 76.7172L76.9199 76.7985C76.9923 76.8254 77.0646 76.8522 77.1366 76.8791C77.2434 76.919 77.3495 76.9589 77.4556 76.9989L77.5731 77.043C79.2436 77.6711 80.866 78.3065 82.425 78.95L82.4655 78.9667M82.548 79.0007C82.5205 78.9894 82.493 78.978 82.4655 78.9667M82.548 79.0007L82.4655 78.9667M97.5682 24.0205C99.0569 22.8355 99.5316 21.8089 99.5316 20.6911V2.36857C99.5316 2.27082 99.4927 2.17707 99.4236 2.10795C99.3545 2.03883 99.2608 2 99.163 2C99.0653 2 98.9715 2.03883 98.9024 2.10795C98.8333 2.17707 98.7944 2.27082 98.7944 2.36857C98.7944 4.57125 97.0169 6.85113 93.403 9.26253C88.4119 12.5155 80.4871 15.651 71.9287 18.6327L55.3665 24.1437C46.5994 27.0233 38.7513 29.699 33.7726 32.2864C29.9502 34.2018 28.204 35.8424 28.204 37.4565V57.1089C28.204 59.1544 31.0059 61.2424 37.2889 63.8788C40.1506 65.0796 43.5459 66.312 47.2559 67.5801L48.0001 67.8336C49.3717 68.299 50.7837 68.7693 52.2248 69.2445L52.9702 69.4899C54.5371 70.0049 56.1357 70.5257 57.7536 71.0527C64.2382 73.165 70.868 75.3249 76.8913 77.5744L77.7645 77.9028C79.435 78.5355 81.0552 79.1754 82.6082 79.8235L83.4834 80.193C84.2185 80.5065 84.937 80.8219 85.6388 81.1392C86.9176 81.7185 88.1007 82.2898 89.188 82.8529C87.7324 83.5649 86.1527 84.2726 84.478 84.975L79.0192 87.1332C73.2541 89.2976 66.8578 91.4 60.7412 93.4104C55.724 95.0595 50.9044 96.6438 46.5818 98.1881L40.4634 100.496C33.066 103.479 28.204 106.354 28.204 109.308V127.631C28.2039 127.679 28.2133 127.727 28.2318 127.772C28.2503 127.817 28.2774 127.857 28.3116 127.892C28.3459 127.926 28.3865 127.953 28.4313 127.972C28.4761 127.99 28.5241 128 28.5725 128C28.621 128 28.669 127.99 28.7138 127.972C28.7585 127.953 28.7992 127.926 28.8334 127.892C28.8677 127.857 28.8948 127.817 28.9133 127.772C28.9318 127.727 28.9412 127.679 28.9411 127.631C28.9411 125.428 30.7187 123.148 34.3326 120.737C35.2631 120.13 36.2962 119.528 37.4158 118.93L42.5099 116.48C50.0899 113.145 59.8223 109.961 68.9643 106.971C73.7411 105.409 78.3272 103.908 82.4295 102.453L87.605 100.529C89.7709 99.6995 91.893 98.7594 93.9629 97.7128C97.7854 95.7974 99.5316 94.1568 99.5316 92.5427V72.8903C99.5316 70.8447 96.7297 68.7568 90.4466 66.1203C87.3673 64.8282 83.6699 63.4995 79.6278 62.1292L78.7653 61.8379C77.1626 61.2986 75.5101 60.7528 73.8237 60.2003L72.9608 59.9179C71.977 59.5964 70.984 59.2725 69.9818 58.9464C65.4156 57.459 60.7776 55.948 56.3297 54.3987L55.5874 54.1391C53.835 53.5239 52.1152 52.9026 50.4434 52.2743L49.5499 51.9359C46.9132 50.9301 44.406 49.9061 42.0966 48.8599C40.8179 48.2806 39.6348 47.7094 38.5475 47.1463C42.3314 45.2953 46.9547 43.4736 51.8998 41.6983L74.4338 34.1274C79.3619 32.4746 83.9116 30.8783 87.7458 29.3109C91.7513 27.7392 96.0794 25.2055 97.5682 24.0205ZM90.1615 98.633C90.7673 98.3787 91.7246 97.9769 92.7848 97.4756C96.481 95.6752 98.7945 93.9504 98.7945 92.3655V92.1968C98.7945 92.1453 98.7904 92.0937 98.7884 92.0421C97.1581 94.223 92.9457 96.4058 87.2416 98.6667L82.022 100.622C77.7441 102.152 72.9501 103.725 67.9544 105.364C59.3752 108.178 50.2609 111.169 43.0003 114.277L37.7097 116.747C32.6187 119.378 29.243 122.079 28.9618 124.815C30.0432 122.92 32.2342 121.09 35.2177 119.311C35.9366 118.873 36.7108 118.432 37.5403 117.988L42.7319 115.483C50.5065 112.056 60.2843 108.87 69.7536 105.786C74.1475 104.354 78.4022 102.968 82.245 101.624L87.4479 99.7218C88.397 99.3558 89.3039 98.9928 90.1615 98.633ZM40.0394 102.694C39.5873 102.883 39.144 103.071 38.7096 103.26C33.4709 105.539 30.2802 107.564 28.9411 109.487V109.308C28.9411 106.817 33.5764 104.131 40.2918 101.382L46.3895 99.0518C50.9483 97.4053 55.9864 95.7492 60.9714 94.1107C67.2132 92.0591 73.524 89.9845 79.1825 87.8668L84.6317 85.7194C86.5593 84.9134 88.3604 84.1003 89.9979 83.2793C90.3865 83.488 90.7616 83.6957 91.1234 83.9023C89.2714 84.8759 87.1555 85.8447 84.8552 86.8053L79.4225 88.9449C73.839 91.0338 67.6549 93.0704 61.7391 95.0185C56.2011 96.8423 50.8608 98.6011 46.1025 100.341L40.0394 102.694ZM28.9432 116.07C30.4123 113.744 33.9891 111.489 38.8535 109.257L44.6611 106.816C50.5849 104.505 57.5782 102.198 64.7237 99.8418C70.1741 98.0444 75.6844 96.2272 80.6391 94.4102L85.9846 92.3514C90.1857 90.6376 93.6813 88.931 95.954 87.2485C95.7041 87.0248 95.4378 86.8 95.155 86.5741C92.777 88.1425 89.5475 89.695 85.7613 91.2464L80.3966 93.3207C75.3541 95.1756 69.7073 97.0384 63.9598 98.9343C57.3637 101.11 50.6829 103.314 44.9492 105.522L39.0754 107.951C33.0164 110.681 28.9861 113.403 28.9432 116.07ZM38.4938 111.465C33.3978 113.883 30.273 116.096 28.9469 118.247C29.0607 115.822 32.2587 113.167 38.705 110.153L44.4651 107.697C50.5791 105.283 57.8628 102.88 64.9546 100.542C70.4919 98.7158 75.9329 96.9213 80.8014 95.1392L86.1332 93.0889C90.5032 91.3084 94.1119 89.533 96.4787 87.7435C96.7119 87.9737 96.9274 88.2029 97.1252 88.431C95.0487 90.3117 91.1802 92.2466 86.3563 94.2006L81.0448 96.2326C76.2674 97.9741 70.9656 99.721 65.7205 101.449C58.2559 103.908 50.5835 106.436 44.1738 109.005L38.4938 111.465ZM38.1542 113.666C33.6726 115.87 30.3562 118.132 28.9498 120.47C29.1078 117.776 32.8127 115.052 38.3514 112.372L43.9756 109.896C50.5553 107.222 58.4679 104.614 65.951 102.149C71.341 100.373 76.5446 98.659 81.2076 96.9637L86.5046 94.9422C87.3697 94.5927 88.2046 94.2432 89.0094 93.8937C93.0571 92.1318 95.8828 90.5217 97.5794 88.9934C97.7394 89.2074 97.8884 89.4295 98.0257 89.6587C96.3726 91.7096 92.1792 93.8636 86.7262 96.0551L81.4513 98.0584C76.8522 99.7236 71.7592 101.399 66.7202 103.056C58.6344 105.715 50.4324 108.413 43.6869 111.192L38.1542 113.666ZM37.836 115.845C33.5148 118.039 30.3277 120.298 28.9538 122.647C29.1752 119.929 32.7102 117.216 38.0215 114.56L43.4888 112.082C50.4161 109.195 58.9239 106.396 66.9505 103.756C72.1633 102.042 77.1637 100.397 81.6152 98.795L86.8757 96.8096C92.3504 94.6228 96.4884 92.496 98.3855 90.3557C98.4702 90.5477 98.5433 90.7446 98.6043 90.9455C97.6511 93.1287 93.1813 95.49 87.094 97.9153L81.8585 99.8876C77.4391 101.476 72.5562 103.078 67.7245 104.663C59.0688 107.503 50.2832 110.386 43.2003 113.378L37.836 115.845ZM39.6239 104.888C34.3819 107.149 30.4905 109.406 28.9411 111.698V111.576C28.9411 109.019 33.3676 106.317 39.8722 103.57L45.9107 101.203C50.8745 99.3727 56.4536 97.5352 61.9697 95.7187C67.9606 93.7458 74.0856 91.7286 79.5863 89.6807L85.0094 87.5569C85.8733 87.1983 86.7119 86.839 87.5186 86.4789C89.1486 85.7513 90.6062 85.0416 91.8915 84.35C92.2516 84.5651 92.5971 84.7791 92.9281 84.992C91.1985 85.9683 89.42 86.8553 87.5996 87.6495C86.8401 87.9867 86.0499 88.3239 85.2355 88.661L79.829 90.7709C74.5017 92.7469 68.5532 94.708 62.7346 96.6265C56.7117 98.6122 50.8029 100.561 45.6228 102.496L39.6239 104.888ZM39.4639 105.761C33.169 108.506 28.9411 111.224 28.9411 113.844V113.886C30.4486 111.576 34.1783 109.32 39.2285 107.074L45.1426 104.653C50.7006 102.532 57.1485 100.405 63.7289 98.2342C69.3844 96.3688 75.1027 94.4825 80.2341 92.5906L85.6114 90.507C89.1879 89.0387 92.2684 87.5703 94.5498 86.1089C94.2577 85.8911 93.9498 85.6722 93.6263 85.4521C91.3748 86.7819 88.5726 88.0975 85.388 89.409L79.9925 91.5052C74.7761 93.4324 68.9233 95.3622 62.9654 97.3265C56.9127 99.3221 50.786 101.342 45.4307 103.359L39.4639 105.761ZM37.5741 31.3662C36.9683 31.6205 36.011 32.0223 34.9508 32.5236C31.2546 34.324 28.9411 36.0487 28.9411 37.6337V37.8024C28.9411 37.8361 28.9429 37.8699 28.9446 37.9037C28.9456 37.9215 28.9465 37.9393 28.9472 37.9571C31.7721 34.178 42.3494 30.3936 55.0074 26.2061L71.7301 20.6445C85.7283 15.8011 98.2212 10.5606 98.7738 5.1837C97.6923 7.0795 95.5013 8.90941 92.5179 10.6879C90.3972 11.9562 88.2015 13.0949 85.9431 14.0976C81.7669 15.9895 76.9582 17.8069 71.9002 19.5732L55.1961 25.1218C48.5143 27.305 42.3029 29.382 37.5741 31.3662ZM88.9867 21.9003C84.6191 23.8922 79.1522 25.8888 73.3447 27.8721L53.5676 34.4747C44.8305 37.4693 37.1399 40.4181 32.5806 43.4251C32.2977 43.1992 32.0314 42.9744 31.7815 42.7507C36.0031 39.6253 44.4465 36.4168 53.7836 33.2342L73.1533 26.7726C85.5714 22.5246 95.9966 18.355 98.7923 13.9295C98.7696 15.3463 97.6207 16.7786 95.6414 18.2193C93.1449 19.8412 91.6733 20.6203 88.9867 21.9003ZM73.6647 29.71C79.3046 27.7926 84.6328 25.8653 88.9201 23.9524C92.4099 22.292 94.2495 21.2344 97.2376 19.0307C98.2399 18.0615 98.7944 17.1017 98.7944 16.1548V16.1129C98.2699 16.9167 97.4748 17.7139 96.4503 18.5065C93.8374 20.3802 92.1597 21.2679 88.9831 22.7122C84.6437 24.6761 79.2735 26.6317 73.473 28.6087L53.4229 35.3058C45.1346 38.159 37.6386 41.038 33.1857 43.8903C33.4779 44.1081 33.7857 44.327 34.1093 44.5471C38.6763 41.8497 45.5067 39.2104 53.207 36.5458L73.6647 29.71ZM73.985 31.5495C79.3569 29.7322 84.4561 27.9084 88.6195 26.1059C92.7953 24.4961 97.0196 21.5963 97.8774 20.5168C98.7351 19.4373 98.7944 19.111 98.7944 18.4229V18.3009C98.4884 18.743 98.1377 19.1526 97.748 19.523C94.5743 21.9916 92.6114 23.1338 88.8299 24.7973C84.5891 26.6715 79.3889 28.547 73.7929 30.4462L53.0616 37.3807C48.3349 39.026 43.8788 40.6878 40.136 42.3497C38.3156 43.1439 36.5371 44.0309 34.8075 45.0072C35.1384 45.2201 35.4839 45.4341 35.844 45.6492C37.1293 44.9576 38.587 44.2479 40.217 43.5203C43.911 41.8713 48.2475 40.2374 52.8449 38.6252L73.985 31.5495ZM74.3055 33.3904C79.3033 31.7091 84.076 30.0238 88.0588 28.3633C92.1347 26.6548 96.8537 23.819 97.7119 22.8767C98.5702 21.9345 98.7944 21.4047 98.7944 20.6911V20.5124C98.5083 20.9144 98.1832 21.2871 97.8238 21.6252C94.5842 24.1284 92.5204 25.3014 88.4287 26.9964C84.3223 28.7482 79.417 30.4956 74.1132 32.286L52.699 39.4632C46.588 41.6209 40.8936 43.846 36.6122 46.0969C36.9739 46.3035 37.349 46.5112 37.7376 46.7199C41.8274 44.6693 46.9402 42.6689 52.4833 40.7023L74.3055 33.3904ZM73.0248 26.0345C78.3684 24.2013 83.4386 22.3455 87.6172 20.4906C95.0109 17.2083 98.6668 14.3482 98.7886 11.7526C97.3205 14.1335 93.6482 16.5909 87.5361 19.3188C83.2919 21.213 78.1976 23.0885 72.8332 24.9342L54.144 31.1647C43.7556 34.6722 34.3218 38.2068 30.6103 41.5682C30.8081 41.7963 31.0236 42.0255 31.2569 42.2557C35.6099 38.9642 44.1649 35.7207 53.928 32.4052L73.0248 26.0345ZM72.5139 23.1C85.0181 18.7833 95.906 14.3168 98.7858 9.52947C98.496 14.4683 86.291 19.506 72.7046 24.1956L54.2881 30.3368C48.4753 32.2922 43.1158 34.1948 38.7262 36.1055C34.6785 37.8674 31.8527 39.4775 30.1562 41.0058C29.9961 40.7918 29.8472 40.5697 29.7099 40.3405C32.5729 36.7884 43.0566 32.9271 54.504 29.0969L72.5139 23.1ZM71.9766 22.5023C85.8673 17.7105 98.3591 12.5404 98.7817 7.35249C95.8244 12.409 84.4669 17.0489 71.4746 21.5159L54.8637 27.031C42.3555 31.1802 30.7394 35.3704 29.1313 39.0537C29.1923 39.2546 29.2654 39.4515 29.3501 39.6435C32.6335 35.939 42.6335 32.275 54.6479 28.2702L71.9766 22.5023Z" stroke="#247A6B" stroke-width="2"/>
</svg>
