<?xml version="1.0" encoding="UTF-8" standalone="no"?>
<svg
   version="1.1"
   viewBox="0 0 256 256"
   id="svg51768"
   sodipodi:docname="workflow.svg"
   inkscape:version="1.1.2 (0a00cf5339, 2022-02-04)"
   width="256"
   height="256"
   xmlns:inkscape="http://www.inkscape.org/namespaces/inkscape"
   xmlns:sodipodi="http://sodipodi.sourceforge.net/DTD/sodipodi-0.dtd"
   xmlns="http://www.w3.org/2000/svg"
   xmlns:svg="http://www.w3.org/2000/svg">
  <defs
     id="defs51772" />
  <sodipodi:namedview
     id="namedview51770"
     pagecolor="#ffffff"
     bordercolor="#666666"
     borderopacity="1.0"
     inkscape:pageshadow="2"
     inkscape:pageopacity="0.0"
     inkscape:pagecheckerboard="0"
     showgrid="false"
     inkscape:zoom="1.5887806"
     inkscape:cx="-636.33709"
     inkscape:cy="361.28338"
     inkscape:window-width="3840"
     inkscape:window-height="2123"
     inkscape:window-x="0"
     inkscape:window-y="0"
     inkscape:window-maximized="1"
     inkscape:current-layer="svg51768" />
  <path
     style=""
     d="m 67.333124,184.26875 c -1.95713,-1.32477 -1.87943,-0.47147 -1.87943,-20.64027 0,-20.16879 -0.0777,-19.31549 1.87943,-20.64026 l 0.92623,-0.62695 h 13.99796 13.99797 v -8.14782 -8.14783 h 17.656906 17.65689 l 1.96944,-2.00893 1.96944,-2.00893 v -5.3103 -5.31031 l -3.61179,-5.5e-4 c -2.89986,-2.8e-4 -3.79603,-0.0956 -4.54648,-0.48335 -1.53721,-0.79423 -2.04052,-1.74794 -2.15712,-4.0875 l -0.10255,-2.05734 h -5.42196 -5.42197 V 94.641672 84.484932 l -2.13159,-2.14716 -2.1316,-2.14715 -2.02537,0.0822 -2.02537,0.0821 -0.13861,2.07148 c -0.15839,2.36719 -0.49335,3.12344 -1.71876,3.88052 -0.81366,0.50269 -1.43663,0.53658 -9.863906,0.53658 -8.42729,0 -9.05026,-0.0339 -9.86392,-0.53658 -1.22541,-0.75708 -1.56037,-1.51333 -1.71876,-3.88052 l -0.13861,-2.07148 -4.1166,-0.076 -4.1166,-0.076 -0.66859,1.31638 c -2.09881,4.13239 -7.98583,4.16448 -10.05502,0.0548 -0.71038,-1.41088 -0.71038,-3.78939 0,-5.20027 2.06919,-4.10967 7.95621,-4.07758 10.05502,0.0548 l 0.66859,1.31638 4.1166,-0.076 4.1166,-0.076 0.13861,-2.071479 c 0.15839,-2.36719 0.49335,-3.12344 1.71876,-3.88052 0.81366,-0.502691 1.43663,-0.53658 9.86392,-0.53658 8.427276,0 9.050246,0.0339 9.863906,0.53658 1.22541,0.75708 1.56037,1.513329 1.71876,3.88052 l 0.13861,2.071479 2.0145,0.0819 2.0145,0.0819 2.51464,-2.49866 c 1.38304,-1.37426 2.73819,-2.49866 3.01143,-2.49866 0.27324,0 1.62255,1.1186 2.99847,2.48578 l 2.50166,2.48578 h 2.08113 2.08112 v -1.8226 c 0,-2.19933 0.53542,-3.47949 1.78167,-4.25991 0.87433,-0.54753 1.22839,-0.5645 10.17141,-0.4877 l 9.26555,0.0796 0.73822,0.6905 c 1.04282,0.9754 1.48572,2.2078 1.48572,4.13409 v 1.66606 h 3.30777 3.30778 l 2.50167,-2.48578 c 1.43051,-1.42143 2.73026,-2.48578 3.03558,-2.48578 0.30973,0 1.55924,1.04375 2.97584,2.48578 l 2.44192,2.48578 h 7.8012 7.80119 l 0.48268,-1.08457 c 1.80535,-4.05659 7.34993,-4.52422 9.82215,-0.82841 0.71978,1.07605 0.81774,1.45896 0.81776,3.19671 2e-5,1.77574 -0.0863,2.09501 -0.8582,3.17568 -2.59538,3.63336 -7.98714,3.1433 -9.78171,-0.88907 l -0.48268,-1.08457 h -7.8019 -7.80191 l -2.10616,2.146649 -2.10616,2.146641 v 10.144139 10.144158 h -6.64256 -6.64256 l -0.12899,2.03648 c -0.0976,1.54044 -0.28216,2.25445 -0.75783,2.93132 -0.9748,1.38711 -1.96249,1.66094 -5.99082,1.66094 h -3.5524 v 5.32371 5.32372 l 1.98267,1.99552 1.98268,1.99552 h 10.55637 10.55638 v 14.77657 14.77657 h 3.61604 c 3.00588,0 3.77631,0.0868 4.56585,0.51458 1.34299,0.7276 1.95527,1.9445 2.11476,4.20312 l 0.13495,1.91104 h 4.02787 4.02788 l 0.60878,-1.27422 c 1.5278,-3.19782 5.94663,-4.06214 8.61792,-1.68565 2.63201,2.34153 2.63201,6.34018 0,8.68171 -2.8112,2.50096 -7.34014,1.44071 -8.80898,-2.06223 l -0.3764,-0.89764 h -4.04854 -4.04853 l -0.13495,1.91104 c -0.15949,2.25861 -0.77177,3.47552 -2.11476,4.20312 -0.86893,0.47076 -1.68134,0.51455 -9.54058,0.51416 -9.5892,-5.6e-4 -9.88468,-0.0512 -11.10679,-1.90475 -0.58821,-0.89217 -0.61874,-1.19348 -0.61874,-6.10456 0,-4.91107 0.0305,-5.21238 0.61874,-6.10455 1.05746,-1.60386 2.02386,-1.90426 6.1278,-1.90475 l 3.6118,-5.5e-4 v -13.39562 -13.39558 h -9.20586 -9.20587 l -2.30496,2.34768 c -1.68766,1.71894 -2.49069,2.34768 -2.99847,2.34768 -0.50777,0 -1.31081,-0.62874 -2.99847,-2.34768 l -2.30496,-2.34768 H 115.27432 98.981174 v 6.76684 6.76684 h 14.051816 c 15.5075,0 15.14631,-0.0388 16.21648,1.73964 0.51374,0.85372 0.53214,1.52292 0.53313,19.39378 9.8e-4,17.39997 -0.0288,18.56596 -0.49708,19.45059 -0.27395,0.51757 -0.91602,1.16815 -1.42683,1.44572 -0.883,0.47983 -2.37369,0.50469 -30.264046,0.50469 h -29.33529 z m 59.610306,-2.53307 c 0.32455,-0.44975 0.38689,-3.37563 0.38689,-18.15998 0,-17.29499 -0.0103,-17.63423 -0.54885,-18.17998 -0.54408,-0.55128 -0.79967,-0.55549 -29.313196,-0.48335 -25.21905,0.0638 -28.79618,0.12384 -29.02277,0.48708 -0.15585,0.24986 -0.26008,7.4991 -0.26261,18.26427 -0.003,14.04278 0.0693,17.9117 0.34002,18.1394 0.1893,0.15919 0.83329,0.33358 1.43109,0.38753 0.59779,0.054 13.57791,0.0943 28.84472,0.0896 27.157576,-0.008 27.766186,-0.02 28.144706,-0.5446 z M 73.221604,171.11746 c -1.89278,-0.88294 -2.04441,-1.4384 -2.04441,-7.48898 0,-5.99185 0.14277,-6.53547 1.9654,-7.48361 0.93054,-0.48408 1.68809,-0.52611 9.48119,-0.52611 9.15978,0 9.58829,0.0591 10.90455,1.50458 0.58192,0.63903 0.6946,1.06394 0.77848,2.93567 l 0.0981,2.18849 h 3.24219 3.242186 v -1.89254 c 0,-1.5078 0.12579,-2.08333 0.61876,-2.83103 1.2221,-1.85359 1.51757,-1.90427 11.10678,-1.90475 9.61113,-5.5e-4 9.92291,0.055 11.03556,1.9642 0.49226,0.84465 0.54518,1.4314 0.54518,6.0451 0,5.83954 -0.17874,6.49294 -2.03917,7.45463 -1.00795,0.52103 -1.59747,0.55508 -9.60311,0.55468 -9.52095,-5.6e-4 -9.82421,-0.0528 -11.04524,-1.90475 -0.49297,-0.7477 -0.61876,-1.32323 -0.61876,-2.83103 v -1.89254 h -3.242186 -3.24219 l -0.0981,2.18849 c -0.0839,1.87173 -0.19656,2.29664 -0.77848,2.93567 -1.31599,1.44517 -1.74881,1.50508 -10.82554,1.49852 -7.56592,-0.005 -8.49804,-0.0561 -9.48119,-0.51469 z m 18.3901,-2.77546 c 0.36991,-0.70034 0.36991,-8.72669 0,-9.42703 -0.26979,-0.51079 -0.65822,-0.53424 -8.84952,-0.53424 -8.1913,0 -8.57972,0.0235 -8.84952,0.53424 -0.15885,0.30075 -0.28218,2.36082 -0.28218,4.71351 0,2.3527 0.12333,4.41277 0.28218,4.71352 0.2698,0.51079 0.65822,0.53424 8.84952,0.53424 8.1913,0 8.57973,-0.0235 8.84952,-0.53424 z m 29.667166,0.2028 c 0.22814,-0.23116 0.3271,-1.71856 0.3271,-4.91632 0,-3.19775 -0.099,-4.68515 -0.3271,-4.91631 -0.23999,-0.24316 -2.52103,-0.33144 -8.56424,-0.33144 -4.53041,0 -8.43114,0.0754 -8.66829,0.16765 -0.37084,0.14419 -0.43117,0.85595 -0.43117,5.08664 0,3.67676 0.0861,4.95417 0.34072,5.0583 0.18741,0.0766 4.08815,0.14912 8.6683,0.16111 6.13834,0.0161 8.41356,-0.0653 8.65468,-0.30963 z m 49.33842,0 c 0.22815,-0.23116 0.32711,-1.71856 0.32711,-4.91632 0,-3.19775 -0.099,-4.68515 -0.32711,-4.91631 -0.46757,-0.47377 -16.86901,-0.47377 -17.33659,0 -0.45911,0.46519 -0.45911,9.36744 0,9.83263 0.46758,0.47377 16.86902,0.47377 17.33659,0 z m 18.75406,-2.81721 c 0.75979,-0.76985 0.9268,-1.14812 0.9268,-2.09911 0,-0.95098 -0.16701,-1.32925 -0.9268,-2.0991 -0.98075,-0.99374 -1.93415,-1.18839 -3.28044,-0.66976 -0.81133,0.31256 -1.7872,1.79301 -1.78868,2.71353 -0.002,0.95719 0.73187,2.20048 1.5698,2.66115 1.29968,0.71454 2.45982,0.54655 3.49932,-0.50671 z m -50.99774,-36.90357 1.34592,-1.38456 -1.42432,-1.44318 -1.42431,-1.44317 -1.42432,1.44317 -1.42431,1.44318 1.34592,1.38456 c 0.74026,0.76151 1.41648,1.38456 1.50271,1.38456 0.0863,0 0.76246,-0.62305 1.50271,-1.38456 z m 7.16559,-20.49029 c 0.45911,-0.46519 0.45911,-9.367443 0,-9.832633 -0.46758,-0.47377 -16.86902,-0.47377 -17.3366,0 -0.45911,0.465191 -0.45911,9.367443 0,9.832633 0.46758,0.47377 16.86902,0.47377 17.3366,0 z m -20.34663,-8.354773 c 0.1166,-2.33956 0.61991,-3.29326 2.15712,-4.08749 0.83082,-0.42925 1.88227,-0.48296 9.46182,-0.48334 9.40896,-5.6e-4 9.84464,0.0655 10.96555,1.6605 0.47567,0.67686 0.66027,1.39088 0.75783,2.93132 l 0.12899,2.036483 h 5.41591 5.41591 v -8.731938 -8.73194 l -2.09167,-2.17786 -2.09168,-2.17787 h -3.36009 -3.36008 v 1.66606 c 0,1.92629 -0.4429,3.15869 -1.48572,4.13409 l -0.73822,0.6905 -9.26555,0.0796 c -8.94302,0.0768 -9.29708,0.0598 -10.17141,-0.4877 -1.24625,-0.78043 -1.78167,-2.06059 -1.78167,-4.25992 v -1.822599 h -2.07346 -2.07346 l -2.01536,1.980059 -2.01535,1.98006 v 8.92975 8.929738 h 4.05902 4.05902 z M 102.84408,83.902692 c 0.44341,-0.40659 0.4985,-0.94597 0.4985,-4.88076 0,-3.72867 -0.0709,-4.50301 -0.45114,-4.92875 -0.41785,-0.46783 -1.05127,-0.5051 -8.586516,-0.5051 -7.77194,0 -8.15975,0.0247 -8.68056,0.552401 -0.49829,0.50488 -0.54519,0.92066 -0.54519,4.83346 0,3.9128 0.0469,4.32858 0.54519,4.83345 0.52067,0.52758 0.90862,0.5524 8.6332,0.5524 7.143466,0 8.146246,-0.0534 8.586516,-0.457101 z m 42.59387,0.0231 c 0.63404,-0.64243 0.63404,-9.26123 0,-9.90366 -0.37005,-0.37495 -1.52269,-0.43403 -8.46815,-0.43403 -5.02075,0 -8.23778,0.10737 -8.56705,0.28592 -0.49029,0.26587 -0.52725,0.62309 -0.52725,5.09593 0,4.28959 0.0516,4.84048 0.47702,5.09154 0.29401,0.17351 3.58103,0.28474 8.56706,0.28992 6.99851,0.007 8.14781,-0.0502 8.51837,-0.42562 z m -75.123896,-2.50624 c 0.34985,-0.22939 0.81933,-0.86145 1.04329,-1.40458 0.3459,-0.83881 0.35271,-1.13264 0.0452,-1.95129 -0.83267,-2.2167 -3.33323,-2.83502 -4.92846,-1.21867 -2.60689,2.64142 0.72839,6.61474 3.83996,4.57454 z m 118.185406,0.34556 c 1.21464,-0.51423 1.79869,-1.42841 1.79869,-2.81536 0,-1.39576 -0.73434,-2.43778 -2.02123,-2.86811 -1.20686,-0.40358 -2.10221,-0.15155 -3.05992,0.86132 -1.05198,1.11256 -1.0957,2.88464 -0.098,3.97233 1.14105,1.244 1.96196,1.45036 3.38048,0.84982 z m -71.45939,-4.37277 -1.42493,-1.44379 -1.50266,1.50364 -1.50265,1.50364 1.4253,1.46234 1.4253,1.46233 1.50228,-1.52217 1.50229,-1.52218 z m 45.12269,0.14027 -1.42252,-1.45948 -1.4404,1.44135 -1.4404,1.44135 1.4225,1.45947 1.42252,1.45948 1.4404,-1.44135 1.4404,-1.44134 z"
     id="path52620" />
</svg>
